<svg xmlns="http://www.w3.org/2000/svg" viewBox="0 0 238.55 37.28"><defs><style>.cls-1{fill:#fff;}.cls-2{fill:#ff3957;}.cls-3{fill:none;stroke:#000;stroke-linecap:round;stroke-miterlimit:10;stroke-width:2px;}.cls-4{fill:#666;}</style></defs><g id="Capa_2" data-name="Capa 2"><g id="Capa_1-2" data-name="Capa 1"><rect class="cls-1" width="238.55" height="37.28" rx="6.81"/><rect class="cls-2" x="194.21" width="44.34" height="37.28" rx="6.81"/><path d="M25,8.59A5.78,5.78,0,0,1,26.11,11L30.43,26.8c.05.23,0,.35-.25.35H28.74c-.13,0-.23-.1-.28-.33L26.81,21H18.87l-1.66,5.84c-.08.23-.18.33-.31.33H15.46c-.23,0-.3-.12-.25-.35L19.68,11a5.6,5.6,0,0,1,1.07-2.4,3.08,3.08,0,0,1,2.07-.51A3.43,3.43,0,0,1,25,8.59Zm-3,1.5a4.89,4.89,0,0,0-.51,1.39l-2.2,7.78h7l-2.1-7.78a4.18,4.18,0,0,0-.53-1.39c-.13-.18-.43-.28-.91-.28A.92.92,0,0,0,22,10.09Z"/><path d="M43.38,8.24a.29.29,0,0,1,.33.33V26.49a.35.35,0,0,1-.36.38,32.88,32.88,0,0,1-5.13.41c-2.3,0-3.82-.46-4.53-1.34s-1-2.78-1-5.64a13.49,13.49,0,0,1,.6-4.85c.79-1.7,2.2-2,5.14-2.1a33.29,33.29,0,0,1,3.49.15V8.57c0-.23.1-.33.3-.33ZM41.89,15H38.4c-1.7,0-2.79.32-3.24,1s-.66,2.1-.66,4.29.2,3.7.63,4.38,1.47,1,3.09,1a28.18,28.18,0,0,0,3.67-.25Z"/><path d="M64.47,14.26c1,.81,1.26,2.22,1.26,4.85l0,7.71c0,.23-.1.33-.32.33H64.24c-.23,0-.33-.1-.33-.33V19.11c0-1.95-.18-3-.81-3.54s-1.24-.63-2.66-.63a19.18,19.18,0,0,0-3.41.28A10.23,10.23,0,0,1,57.56,19l-.05,7.83c0,.23-.1.33-.28.33H56.05c-.23,0-.33-.1-.33-.33V19a7.52,7.52,0,0,0-.48-3.11,1.24,1.24,0,0,0-.71-.63,4.88,4.88,0,0,0-2.28-.3h-3V26.82c0,.23-.1.33-.3.33H47.78c-.23,0-.33-.1-.33-.33V14c0-.2.1-.3.33-.33A26.46,26.46,0,0,1,52,13.35a8.74,8.74,0,0,1,4,.7,13.63,13.63,0,0,1,4.22-.73C62.44,13.32,63.48,13.45,64.47,14.26Z"/><path d="M71.5,9.6c0,.81-.38,1.22-1.17,1.22A1.07,1.07,0,0,1,69.12,9.6c0-.78.4-1.16,1.21-1.16A1,1,0,0,1,71.5,9.6Zm-.59,3.87c.23,0,.33.1.33.33v13c0,.23-.1.33-.33.33H69.73c-.23,0-.33-.1-.33-.33v-13c0-.23.1-.33.33-.33Z"/><path d="M82.32,13.42a4.21,4.21,0,0,1,2.5.84c.89.81,1.24,2.22,1.24,4.85v7.71c0,.23-.13.33-.38.33H84.54a.29.29,0,0,1-.33-.33V19.11c0-1.95-.17-3-.8-3.54s-1.22-.6-2.66-.6H76.83V26.82c0,.23-.1.33-.3.33H75.34c-.23,0-.33-.1-.33-.33V14c0-.2.1-.3.33-.33a30.51,30.51,0,0,1,5.11-.35C81.21,13.35,81.84,13.37,82.32,13.42Z"/><path d="M91.85,9.6c0,.81-.38,1.22-1.16,1.22A1.08,1.08,0,0,1,89.47,9.6c0-.78.41-1.16,1.22-1.16A1,1,0,0,1,91.85,9.6Zm-.58,3.87c.23,0,.33.1.33.33v13c0,.23-.1.33-.33.33H90.08c-.23,0-.33-.1-.33-.33v-13c0-.23.1-.33.33-.33Z"/><path d="M103.51,13.52a.3.3,0,0,1,.3.33v.79a.29.29,0,0,1-.33.33h-4.6c-1.47,0-2.2.5-2.2,1.51v.41c0,.91.41,1.51,1.7,2l3.56,1.45c2,.8,2.4,1.79,2.4,3.38v.31a2.75,2.75,0,0,1-1.11,2.58,8.15,8.15,0,0,1-3.84.63,41.09,41.09,0,0,1-4.4-.2c-.2,0-.31-.13-.31-.31V26c0-.23.11-.33.31-.33h4.45c2.4,0,3.08-.3,3.08-1.59v-.33c0-.89-.38-1.42-1.51-1.9l-3.8-1.51a3.47,3.47,0,0,1-2.35-3.47V16.3a2.64,2.64,0,0,1,1-2.22A3.7,3.7,0,0,1,97,13.6a9.53,9.53,0,0,1,2.61-.25A35.35,35.35,0,0,1,103.51,13.52Z"/><path d="M109.38,9.66c.25-.08.37,0,.37.27v3.54h2.81c.23,0,.33.1.33.33v.89c0,.2-.1.3-.33.3h-2.81v9.25c0,1.14.31,1.42,1.65,1.42h1.34c.23,0,.35.1.35.3v.86c0,.18-.1.28-.3.33a8.68,8.68,0,0,1-3.36-.07c-.89-.28-1.52-.94-1.52-2.46V15h-1.42c-.23,0-.33-.1-.33-.3V13.8c0-.23.1-.33.33-.33h1.42V10.26a.33.33,0,0,1,.28-.33Z"/><path d="M121.72,13.57a.4.4,0,0,1,.3.36v.73c0,.23-.1.33-.33.31h-2.2c-1.62,0-2.23.3-2.23,1.44V26.82c0,.23-.1.33-.32.33h-1.19c-.23,0-.33-.1-.33-.33V16a2.55,2.55,0,0,1,.93-2.1,2.66,2.66,0,0,1,1-.38,5.85,5.85,0,0,1,1.77-.2A9.89,9.89,0,0,1,121.72,13.57Z"/><path d="M133.14,17.27v8.85a.65.65,0,0,1-.45.65,18.46,18.46,0,0,1-5.39.51,5.84,5.84,0,0,1-3.59-.84,4,4,0,0,1-1-3.16c0-2.7,1.31-3.74,4.22-3.74h4.42v-2c0-1.84-1.18-2.57-3.74-2.57h-3.41a.29.29,0,0,1-.33-.33v-.71a.36.36,0,0,1,.3-.36,24.37,24.37,0,0,1,3.44-.22C131.25,13.35,133.14,14.43,133.14,17.27Zm-1.82,3.86H126.9c-1.69,0-2.4.61-2.4,2.15,0,1.85.78,2.41,3.21,2.41a15,15,0,0,0,3.61-.33Z"/><path d="M147.1,8.24c.23,0,.33.1.33.33V26.49a.35.35,0,0,1-.35.38,32.91,32.91,0,0,1-5.14.41c-2.3,0-3.81-.46-4.52-1.34s-1-2.78-1-5.64a13.44,13.44,0,0,1,.61-4.85c.78-1.7,2.2-2,5.13-2.1a33,33,0,0,1,3.49.15V8.57c0-.23.1-.33.3-.33ZM145.61,15h-3.49c-1.69,0-2.78.32-3.23,1s-.66,2.1-.66,4.29.2,3.7.63,4.38,1.47,1,3.08,1a28,28,0,0,0,3.67-.25Z"/><path d="M160.91,25.86c-.84,1.11-2.13,1.42-4.55,1.42s-3.82-.46-4.55-1.37-1.07-2.8-1.07-5.61.36-4.68,1.07-5.59,2.25-1.36,4.55-1.36,3.82.45,4.55,1.36S162,17.49,162,20.3,161.79,24.75,160.91,25.86ZM153.25,16c-.46.68-.69,2.1-.69,4.3s.23,3.64.69,4.32,1.51,1,3.11,1,2.65-.35,3.11-1,.71-2.12.71-4.32-.23-3.62-.71-4.3-1.49-1-3.11-1S153.73,15.32,153.25,16Z"/><path d="M171.58,13.57a.4.4,0,0,1,.3.36v.73c0,.23-.1.33-.33.31h-2.2c-1.61,0-2.22.3-2.22,1.44V26.82c0,.23-.1.33-.33.33h-1.19a.29.29,0,0,1-.33-.33V16a2.24,2.24,0,0,1,1.9-2.48,5.92,5.92,0,0,1,1.77-.2A9.84,9.84,0,0,1,171.58,13.57Z"/><polyline class="cls-3" points="213.09 12.06 219.67 18.64 213.09 25.22"/><path class="cls-4" d="M231.74,1a5.81,5.81,0,0,1,5.81,5.81V30.47a5.81,5.81,0,0,1-5.81,5.81H6.81A5.82,5.82,0,0,1,1,30.47V6.81A5.82,5.82,0,0,1,6.81,1H231.74m0-1H6.81A6.81,6.81,0,0,0,0,6.81V30.47a6.81,6.81,0,0,0,6.81,6.81H231.74a6.81,6.81,0,0,0,6.81-6.81V6.81A6.81,6.81,0,0,0,231.74,0Z"/></g></g></svg>