<svg xmlns="http://www.w3.org/2000/svg" viewBox="0 0 238.55 37.28"><defs><style>.cls-1{fill:#fff;}.cls-2{fill:#88bb43;}.cls-3{fill:#666;}.cls-4{fill:none;stroke:#000;stroke-linecap:round;stroke-miterlimit:10;stroke-width:2px;}</style></defs><g id="Capa_2" data-name="Capa 2"><g id="Capa_1-2" data-name="Capa 1"><rect class="cls-1" width="238.55" height="37.28" rx="6.81"/><rect class="cls-2" x="194.21" width="44.34" height="37.28" rx="6.81"/><path class="cls-3" d="M231.74,1a5.81,5.81,0,0,1,5.81,5.81V30.47a5.81,5.81,0,0,1-5.81,5.81H6.81A5.82,5.82,0,0,1,1,30.47V6.81A5.82,5.82,0,0,1,6.81,1H231.74m0-1H6.81A6.81,6.81,0,0,0,0,6.81V30.47a6.81,6.81,0,0,0,6.81,6.81H231.74a6.81,6.81,0,0,0,6.81-6.81V6.81A6.81,6.81,0,0,0,231.74,0Z"/><polyline class="cls-4" points="222.96 16.59 216.38 23.17 209.8 16.59"/><path d="M24.75,8.37c.18,0,.28.1.28.27V9.5c0,.21-.08.31-.25.31H19.19c-2.53,0-3.72.76-3.72,2.55v.4c0,1.5.43,2.18,2.07,2.86l5.77,2.43A4.12,4.12,0,0,1,26,22.32v.76a3.87,3.87,0,0,1-1.29,3.16,4.31,4.31,0,0,1-1.46.68,13.07,13.07,0,0,1-3.62.36A60.37,60.37,0,0,1,13.5,27c-.18,0-.25-.1-.25-.3v-.84a.26.26,0,0,1,.3-.28h6.7c2.53,0,3.84-.63,3.84-2.52V22.5a2.92,2.92,0,0,0-2-3l-6.19-2.55a4.33,4.33,0,0,1-1.55-1.06,4.25,4.25,0,0,1-.86-3v-.56a3.84,3.84,0,0,1,1.19-3c1.27-.93,2.94-1.14,5.11-1.14C21.31,8.11,23,8.19,24.75,8.37Z"/><path d="M38.33,14.64c.71.86,1.09,2.6,1.11,5.2v.74c0,.48-.1.63-.78.63H30.39a6.16,6.16,0,0,0,.76,3.57c.48.58,1.44.88,2.91.88h4c.22,0,.32.1.32.33v.78a.31.31,0,0,1-.3.33,35.43,35.43,0,0,1-4,.18c-2.36,0-3.65-.31-4.48-1.42s-1-2.63-1-5.56.36-4.68,1-5.59,2.2-1.36,4.48-1.36S37.65,13.78,38.33,14.64Zm-7.21,1.24a6.77,6.77,0,0,0-.73,3.69H37.6a7.16,7.16,0,0,0-.71-3.72c-.43-.58-1.39-.89-2.83-.89S31.58,15.27,31.12,15.88Z"/><path d="M44,8.24c.23,0,.33.1.33.3V26.82c0,.23-.1.33-.33.33H42.83c-.23,0-.33-.1-.33-.33V8.54c0-.2.1-.3.33-.3Z"/><path d="M57.47,14.64c.71.86,1.09,2.6,1.11,5.2v.74c0,.48-.1.63-.78.63H49.53c0,1.8.28,3,.76,3.57s1.44.88,2.91.88h4c.23,0,.33.1.33.33v.78a.31.31,0,0,1-.31.33,35.43,35.43,0,0,1-4,.18c-2.35,0-3.64-.31-4.48-1.42s-1-2.63-1-5.56.35-4.68,1-5.59,2.2-1.36,4.48-1.36S56.79,13.78,57.47,14.64Zm-7.2,1.24c-.46.58-.71,1.82-.74,3.69h7.21A7.16,7.16,0,0,0,56,15.85c-.43-.58-1.39-.89-2.83-.89S50.72,15.27,50.27,15.88Z"/><path d="M70.54,13.52c.21,0,.31.13.31.33v.79c0,.22-.1.32-.33.32H66.8c-1.59,0-2.63.36-3.11,1S63,18.1,63,20.3s.23,3.64.68,4.32,1.52,1,3.11,1h3.72c.23,0,.33.1.33.33v.78a.31.31,0,0,1-.31.33,32.54,32.54,0,0,1-3.74.18c-2.3,0-3.82-.46-4.55-1.37s-1.06-2.8-1.06-5.61.35-4.68,1.06-5.59,2.25-1.36,4.55-1.36A30.89,30.89,0,0,1,70.54,13.52Z"/><path d="M82.56,13.52a.3.3,0,0,1,.3.33v.79c0,.22-.1.32-.33.32H78.81c-1.59,0-2.63.36-3.11,1S75,18.1,75,20.3s.23,3.64.68,4.32,1.52,1,3.11,1h3.72c.23,0,.33.1.33.33v.78a.31.31,0,0,1-.3.33,32.84,32.84,0,0,1-3.75.18c-2.3,0-3.81-.46-4.55-1.37s-1.06-2.8-1.06-5.61.35-4.68,1.06-5.59,2.25-1.36,4.55-1.36A31.19,31.19,0,0,1,82.56,13.52Z"/><path d="M87.77,9.6c0,.81-.38,1.22-1.17,1.22A1.07,1.07,0,0,1,85.39,9.6c0-.78.4-1.16,1.21-1.16A1,1,0,0,1,87.77,9.6Zm-.59,3.87c.23,0,.33.1.33.33v13c0,.23-.1.33-.33.33H86c-.23,0-.33-.1-.33-.33v-13c0-.23.1-.33.33-.33Z"/><path d="M101,25.86c-.84,1.11-2.13,1.42-4.56,1.42s-3.81-.46-4.55-1.37-1.06-2.8-1.06-5.61.35-4.68,1.06-5.59,2.25-1.36,4.55-1.36,3.82.45,4.56,1.36,1.08,2.78,1.08,5.59S101.9,24.75,101,25.86ZM93.35,16c-.45.68-.68,2.1-.68,4.3s.23,3.64.68,4.32,1.52,1,3.11,1,2.66-.35,3.11-1,.71-2.12.71-4.32-.23-3.62-.71-4.3-1.49-1-3.11-1S93.83,15.32,93.35,16Z"/><path d="M112.72,13.42a4.24,4.24,0,0,1,2.51.84c.88.81,1.23,2.22,1.23,4.85v7.71c0,.23-.12.33-.37.33H115c-.23,0-.33-.1-.33-.33V19.11c0-1.95-.18-3-.81-3.54S112.6,15,111.16,15h-3.92V26.82c0,.23-.1.33-.31.33h-1.19c-.22,0-.32-.1-.32-.33V14c0-.2.1-.3.32-.33a30.6,30.6,0,0,1,5.11-.35C111.61,13.35,112.24,13.37,112.72,13.42Z"/><path d="M129.72,17.27v8.84a.66.66,0,0,1-.46.66,18.46,18.46,0,0,1-5.39.51,5.84,5.84,0,0,1-3.59-.84,4,4,0,0,1-1-3.16c0-2.7,1.31-3.74,4.22-3.74h4.42v-2c0-1.84-1.18-2.58-3.74-2.58h-3.41c-.23,0-.33-.1-.33-.32v-.71a.35.35,0,0,1,.3-.36,24.37,24.37,0,0,1,3.44-.22C127.82,13.35,129.72,14.43,129.72,17.27Zm-1.83,3.86h-4.42c-1.69,0-2.4.61-2.4,2.15,0,1.85.78,2.41,3.21,2.41a15,15,0,0,0,3.61-.33Z"/><path d="M139.65,13.57c.21.08.31.21.31.36v.73c0,.23-.1.33-.33.3h-2.2c-1.62,0-2.23.31-2.23,1.45V26.82c0,.23-.1.33-.33.33h-1.18c-.23,0-.33-.1-.33-.33V16a2.55,2.55,0,0,1,.93-2.1,2.45,2.45,0,0,1,1-.38,5.92,5.92,0,0,1,1.77-.2A9.79,9.79,0,0,1,139.65,13.57Z"/><path d="M154.5,8.59A5.94,5.94,0,0,1,155.56,11l4.32,15.78c.05.23,0,.35-.25.35h-1.44c-.13,0-.23-.1-.28-.33L156.27,21h-7.94l-1.67,5.84c-.08.23-.18.33-.31.33h-1.44c-.22,0-.3-.12-.25-.35L149.14,11a5.5,5.5,0,0,1,1.06-2.4,3.08,3.08,0,0,1,2.07-.51A3.48,3.48,0,0,1,154.5,8.59Zm-3,1.5a4.89,4.89,0,0,0-.51,1.39l-2.2,7.78h7l-2.1-7.78a4.18,4.18,0,0,0-.53-1.39c-.13-.18-.43-.28-.91-.28A.92.92,0,0,0,151.49,10.09Z"/><path d="M169.84,13.42a4.24,4.24,0,0,1,2.51.84c.88.81,1.24,2.22,1.24,4.85v7.71c0,.23-.13.33-.38.33h-1.14c-.23,0-.33-.1-.33-.33V19.11c0-1.95-.18-3-.81-3.54s-1.21-.61-2.65-.61h-3.92V26.82c0,.23-.1.33-.31.33h-1.18c-.23,0-.33-.1-.33-.33V14c0-.2.1-.3.33-.33a30.38,30.38,0,0,1,5.1-.35C168.73,13.35,169.36,13.37,169.84,13.42Zm-1.72-4.07a4.63,4.63,0,0,0,1.57.56c.69,0,.89-.18,1.22-1,.12-.28.17-.33.38-.26l.48.11a.37.37,0,0,1,.22.5,5,5,0,0,1-.86,1.8,1.77,1.77,0,0,1-1.36.45A4.72,4.72,0,0,1,168,11a4.93,4.93,0,0,0-1.59-.59c-.63,0-.86.21-1.19,1-.1.23-.22.3-.4.25l-.46-.12a.33.33,0,0,1-.22-.48c.53-1.82,1-2.28,2.22-2.28A4.64,4.64,0,0,1,168.12,9.35Z"/><path d="M187,25.86c-.84,1.11-2.13,1.42-4.55,1.42s-3.82-.46-4.55-1.37-1.07-2.8-1.07-5.61.36-4.68,1.07-5.59,2.25-1.36,4.55-1.36,3.82.45,4.55,1.36,1.09,2.78,1.09,5.59S187.87,24.75,187,25.86ZM179.33,16c-.46.68-.69,2.1-.69,4.3s.23,3.64.69,4.32,1.51,1,3.11,1,2.65-.35,3.11-1,.71-2.12.71-4.32-.23-3.62-.71-4.3-1.49-1-3.11-1S179.81,15.32,179.33,16Z"/></g></g></svg>