<svg xmlns="http://www.w3.org/2000/svg" viewBox="0 0 252.07 69.64"><defs><style>.cls-1{fill:#a0ce16;}.cls-2{fill:#fff;}.cls-3{fill:#5e5cc7;}</style></defs><g id="Capa_2" data-name="Capa 2"><g id="Capa_1-2" data-name="Capa 1"><g id="Capa_2-2" data-name="Capa 2"><g id="Capa_1-2-2" data-name="Capa 1-2"><path class="cls-1" d="M251.46,32a5.65,5.65,0,0,0-2.91-.2c-.3,0-.6.05-.9.05h-.46a7.13,7.13,0,0,0-2.35-.05h-1.71a8.44,8.44,0,0,0-1.88,0h-2.58l-1.5-.05-3.62-.12L229,31.46l-.11-.3a.27.27,0,0,0-.06-.12,3.29,3.29,0,0,1-.19-.7A2,2,0,0,0,228,29a1.44,1.44,0,0,0-.84-.17h-.27a3.4,3.4,0,0,1-1.3-1.36c-.12-.18-.24-.36-.37-.52l-.66-.8A6.88,6.88,0,0,1,223.14,24a.48.48,0,0,1,.18-.56,2.26,2.26,0,0,0,.44-.62,2.23,2.23,0,0,0-.2-2.33,1.34,1.34,0,0,0-1.5-.24.5.5,0,0,0-.31.35v.09a1,1,0,0,0-.49.14h0a.43.43,0,0,0-.15.18,1.68,1.68,0,0,0-.77.1.5.5,0,0,0-.3.35v.06a.85.85,0,0,0-.44.14h0a.54.54,0,0,0-.16.21h0a1.49,1.49,0,0,0-.78.09.44.44,0,0,0-.29.33h0a.72.72,0,0,0-.4.12h0a.38.38,0,0,0-.13.18l-.06.09a1.22,1.22,0,0,0-.8.06.49.49,0,0,0-.28.33h0a.76.76,0,0,0-.36.11l-.07.05a.71.71,0,0,0-.1.14l-.1.18a1.13,1.13,0,0,0-.81,0,.42.42,0,0,0-.27.31h0a.76.76,0,0,0-.33.11.35.35,0,0,0-.15.17l-.12.2-.06.05a1.1,1.1,0,0,0-.8,0,.39.39,0,0,0-.25.28.75.75,0,0,0-.29.09.4.4,0,0,0-.14.15l-.11.18-.24.12a1,1,0,0,0-.67,0,2.11,2.11,0,0,1-.42-.56c-.63-1.13-1.36-2.46-2-3.79-.52-1.06-.12-1.59.61-2.54l.41-.55a5.12,5.12,0,0,0,.77-3.94A2.84,2.84,0,0,0,209.7,12a1.4,1.4,0,0,0-.83-.14.22.22,0,0,1-.16,0,5.91,5.91,0,0,1-1.21-.46c-.32-.15-.65-.3-1-.43a2.28,2.28,0,0,1-.51-.21,2.18,2.18,0,0,0-1.88-.17,1,1,0,0,0-.21.09c-.27-.4-.87-.41-1.32-.42h-.21a1.59,1.59,0,0,1-.49-.68c0-.08-.08-.16-.13-.24L201.58,9a4.87,4.87,0,0,0-1.12-1.51c-.15-.14-.3-.26-.43-.37a3.71,3.71,0,0,1-1.1-1.23,5.19,5.19,0,0,1-.39-1.23A4.35,4.35,0,0,0,197.67,3a4.9,4.9,0,0,0-1.9-1,7.68,7.68,0,0,1-.79-.32,33.47,33.47,0,0,1-3-1.64.52.52,0,0,0-.56,0,.5.5,0,0,0-.17.53c.08.31.19.63.31,1s.22.63.31.94a.5.5,0,0,0-.1.44c.08.27.18.56.29.86-.06.28-.25.47-.65.83l-.3.28-.2.17c-1.1.92-1.21,1.08-1.24,1.34a1,1,0,0,0,.35.76.3.3,0,0,0,.15.07l.07.11a.75.75,0,0,1-.07.12,1,1,0,0,0-.19.38,2.2,2.2,0,0,1-1.41,1.81c-.23.13-.48.27-.76.45a4.32,4.32,0,0,0-1.22,1.4,2.42,2.42,0,0,1-.93,1,3.5,3.5,0,0,1-2.64-.11,4.35,4.35,0,0,0-3.25-.07,5.71,5.71,0,0,0-2,1.58,1.71,1.71,0,0,0-.59.36l-.12.1h-.2a2,2,0,0,0,0-1.33c-.12-.3-.32-.72-.72-.82a1.1,1.1,0,0,0-1,.4l-.14.11h0a2,2,0,0,0,0-1.33,1.29,1.29,0,0,0-.76-.88,1.23,1.23,0,0,0-1.06.43h0a2,2,0,0,0,0-1.22,1.33,1.33,0,0,0-.81-.93,1.3,1.3,0,0,0-1.12.47l-.17.14a.85.85,0,0,0-.74.11,4.65,4.65,0,0,0-1.14,2.17l-.15.44a3.22,3.22,0,0,0,.43,3.28c.71,1.18.77,1.61-.15,2.38a1.38,1.38,0,0,0-.92-.53,3,3,0,0,0-.95.06l-.05-.08v-.07a1.84,1.84,0,0,0-1.41-1,3.76,3.76,0,0,0-1.25.09,5.45,5.45,0,0,0-.61.09h-.59a3.35,3.35,0,0,0-2.26.35,2.68,2.68,0,0,0-.76,1.41c-.13.45-.25.85-.54,1-.09.05-.18,0-.44-.06a1.34,1.34,0,0,0-.9-.11,1.7,1.7,0,0,0-.71.59,2.2,2.2,0,0,1-.2.23.5.5,0,0,0-.2.44.51.51,0,0,0,.26.4c.41.21,0,1.46-.25,2.2a8.62,8.62,0,0,0-.32,1.1,9.51,9.51,0,0,0,.4,5.07,6.65,6.65,0,0,0,.66,1A5,5,0,0,1,159,31a2.69,2.69,0,0,1,.09,1.26,4.41,4.41,0,0,0,0,.89,2.9,2.9,0,0,0,1.81,2.62,8.69,8.69,0,0,1,.95.63,10.37,10.37,0,0,0,1.43.94,6.36,6.36,0,0,1,1.88,1.41c.57.73.4,1.17.1,2a8.77,8.77,0,0,0-.35,1.1,9.7,9.7,0,0,0-.18,1.52,4.3,4.3,0,0,1-.51,2.2h0a.49.49,0,0,0-.29.36,1.68,1.68,0,0,1-1.19.42,4.08,4.08,0,0,0-1.24.25.49.49,0,0,0-.31.43.5.5,0,0,0,.26.47c.4.21.42.43.43.5a1.68,1.68,0,0,1-.88,1.2l-.45.34a1.89,1.89,0,0,0-.93,2.4,6.59,6.59,0,0,1,.1.76,2.2,2.2,0,0,0-.25.17,4.46,4.46,0,0,0-.93.86,4.71,4.71,0,0,0-2.18.76c-.58.42-1.51,1.23-1.25,1.88.14.36.56.56,1.94.92l.19.05a9.56,9.56,0,0,0,2,.35,10.14,10.14,0,0,1,1.64.24,1.8,1.8,0,0,1,.47.17,2.8,2.8,0,0,0,1.27.31h.39c.23.76,1.16,1,1.92,1.15a3.93,3.93,0,0,1,.67.19l.16.07A11.77,11.77,0,0,1,169.46,62a.52.52,0,0,0,.15.43c1.76,1.69,4,1.62,6.17,1.56a17.18,17.18,0,0,1,2.87.07,19.43,19.43,0,0,0,2.53.17,19.55,19.55,0,0,1,2.16.12,7.56,7.56,0,0,1,3.48,1.51A29.93,29.93,0,0,0,191,68a5.7,5.7,0,0,0,2,.4,6.21,6.21,0,0,1,1.55.26l.26.09a11.45,11.45,0,0,0,3.36.85h.73a1.12,1.12,0,0,0,.68-.23l.21-.13a1.38,1.38,0,0,0,.55-.52h.32q.6,0,1.2,0a7.05,7.05,0,0,0,2.15-.09,6.83,6.83,0,0,0,2.89-1.46,6.06,6.06,0,0,1,1-.55,7,7,0,0,0,1.28-.73,14,14,0,0,1,3.53-1.7l.38-.14a4.27,4.27,0,0,0,1-.56,3.82,3.82,0,0,1,.64-.4,8.53,8.53,0,0,1,1-.37c.35-.12.71-.24,1.06-.39a11.52,11.52,0,0,1,1.81-.57,9.12,9.12,0,0,0,2.68-1,2,2,0,0,0,.89-1.25,1.14,1.14,0,0,1,.47-.72,1.87,1.87,0,0,1,.4-.2,2,2,0,0,0,.85-.53,1.43,1.43,0,0,0,.34-.67.29.29,0,0,1,0-.13,2,2,0,0,1,.87-.33,2.37,2.37,0,0,0,1.21-.51.87.87,0,0,0,.24-.7,3.43,3.43,0,0,0,1,.21,8.93,8.93,0,0,0,2.1-.44,10.26,10.26,0,0,1,1.35-.34,3.79,3.79,0,0,1,1.38.16,3.59,3.59,0,0,0,1.78.13.42.42,0,0,0,.27-.18,6.28,6.28,0,0,0,2.07.18c.66,0,1.46,0,2.38-.08H239a8.51,8.51,0,0,1,3.19.62,17,17,0,0,0,1.85.53.49.49,0,0,0,.59-.39V56a.49.49,0,0,0-.38-.58h0a6.86,6.86,0,0,1-2.82-1.12.65.65,0,0,0,.16-.57.73.73,0,0,0,.07-.58h.45c.15.14.28.28.37.38l.06.06a3.8,3.8,0,0,0,3.29,1.2,1.46,1.46,0,0,0,.81-.47l.07-.06h.07a2,2,0,0,1,.21.44,2.28,2.28,0,0,0,.74,1.11.52.52,0,0,0,.4.08.45.45,0,0,0,.32-.25,5.46,5.46,0,0,0,.39-4.85,5.65,5.65,0,0,1-.17-.71,4.34,4.34,0,0,0-.59-1.67,3.8,3.8,0,0,0-.46-.52.72.72,0,0,1-.31-.65,2.52,2.52,0,0,1,.67-1.39,5.53,5.53,0,0,0,.65-1,4.12,4.12,0,0,0,.17-2.38,5.14,5.14,0,0,1-.07-1.3c.06-.52.06-.52.6-.92l.2-.14c.07-.06.23-.16.4-.27a3.91,3.91,0,0,0,1.33-1.06,2.93,2.93,0,0,0,.07-1.47,5.92,5.92,0,0,1,0-1.33h0a.5.5,0,0,0,.5,0,.51.51,0,0,0,.24-.44v-.62C252.12,33.56,252.11,32.45,251.46,32Zm-4.31,2.65v.06a.81.81,0,0,0-.27.11c-.54.36-.46,1.24-.38,2.18a5.78,5.78,0,0,1,.05.83,6.65,6.65,0,0,1-.88.62l-.45.3-.16.12a1.75,1.75,0,0,0-.92,1.51,5.71,5.71,0,0,0,.09,1.43,3,3,0,0,1-.06,1.69,4.46,4.46,0,0,1-.49.78,3,3,0,0,0-.8,1.85,1.52,1.52,0,0,0,.58,1.27,2.16,2.16,0,0,1,.69,1.54q.07.39.18.75a4.19,4.19,0,0,1,.07,3h0a1.73,1.73,0,0,0-.51-.82.93.93,0,0,0-1.3.06l-.05.06-.12.11a1.69,1.69,0,0,0-.95-.29,4.61,4.61,0,0,0,.18-3.81,4.15,4.15,0,0,1-.14-.61A3.89,3.89,0,0,0,241,46a4.19,4.19,0,0,0-.39-.45.59.59,0,0,1-.26-.55,2.16,2.16,0,0,1,.54-1.15,5.08,5.08,0,0,0,.55-.89,3.58,3.58,0,0,0,.09-2,5,5,0,0,1-.09-1.09c0-.43,0-.43.47-.75l.15-.12.34-.22a3.31,3.31,0,0,0,1.12-.92,2.45,2.45,0,0,0,0-1.26,6.25,6.25,0,0,1,0-1.06.42.42,0,0,0,.63-.41v-.52a8,8,0,0,0-.06-1.69h3a5.78,5.78,0,0,1,.06,1.76Zm-23.5,19.39h0a2.15,2.15,0,0,1-.61.18,2.2,2.2,0,0,0-1.32.62,1.14,1.14,0,0,0-.22.49.5.5,0,0,1-.09.23,1.31,1.31,0,0,1-.45.24,3,3,0,0,0-.59.3,2,2,0,0,0-.77,1.15,1,1,0,0,1-.44.64,7.55,7.55,0,0,1-2.2.8,11.67,11.67,0,0,0-1.82.58c-.28.12-.58.22-.89.32a8.63,8.63,0,0,0-1,.39,4.07,4.07,0,0,0-.75.46,2.7,2.7,0,0,1-.7.4l-.35.13a13.83,13.83,0,0,0-3.5,1.7,5.54,5.54,0,0,1-1,.58,6.31,6.31,0,0,0-1,.6,5.55,5.55,0,0,1-2.32,1.2,6.34,6.34,0,0,1-1.74.06h-1.23c-.58,0-.85.11-1,.47a.44.44,0,0,1-.19.17l-.21.12L199,66h-.6a10.3,10.3,0,0,1-2.89-.72l-.24-.09a6.35,6.35,0,0,0-1.68-.28,4.77,4.77,0,0,1-1.54-.29,26.62,26.62,0,0,1-3.75-1.94,7.77,7.77,0,0,0-3.62-1.55c-.72-.09-1.42-.1-2.1-.12a18.38,18.38,0,0,1-2.22-.14,11.2,11.2,0,0,0-1.64-.1h-1.18c-1.72,0-3.35.1-4.64-.86v-.09a1.1,1.1,0,0,0-.4-1,.49.49,0,0,0-.57-.09h0A14.92,14.92,0,0,0,168.75,57h0v-.15c0-.64-1.19-1.1-1.22-1.1a1,1,0,0,0-.53.07h0l-.32-.18a.85.85,0,0,0-.31-.13,1.67,1.67,0,0,0-.63,0,3.32,3.32,0,0,1-.44.06,2.1,2.1,0,0,1-.78-.21,3.16,3.16,0,0,0-.54-.2,10.4,10.4,0,0,0-1.66-.25,8.06,8.06,0,0,1-1.69-.28l-.23-.06-.49-.14a1.47,1.47,0,0,0,.81-1.1,5.74,5.74,0,0,1,1-.21h0a4.07,4.07,0,0,0,1.51.57h.17a7.91,7.91,0,0,0,1.74.29,10.37,10.37,0,0,1,1.36.2l.39.15a2.57,2.57,0,0,0,1.12.27h.43c.19.68,1,.87,1.67,1,.23.06.46.11.58.16l.15.07a10.61,10.61,0,0,1,3.08,1.89h0a.45.45,0,0,0,.14.33c1.51,1.45,3.42,1.39,5.26,1.33a16.27,16.27,0,0,1,2.42.06,15.28,15.28,0,0,0,2.14.14,11.35,11.35,0,0,1,1.85.1,6.27,6.27,0,0,1,3,1.4,25.85,25.85,0,0,0,3.59,1.84,5,5,0,0,0,1.71.34,4.85,4.85,0,0,1,1.31.21l.22.07a10,10,0,0,0,2.89.71H199a1,1,0,0,0,.61-.21l.18-.11a1.17,1.17,0,0,0,.47-.44h.26a8.34,8.34,0,0,1,1,0,6.38,6.38,0,0,0,1.85-.09,5.7,5.7,0,0,0,2.47-1.26,5.16,5.16,0,0,1,.83-.46,5.93,5.93,0,0,0,1.09-.63,12,12,0,0,1,3-1.42l.35-.13A3.5,3.5,0,0,0,212,59a3.08,3.08,0,0,1,.55-.33c.28-.12.57-.23.86-.33a6.9,6.9,0,0,0,.9-.33,10.43,10.43,0,0,1,1.53-.48,7.23,7.23,0,0,0,2.28-.85,1.75,1.75,0,0,0,.79-1.07,1,1,0,0,1,.39-.6,1.5,1.5,0,0,1,.34-.16,1.77,1.77,0,0,0,.76-.47,1.15,1.15,0,0,0,.28-.61v-.08a1.73,1.73,0,0,1,.7-.25,2,2,0,0,0,1.06-.45.8.8,0,0,0,.22-.57,3.23,3.23,0,0,0,.82.17,7.72,7.72,0,0,0,1.78-.37h0a1.24,1.24,0,0,0,.79.53,4.29,4.29,0,0,0,1.38.17l-.23.07a7.5,7.5,0,0,1-1.69.37,7.73,7.73,0,0,1-.81-.19c-.17,0-.31-.09-.45,0a.85.85,0,0,0-.6.9Zm-60.22-3.74c-.17-.77-.12-.81.5-1.26l.44-.34a2.42,2.42,0,0,0,1-1.93,1.29,1.29,0,0,0-.14-.5h.06a2.42,2.42,0,0,0,1.73-.69.28.28,0,0,1,.07.17,1.4,1.4,0,0,1-.62,1l-.37.29a1.64,1.64,0,0,0-.81,2.07,4.33,4.33,0,0,1,.1.71,2.44,2.44,0,0,0-.62.7h-.34a8.45,8.45,0,0,0-1,.21.6.6,0,0,0,0-.4Zm4.83-12.55a6.69,6.69,0,0,0-2-1.54,9.67,9.67,0,0,1-1.21-.79,8.3,8.3,0,0,0-1-.67c-.75-.45-1.16-.69-1.21-1.66,0-.23,0-.47,0-.7a3.36,3.36,0,0,0-.13-1.57A4.76,4.76,0,0,0,162,29.6a5.71,5.71,0,0,1-.51-.77,8,8,0,0,1-.28-4.12,7.18,7.18,0,0,1,.26-.87c.3-.9.68-2.07.23-2.78a1.63,1.63,0,0,1,.17-.2l.2.07a1.3,1.3,0,0,0,1.21,0,2.31,2.31,0,0,0,.93-1.49,1.84,1.84,0,0,1,.39-.85,3,3,0,0,1,1.42-.11,3.42,3.42,0,0,0,.64,0h.24l.26.31a1.33,1.33,0,0,0-.46.23,2.31,2.31,0,0,0-.65,1.22c-.11.39-.21.72-.45.86a1.33,1.33,0,0,1-.32-.05,1.08,1.08,0,0,0-.79-.07,1.34,1.34,0,0,0-.6.53l-.16.2a.44.44,0,0,0-.16.4.42.42,0,0,0,.24.36c.32.17,0,1.25-.24,1.83a7.9,7.9,0,0,0-.27.95,8.22,8.22,0,0,0,.33,4.34,4.54,4.54,0,0,0,.56.86,3.46,3.46,0,0,1,.55.92,2.29,2.29,0,0,1,.08,1.07,4.69,4.69,0,0,0,0,.75,2.5,2.5,0,0,0,1.53,2.26,7.13,7.13,0,0,1,.81.54,8.39,8.39,0,0,0,1.22.82A5.07,5.07,0,0,1,169.9,38c.47.6.34.94.08,1.62a6,6,0,0,0-.45,2.25,2.89,2.89,0,0,1-.62,2.08,1.34,1.34,0,0,1-1,.4h0a7.31,7.31,0,0,0,.23-1.68,7.47,7.47,0,0,1,.14-1.25,5.56,5.56,0,0,1,.29-.9,2.39,2.39,0,0,0-.31-2.74Zm4.07-21.55A2.1,2.1,0,0,1,172,14a1.4,1.4,0,0,1,.13-.35,2.34,2.34,0,0,0,.84.51,2.22,2.22,0,0,1,.5.28l-.1.3c-.06.14-.1.27-.14.36a2.8,2.8,0,0,0,.36,2.84c.55.93.64,1.28,0,1.88a1.25,1.25,0,0,0-.49-.17,2.8,2.8,0,0,0-1,.11,1,1,0,0,1-.11-.17c1.45-1.2,1-2.24.34-3.36Zm19.14-7.69-.08-.13h0c.21-.19.53-.46.66-.56l.25-.21.24-.22.33-.31v.13a.45.45,0,0,0-.07.39,1.71,1.71,0,0,0,.12.41c0,.14-.23.4-.58.71l-.2.19-.2.15-.18.15a1.27,1.27,0,0,0-.29-.67Zm1.62-4.66c.58.33,1.16.63,1.73.92.22.11.51.21.82.33a4.72,4.72,0,0,1,1.38.65A3.31,3.31,0,0,1,197.48,7a7.54,7.54,0,0,0-1.3-.57c-.26-.1-.51-.19-.66-.26-.7-.35-1.41-.74-2.11-1.15a9.72,9.72,0,0,0-.32-1.14Zm9,9h.28a.46.46,0,0,0-.07.41.62.62,0,0,0,.12.19,3.21,3.21,0,0,0-.62,0h-.17a1.27,1.27,0,0,1-.38-.53l-.11-.21-.14-.25a4.44,4.44,0,0,0-1-1.28c-.13-.12-.26-.22-.38-.32a2.91,2.91,0,0,1-.91-1,2.78,2.78,0,0,1-.21-.57,6.42,6.42,0,0,0,.62.55c.12.1.25.2.38.32a4,4,0,0,1,.85,1.15l.16.28c0,.05.06.12.09.18a2,2,0,0,0,1,1.07,1.41,1.41,0,0,0,.54,0Zm1.64.37c.07-.09.08-.11.13-.12a1.14,1.14,0,0,1,1,.14c.16.07.34.16.55.23s.57.23.84.36a7.58,7.58,0,0,0,1.3.5,1,1,0,0,0,.49,0,.32.32,0,0,1,.23.05,1.65,1.65,0,0,1,.89,1.15,3.09,3.09,0,0,1,.05,1.21v-.14A2.49,2.49,0,0,0,208,15a1.2,1.2,0,0,0-.72-.13h-.13a5.09,5.09,0,0,1-1-.4c-.28-.13-.56-.25-.85-.36a3.3,3.3,0,0,1-.43-.19,1.91,1.91,0,0,0-1.63-.17l-.16.07-.16-.15a.85.85,0,0,0,.86-.37ZM221,23.18a.85.85,0,0,1-.22.28,1.33,1.33,0,0,0-.41,1.34A6.27,6.27,0,0,0,222,27.18c.23.26.44.5.57.68l.31.44a7,7,0,0,0,.79,1,1.39,1.39,0,0,0-.64-.1h-.22a2.86,2.86,0,0,1-1.1-1.16l-.31-.44c-.15-.19-.35-.43-.57-.67a6.12,6.12,0,0,1-1.22-1.72c0-.24,0-.27.14-.43a1.53,1.53,0,0,0,.39-.55,2.52,2.52,0,0,0,.17-1.09h0a.55.55,0,0,0,.11-.33l.24-.11a2.23,2.23,0,0,0,.49-.24,1.59,1.59,0,0,1-.09.75Zm22.18,11.3h0a1,1,0,0,0-.24.1c-.5.34-.43,1.15-.35,2a4.69,4.69,0,0,1,0,.75,5.3,5.3,0,0,1-.78.56,3.62,3.62,0,0,0-.41.27l-.14.11a1.58,1.58,0,0,0-.84,1.41,5.31,5.31,0,0,0,.1,1.32,2.5,2.5,0,0,1,0,1.53,3.67,3.67,0,0,1-.44.71,2.89,2.89,0,0,0-.72,1.71,1.51,1.51,0,0,0,.53,1.19,2.7,2.7,0,0,1,.28.31,3.29,3.29,0,0,1,.35,1.1,2.64,2.64,0,0,0,.17.7,3.83,3.83,0,0,1,.07,2.69,1.51,1.51,0,0,0-.46-.71.87.87,0,0,0-1.22.06l-.05.06-.1.09a1.1,1.1,0,0,0-1,0l-.27-.09a4.29,4.29,0,0,0,.31-3.79c0-.17-.09-.36-.13-.57a3.65,3.65,0,0,0-.45-1.31,3.54,3.54,0,0,0-.35-.42.55.55,0,0,1-.24-.49,2,2,0,0,1,.48-1,4.28,4.28,0,0,0,.5-.82,3.14,3.14,0,0,0,0-1.87,3.34,3.34,0,0,1-.1-1c0-.38,0-.38.4-.67l.13-.09.3-.21a3,3,0,0,0,1-.84,2.17,2.17,0,0,0,0-1.16,5.8,5.8,0,0,1,0-.93.42.42,0,0,0,.36,0,.43.43,0,0,0,.21-.4v-.47a6.94,6.94,0,0,0-.05-1.51h3a6.18,6.18,0,0,1,.2,1.76ZM231.75,52.74a1.23,1.23,0,0,0-.46-.32.53.53,0,0,0,.08-.15l.08-.07h1.14A2.75,2.75,0,0,0,231.75,52.74Zm-10-.35h0a2,2,0,0,1-.54.16,2.21,2.21,0,0,0-1.23.58.94.94,0,0,0-.2.47.33.33,0,0,1-.06.19,1.07,1.07,0,0,1-.41.21,2.85,2.85,0,0,0-.55.28,1.91,1.91,0,0,0-.73,1.07.82.82,0,0,1-.4.57,6.5,6.5,0,0,1-2,.73,12.58,12.58,0,0,0-1.68.53,5.6,5.6,0,0,1-.81.3c-.32.11-.65.22-1,.36a4.89,4.89,0,0,0-.69.42,2.84,2.84,0,0,1-.65.38l-.35.13a12.47,12.47,0,0,0-3.18,1.54,5.46,5.46,0,0,1-.94.54,6.49,6.49,0,0,0-1,.55,4.92,4.92,0,0,1-2.12,1.11,6.13,6.13,0,0,1-1.6.06,10.65,10.65,0,0,0-1.13,0c-.53,0-.8.1-1,.44,0,0,0,.07-.16.15l-.2.12-.11.07h-.55a9.42,9.42,0,0,1-2.66-.65l-.22-.08a5.78,5.78,0,0,0-1.55-.26,4.24,4.24,0,0,1-1.41-.26,24.94,24.94,0,0,1-3.45-1.77,7.17,7.17,0,0,0-3.34-1.42,17.88,17.88,0,0,0-1.94-.11,14.82,14.82,0,0,1-2-.13,12.75,12.75,0,0,0-1.51-.09H179.3c-1.57,0-3.06.1-4.24-.78v-.06a1.11,1.11,0,0,0-.39-.93.47.47,0,0,0-.54-.09h0A13.74,13.74,0,0,0,171.2,55h0v-.15c0-.57-1.12-1-1.13-1H170a.82.82,0,0,0-.49.07h0l-.28-.15a.71.71,0,0,0-.31-.13,1.42,1.42,0,0,0-.58,0,3,3,0,0,1-.42,0,1.93,1.93,0,0,1-.71-.2,4.09,4.09,0,0,0-.49-.18,8.72,8.72,0,0,0-1.52-.23,6.88,6.88,0,0,1-1.55-.26l-.21-.06-.43-.11a1.44,1.44,0,0,0,.27-.28,1.62,1.62,0,0,0,.24-.61,4.56,4.56,0,0,1,1.1-.28l.39-.07a5.2,5.2,0,0,0,1.25.45h.16a6.16,6.16,0,0,0,1.59.27,8.35,8.35,0,0,1,1.22.18l.34.13a2.42,2.42,0,0,0,1.05.25,1.69,1.69,0,0,0,.45,0c.18.64.94.82,1.55,1a3.18,3.18,0,0,1,.53.14l.14.07a9,9,0,0,1,2.81,1.72l.07.06a.37.37,0,0,0,.13.28c1.39,1.32,3.13,1.27,4.81,1.22a13.48,13.48,0,0,1,2.2.06,15.67,15.67,0,0,0,1.94.12,15.76,15.76,0,0,1,1.68.09,5.68,5.68,0,0,1,2.69,1.15,22.43,22.43,0,0,0,3.27,1.68,4.76,4.76,0,0,0,1.58.3,4.84,4.84,0,0,1,1.19.19l.19.06a9.4,9.4,0,0,0,2.66.64h.56a.89.89,0,0,0,.57-.19l.17-.1a1.4,1.4,0,0,0,.44-.4h.22a7.53,7.53,0,0,1,.95,0,6.05,6.05,0,0,0,1.7-.08,5.42,5.42,0,0,0,2.26-1.16,5.52,5.52,0,0,1,.75-.42,6.61,6.61,0,0,0,1-.57,10.14,10.14,0,0,1,2.67-1.29l.33-.13a3.1,3.1,0,0,0,.79-.45,2.55,2.55,0,0,1,.5-.3q.38-.16.78-.3c.27-.09.55-.18.82-.3a9.71,9.71,0,0,1,1.39-.43,7.07,7.07,0,0,0,2.08-.78,1.58,1.58,0,0,0,.73-1,.93.93,0,0,1,.36-.53,1.77,1.77,0,0,1,.31-.15,1.71,1.71,0,0,0,.72-.43,1.08,1.08,0,0,0,.25-.59h0a1.64,1.64,0,0,1,.61-.21,1.86,1.86,0,0,0,1-.42.7.7,0,0,0,.2-.5,2.88,2.88,0,0,0,.72.15,6.5,6.5,0,0,0,1.63-.35h.14v.06c.09.33.43.48.77.59a4.05,4.05,0,0,0,1.15.17H225a6.24,6.24,0,0,1-1.54.34,6.43,6.43,0,0,1-.73-.18.54.54,0,0,0-.43,0,.77.77,0,0,0-.57.83ZM166.28,49c-.14-.69-.11-.71.45-1.13l.4-.3a2.24,2.24,0,0,0,1-1.8,1.16,1.16,0,0,0-.12-.44h0a2.24,2.24,0,0,0,1.6-.65l.13-.15a.27.27,0,0,1,.12.22,1.18,1.18,0,0,1-.54.87l-.34.26a1.53,1.53,0,0,0-.74,1.91,3.2,3.2,0,0,1,.09.75,1.43,1.43,0,0,0-.3.44,3.35,3.35,0,0,1-.55.11,5.29,5.29,0,0,0-1.11.27.92.92,0,0,1-.13-.36Zm4.4-11.52a6.09,6.09,0,0,0-1.8-1.42,8.17,8.17,0,0,1-1.11-.73,8.31,8.31,0,0,0-.92-.63c-.67-.4-1-.63-1.08-1.5a3.32,3.32,0,0,1,0-.63,3.06,3.06,0,0,0-.12-1.47A4.4,4.4,0,0,0,165,29.9a4.7,4.7,0,0,1-.46-.7,7.5,7.5,0,0,1-.25-3.79,7.32,7.32,0,0,1,.23-.8c.28-.83.64-1.9.21-2.57l.14-.16.16.05a1.17,1.17,0,0,0,1.12,0,2.13,2.13,0,0,0,.86-1.39,1.66,1.66,0,0,1,.35-.76,2.73,2.73,0,0,1,1.27-.1h.72a2.52,2.52,0,0,0,.4.4.92.92,0,0,0-.27.16,2.16,2.16,0,0,0-.6,1.12c-.1.35-.19.65-.4.77h-.26a1,1,0,0,0-.74-.05,1.33,1.33,0,0,0-.54.51l-.14.17a.45.45,0,0,0,.08.73c.28.15,0,1.12-.22,1.65a5.38,5.38,0,0,0-.25.87,7.66,7.66,0,0,0,.3,4,4.51,4.51,0,0,0,.5.78,3.28,3.28,0,0,1,.5.84,2,2,0,0,1,.06,1,3.86,3.86,0,0,0,0,.68,2.28,2.28,0,0,0,1.4,2.08,7.25,7.25,0,0,1,.73.5,8.48,8.48,0,0,0,1.12.76,4.75,4.75,0,0,1,1.37,1.07c.42.55.3.85.07,1.46a5.22,5.22,0,0,0-.41,2.06,2.59,2.59,0,0,1-.55,1.88,1.24,1.24,0,0,1-.91.36h-.23a7,7,0,0,0,.19-1.45,7.48,7.48,0,0,1,.12-1.15,6,6,0,0,1,.27-.82,2.25,2.25,0,0,0-.26-2.62Zm3.75-19.91a1.94,1.94,0,0,1-.31-2l.06.13a4.36,4.36,0,0,0,1,1.63,2.84,2.84,0,0,0,.51,1.94c.5.85.58,1.15,0,1.69h-.21a2.6,2.6,0,0,0-.88.12h-.07c-.1-.14-.2-.28-.29-.43h0c1.15-1.13.76-2.06.15-3.08Zm5-.37a.29.29,0,0,1,.07-.23,2.43,2.43,0,0,0,.25-.2l.07-.05v.09a1.23,1.23,0,0,1-.12.8,2,2,0,0,1-.08.26,1.24,1.24,0,0,0-.35-.25,2.1,2.1,0,0,1,.09-.42ZM192,10.47a.61.61,0,0,0-.07-.1c.2-.18.48-.4.62-.51l.24-.2.19-.18.32-.29q.06.27.09.48a.54.54,0,0,0,0,.33l.06.17c-.06.22-.23.38-.56.67l-.15.13-.2.16-.24.19a.48.48,0,0,0,0-.17A1.2,1.2,0,0,0,192,10.47Zm1.55-4.26c.52.29,1,.56,1.54.82.21.1.48.2.76.3a4.48,4.48,0,0,1,1.25.59,3.3,3.3,0,0,1,.44,1.18v.07a6.1,6.1,0,0,0-1.17-.51c-.24-.09-.46-.17-.6-.24l-1.92-1a7.34,7.34,0,0,0-.29-1.21Zm8.27,8.24h.23a.52.52,0,0,0,.32.68.83.83,0,0,0,1-.34c.06-.08.07-.09.1-.1a1,1,0,0,1,.92.13,4.77,4.77,0,0,0,.52.22c.25.09.5.21.77.33a5.74,5.74,0,0,0,1.19.46,1.19,1.19,0,0,0,.46,0,.31.31,0,0,1,.21.05,1.49,1.49,0,0,1,.8,1,2.88,2.88,0,0,1,0,1.24.48.48,0,0,0,0-.17,2.23,2.23,0,0,0-1.19-1.53,1.08,1.08,0,0,0-.66-.13h-.12a5.4,5.4,0,0,1-.94-.37q-.37-.18-.78-.33a3.29,3.29,0,0,1-.39-.17,1.76,1.76,0,0,0-1.5-.17l-.14.06a1.35,1.35,0,0,0-1.07-.34h-.16a1.12,1.12,0,0,1-.32-.45c0-.07-.07-.14-.11-.2l-.12-.21a4.11,4.11,0,0,0-.9-1.18l-.35-.28a2.59,2.59,0,0,1-.83-.91,3,3,0,0,1-.22-.66,5.47,5.47,0,0,0,.57.51c.11.09.23.18.35.29a3.46,3.46,0,0,1,.78,1l.14.26.09.16a1.77,1.77,0,0,0,.88,1,1,1,0,0,0,.48.15Zm16.87,11a5.71,5.71,0,0,0,1.43,2.16c.18.2.36.41.52.62s.2.27.29.41a3.65,3.65,0,0,0,1.54,1.4,1.69,1.69,0,0,0,.55.06h.2a4,4,0,0,1,.14.57,2.6,2.6,0,0,0,.25.82h-1.23a.66.66,0,0,0-.11-.26v-.07a2.72,2.72,0,0,1-.13-.51,1.59,1.59,0,0,0-.5-1.08,1.23,1.23,0,0,0-.68-.14h-.19a2.67,2.67,0,0,1-1-1l-.29-.4c-.13-.17-.31-.39-.51-.61a5.36,5.36,0,0,1-1.11-1.55.4.4,0,0,1,.12-.37,1.49,1.49,0,0,0,.36-.5,2.44,2.44,0,0,0,.15-1,.54.54,0,0,0,.26-.16,1.09,1.09,0,0,0,.08-.15,3,3,0,0,1,.56-.22,1.41,1.41,0,0,1-.11.46.64.64,0,0,1-.18.25,1.24,1.24,0,0,0-.4,1.23Zm20.62,8.89h0a.68.68,0,0,0-.21.1c-.47.31-.4,1.06-.33,1.86q0,.33,0,.66a3.8,3.8,0,0,1-.69.5l-.38.25-.12.09a1.48,1.48,0,0,0-.75,1.31,5,5,0,0,0,.12,1.22,2.45,2.45,0,0,1,0,1.37,3.82,3.82,0,0,1-.4.64,2.56,2.56,0,0,0-.64,1.56A1.42,1.42,0,0,0,236.4,45a3.47,3.47,0,0,1,.25.29,2.71,2.71,0,0,1,.31,1c0,.21.09.43.15.65a3.54,3.54,0,0,1,.08,2.38,1.3,1.3,0,0,0-.41-.6.81.81,0,0,0-1.14.09l0,0a.47.47,0,0,1-.15.13.9.9,0,0,0-.4,0,2.1,2.1,0,0,1-1-.31,4,4,0,0,0,.3-3.43,2.76,2.76,0,0,0-.12-.52,3.21,3.21,0,0,0-.4-1.2,2.3,2.3,0,0,0-.32-.38c-.16-.17-.21-.22-.21-.45a1.62,1.62,0,0,1,.41-.9,3.62,3.62,0,0,0,.45-.76,2.9,2.9,0,0,0,0-1.7,3.22,3.22,0,0,1-.12-.88c0-.33,0-.33.35-.58l.1-.08s.16-.11.27-.19a2.58,2.58,0,0,0,.91-.76,2.11,2.11,0,0,0,0-1c0-.26,0-.53,0-.8A.42.42,0,0,0,236,35a.43.43,0,0,0,.2-.39v-.42a7.61,7.61,0,0,0,0-1.35h3a5.19,5.19,0,0,1,.12,1.47ZM219.77,50.66a2.85,2.85,0,0,1-.48.13,2,2,0,0,0-1.14.55.8.8,0,0,0-.17.44.38.38,0,0,1,0,.15,1.09,1.09,0,0,1-.37.19,2.49,2.49,0,0,0-.52.25,1.78,1.78,0,0,0-.68,1,.75.75,0,0,1-.36.52,6.27,6.27,0,0,1-1.83.66,10.43,10.43,0,0,0-1.53.48,4.93,4.93,0,0,1-.73.27,9.4,9.4,0,0,0-.88.34,5,5,0,0,0-.63.38,2.66,2.66,0,0,1-.59.34l-.34.13a11.46,11.46,0,0,0-2.88,1.4,4.33,4.33,0,0,1-.86.49,5,5,0,0,0-.9.51,4.54,4.54,0,0,1-1.92,1,5.1,5.1,0,0,1-1.46.06h-1a1,1,0,0,0-.92.42s0,.06-.15.12l-.18.11-.1.07h-.49a8.9,8.9,0,0,1-2.43-.59L196,60a5.27,5.27,0,0,0-1.42-.23,4,4,0,0,1-1.28-.24,21.56,21.56,0,0,1-3.14-1.6A6.56,6.56,0,0,0,187,56.58a15,15,0,0,0-1.77-.1,12.54,12.54,0,0,1-1.84-.11,10.35,10.35,0,0,0-1.36-.09h-1c-1.42,0-2.77.09-3.84-.7h0a1,1,0,0,0-.37-.88.44.44,0,0,0-.5-.08h0a12,12,0,0,0-2.67-1.52h-.06v-.16c-.06-.51-1.06-.88-1.07-.88h-.06a.8.8,0,0,0-.46,0l-.23-.13a.91.91,0,0,0-.31-.12,2.53,2.53,0,0,0-.55,0h-.38a1.73,1.73,0,0,1-.66-.19,3.29,3.29,0,0,0-.44-.16,7.93,7.93,0,0,0-1.38-.21,5.94,5.94,0,0,1-1.39-.23l-.2-.06-.45-.12v-.06a1.33,1.33,0,0,0,.22-.55,3.16,3.16,0,0,1,1.24-.39,2.72,2.72,0,0,0,.74-.16,5.13,5.13,0,0,0,1,.34h.15a5.86,5.86,0,0,0,1.43.24,5.63,5.63,0,0,1,1.08.16l.3.11a2.17,2.17,0,0,0,1,.24h.44c.17.6.86.76,1.42.9a4.27,4.27,0,0,1,.48.13l.14.07a8.3,8.3,0,0,1,2.53,1.54.34.34,0,0,0,.09.08.44.44,0,0,0,.13.24c1.26,1.2,2.83,1.15,4.35,1.11a13.35,13.35,0,0,1,2,0,14.67,14.67,0,0,0,1.75.1A9.68,9.68,0,0,1,188,55a5.34,5.34,0,0,1,2.42,1,21,21,0,0,0,3,1.5,3.9,3.9,0,0,0,1.43.27,4.34,4.34,0,0,1,1.07.17h.14a8.59,8.59,0,0,0,2.45.58H199a.86.86,0,0,0,.53-.19l.15-.09a1,1,0,0,0,.41-.36h1a5.19,5.19,0,0,0,1.57-.08,5,5,0,0,0,2-1h0a3.4,3.4,0,0,1,.67-.38,5.48,5.48,0,0,0,.91-.52,9.06,9.06,0,0,1,2.38-1.16l.32-.12a3.16,3.16,0,0,0,.72-.4,2.6,2.6,0,0,1,.45-.28c.22-.1.45-.18.7-.27s.49-.16.74-.27a8.64,8.64,0,0,1,1.25-.39,6.37,6.37,0,0,0,1.88-.7,1.47,1.47,0,0,0,.68-.9.83.83,0,0,1,.32-.48,1.39,1.39,0,0,1,.28-.12,1.67,1.67,0,0,0,.67-.41,1,1,0,0,0,.23-.56h0a2,2,0,0,1,.53-.17,1.7,1.7,0,0,0,.9-.39.68.68,0,0,0,.19-.43,2.2,2.2,0,0,0,.62.12,5.66,5.66,0,0,0,1.47-.31l.3-.08a.41.41,0,0,0,0,.22c.09.31.4.45.71.56a3.21,3.21,0,0,0,.92.14,5.27,5.27,0,0,1-1.35.3c-.11,0-.52-.13-.66-.16a.72.72,0,0,0-.41,0,.71.71,0,0,0-.44.9A.61.61,0,0,0,219.77,50.66Zm-50.71-3.1c-.13-.61-.11-.63.39-1l.37-.28a2.08,2.08,0,0,0,.88-1.66,1.2,1.2,0,0,0-.1-.37,2,2,0,0,0,1.4-.61,2.43,2.43,0,0,0,.26-.29c.17.11.19.21.19.25a1.08,1.08,0,0,1-.48.76l-.3.23a1.4,1.4,0,0,0-.67,1.75c.14.63.07.85,0,.93a1.22,1.22,0,0,1-.67.2,3.79,3.79,0,0,0-1.27.37A.45.45,0,0,0,169.06,47.56Zm4.2-4.36a1.8,1.8,0,0,0,1.25-.55,1.94,1.94,0,0,0,.35-.45l.08,0c.2.11.21.21.21.24a.94.94,0,0,1-.4.65l-.27.2a1.27,1.27,0,0,0-.6,1.59c.12.57.05.75,0,.8a1.6,1.6,0,0,1-.57.17,2.92,2.92,0,0,0-1.4.5h0v-.24c-.12-.54-.12-.54.33-.88l.33-.25a1.9,1.9,0,0,0,.8-1.51A1.21,1.21,0,0,0,173.26,43.2Zm-1.91-11.79a3.49,3.49,0,0,0-.55-1,3.41,3.41,0,0,1-.36-.57,6.42,6.42,0,0,1-.2-3.11,5.16,5.16,0,0,1,.2-.67c.23-.69.53-1.58.17-2.15l.06-.09h.07a1,1,0,0,0,1-.05,1.87,1.87,0,0,0,.71-1.18,1.42,1.42,0,0,1,.28-.61,2.12,2.12,0,0,1,1-.08h.45a1.17,1.17,0,0,0,.59.29,1.31,1.31,0,0,0,.94-.22l.07.11.09.14a1.48,1.48,0,0,0-1,.28,1.87,1.87,0,0,0-.49.93c-.08.27-.15.51-.32.61s-.09,0-.13,0a.79.79,0,0,0-.64,0,1.19,1.19,0,0,0-.43.46.71.71,0,0,1-.1.14.45.45,0,0,0-.1.35.42.42,0,0,0,.21.29c.19.11-.09.93-.2,1.28a4.89,4.89,0,0,0-.21.72,6.56,6.56,0,0,0,.23,3.26,3.27,3.27,0,0,0,.4.64,2.47,2.47,0,0,1,.38.67,1.44,1.44,0,0,1,0,.77v.55a1.88,1.88,0,0,0,1.12,1.72,4.13,4.13,0,0,1,.59.41,6.37,6.37,0,0,0,.9.64,3.61,3.61,0,0,1,1,.85c.31.41.22.64,0,1.12a5.88,5.88,0,0,0-.23.71,5.65,5.65,0,0,0-.1,1,2.12,2.12,0,0,1-.41,1.46.9.9,0,0,1-.67.27,2.44,2.44,0,0,0-.6.11,6.65,6.65,0,0,0,.11-1,6,6,0,0,1,.1-.94,4,4,0,0,1,.21-.67,1.91,1.91,0,0,0-.16-2.12A5.07,5.07,0,0,0,174,35.5a5.62,5.62,0,0,1-.91-.62,5.84,5.84,0,0,0-.77-.53c-.54-.34-.82-.5-.84-1.19a4.34,4.34,0,0,1,0-.51,2.5,2.5,0,0,0-.13-1.24Zm5.09-12.62a2.42,2.42,0,0,1-.4-1,1.61,1.61,0,0,0,.31,0,2.2,2.2,0,0,0,.86.85h.09a2.51,2.51,0,0,0,.46,1.8c.47.81.51,1-.16,1.58a4.7,4.7,0,0,0-.63.13h-.13a2.7,2.7,0,0,1-.4-.54l-.11-.19c1-.89.67-1.72.11-2.63Zm16.11-6.43a.22.22,0,0,1-.05-.08l.56-.45.23-.19.15-.13.3-.27a3.37,3.37,0,0,1,.14.77.43.43,0,0,1,0,.16h0c0,.23-.19.37-.54.67l-.11.09a.9.9,0,0,1-.19.15l-.46.36a1.13,1.13,0,0,0,.24-.46,1.09,1.09,0,0,0-.27-.62ZM194,8.51l1.35.71c.19.09.43.18.69.28a3.82,3.82,0,0,1,1.12.52,2.63,2.63,0,0,1,.4,1.07,1.42,1.42,0,0,0,.05.22,6.55,6.55,0,0,0-1.05-.46q-.27-.09-.54-.21c-.59-.29-1.17-.61-1.75-.94A6.2,6.2,0,0,0,194,8.51Zm7.49,7.43h.18a.47.47,0,0,0,0,.33.45.45,0,0,0,.31.29.79.79,0,0,0,1-.31c.05-.07.06-.08.09-.09.32-.11.47,0,.81.13a4.1,4.1,0,0,0,.48.21c.23.08.46.19.7.3a6.12,6.12,0,0,0,1.1.43,1,1,0,0,0,.42,0,.31.31,0,0,1,.19,0,1.42,1.42,0,0,1,.72.95,3,3,0,0,1,0,1.27.6.6,0,0,0,0-.19,2,2,0,0,0-1.08-1.4,1.09,1.09,0,0,0-.61-.13h-.11a4.53,4.53,0,0,1-.86-.34c-.22-.1-.45-.21-.69-.3l-.36-.16a1.63,1.63,0,0,0-1.36-.16l-.13.05a1.3,1.3,0,0,0-1-.32h-.15a.94.94,0,0,1-.27-.38l-.09-.17-.11-.19a3.55,3.55,0,0,0-.83-1.06c-.11-.1-.22-.18-.32-.26a2.16,2.16,0,0,1-.73-.8,3.12,3.12,0,0,1-.24-.73,4.32,4.32,0,0,0,.52.44l.32.27a3.24,3.24,0,0,1,.71.94l.13.23.08.15a1.63,1.63,0,0,0,.81.88,1,1,0,0,0,.41.12Zm15.44,10a5.35,5.35,0,0,0,1.31,2c.19.21.37.41.48.56l.26.37a3.17,3.17,0,0,0,1.41,1.35,1.4,1.4,0,0,0,.5.06h.17a4.54,4.54,0,0,1,.12.5,2.64,2.64,0,0,0,.22.74h-1.26a.62.62,0,0,0-.11-.25v-.05a1.67,1.67,0,0,1-.11-.44,1.47,1.47,0,0,0-.47-1,1.12,1.12,0,0,0-.62-.12h-.17c-.32-.12-.59-.52-.86-.9l-.26-.37c-.12-.16-.29-.35-.47-.55a5.24,5.24,0,0,1-1-1.38.32.32,0,0,1,.1-.3,1.43,1.43,0,0,0,.33-.47l.06-.2.76-.64.1-.09-.11.13A1.13,1.13,0,0,0,217,26ZM235.4,34l-.18.08c-.44.3-.37,1-.3,1.71a5.61,5.61,0,0,1,0,.58,5,5,0,0,1-.6.43l-.34.23-.1.08a1.34,1.34,0,0,0-.67,1.21,4.19,4.19,0,0,0,.13,1.12,2,2,0,0,1,0,1.2,3,3,0,0,1-.34.57,2.36,2.36,0,0,0-.58,1.42,1.4,1.4,0,0,0,.46,1,2.62,2.62,0,0,1,.22.25,2.78,2.78,0,0,1,.27.89,2.18,2.18,0,0,0,.14.6,3.19,3.19,0,0,1,.09,2.07,1.13,1.13,0,0,0-.36-.48.76.76,0,0,0-1.07.09l0,0c-.08.09-.11.12-.16.13a1.83,1.83,0,0,1-1.51-.48,3.55,3.55,0,0,0,.25-3c0-.15-.07-.31-.1-.47a2.17,2.17,0,0,0-.64-1.42.51.51,0,0,1-.19-.4,1.53,1.53,0,0,1,.35-.79,2.68,2.68,0,0,0,.39-.68,2.36,2.36,0,0,0,0-1.53,3.34,3.34,0,0,1-.12-.78c0-.28,0-.28.28-.5l.08-.06L231,37a2.38,2.38,0,0,0,.81-.7,1.87,1.87,0,0,0,0-.94,3.86,3.86,0,0,1,0-.68.41.41,0,0,0,.45-.37v-.43a7.88,7.88,0,0,0,0-1.19h3.06A4.79,4.79,0,0,1,235.4,34Zm-1.93,17.11h0l.2.06Zm-4.3-.06a1.14,1.14,0,0,0-.4-.29.23.23,0,0,0,.06-.12l.26-.22h1l-.06.09a2.19,2.19,0,0,0-.86.58Zm-11.35-2.22a1.48,1.48,0,0,1-.41.12,1.83,1.83,0,0,0-1,.47h0a.81.81,0,0,0-.14.42V50a.81.81,0,0,1-.32.16,2.19,2.19,0,0,0-.49.23,1.69,1.69,0,0,0-.63.9.62.62,0,0,1-.32.45,5,5,0,0,1-1.64.59,9.62,9.62,0,0,0-1.38.44q-.33.14-.66.24a7.77,7.77,0,0,0-.8.31,4.25,4.25,0,0,0-.58.35,2.17,2.17,0,0,1-.53.31l-.32.11A10.86,10.86,0,0,0,206,55.34a4.6,4.6,0,0,1-.78.44,5,5,0,0,0-.81.46h0a4,4,0,0,1-1.71.89,5,5,0,0,1-1.33.06h-.94a.92.92,0,0,0-.85.39l-.13.11-.16.1h-.53a8.22,8.22,0,0,1-2.24-.53h-.14a5.61,5.61,0,0,0-1.29-.21,3.48,3.48,0,0,1-1.15-.2,20.34,20.34,0,0,1-3-1.37,6,6,0,0,0-2.79-1.18c-.55-.06-1.09-.07-1.6-.08a13,13,0,0,1-1.65-.1,9.87,9.87,0,0,0-1.22-.07h-.9a5.36,5.36,0,0,1-3.44-.61h0a.94.94,0,0,0-.35-.82.45.45,0,0,0-.48-.08h0a11.78,11.78,0,0,0-2.42-1.37h-.08a.43.43,0,0,0,0-.16c-.08-.33-.58-.6-1-.77H175a.72.72,0,0,0-.41,0l-.2-.1a.81.81,0,0,0-.29-.12,2.17,2.17,0,0,0-.51,0h-.35a1.81,1.81,0,0,1-.6-.18l-.4-.14a7.38,7.38,0,0,0-1.24-.16,5.18,5.18,0,0,1-1.24-.2l-.2-.06-.52-.15a1.55,1.55,0,0,0,.08-.23l.22-.18a2.47,2.47,0,0,1,1.18-.39,2.11,2.11,0,0,0,1-.32,4.66,4.66,0,0,0,.89.3h.14a5.63,5.63,0,0,0,1.28.22,5.91,5.91,0,0,1,.94.13l.26.1a2,2,0,0,0,.89.22,2.54,2.54,0,0,0,.39,0h.11c.17.53.8.69,1.3.81a3,3,0,0,1,.43.12l.14.07a7.51,7.51,0,0,1,2.25,1.37l.13.1a.31.31,0,0,0,.11.2c1.14,1.07,2.55,1,3.91,1a10.11,10.11,0,0,1,1.74,0,13.6,13.6,0,0,0,1.56.09,12.21,12.21,0,0,1,1.35.07,4.74,4.74,0,0,1,2.16.92,18.81,18.81,0,0,0,2.66,1.32,3.61,3.61,0,0,0,1.3.24,3.76,3.76,0,0,1,.94.15h.09a8.28,8.28,0,0,0,2.25.52h.45a.82.82,0,0,0,.5-.17l.13-.08a.88.88,0,0,0,.37-.32h.17a4.82,4.82,0,0,1,.76,0,5.12,5.12,0,0,0,1.41-.08,4.37,4.37,0,0,0,1.79-.92h0a3.51,3.51,0,0,1,.6-.33,4,4,0,0,0,.82-.47,8.2,8.2,0,0,1,2.09-1l.3-.12a2.76,2.76,0,0,0,.65-.36l.4-.25c.2-.09.41-.16.64-.24l.65-.24a6.22,6.22,0,0,1,1.11-.35,6,6,0,0,0,1.69-.62,1.38,1.38,0,0,0,.62-.82.73.73,0,0,1,.28-.41l.25-.11a1.38,1.38,0,0,0,.6-.34h0a.92.92,0,0,0,.19-.53,1.71,1.71,0,0,1,.44-.13,1.59,1.59,0,0,0,.83-.36.67.67,0,0,0,.17-.36,1.84,1.84,0,0,0,.52.1,5,5,0,0,0,1.32-.28L219,47a.55.55,0,0,0,0,.4.86.86,0,0,0,.67.52,2.4,2.4,0,0,0,.7.13,5,5,0,0,1-1.09.23,5.55,5.55,0,0,1-.58-.15.65.65,0,0,0-.39,0,.68.68,0,0,0-.5.75Zm-41.9-6.75a1.7,1.7,0,0,0,1.07-.5,1.85,1.85,0,0,0,.46-.74.43.43,0,0,0,.21.28c.11.06.16.12.17.18a.79.79,0,0,1-.34.54l-.23.18a1.14,1.14,0,0,0-.53,1.42c.11.51,0,.65,0,.67a1.93,1.93,0,0,1-.47.14,2.51,2.51,0,0,0-1.24.44l-.3.25a.54.54,0,0,0-.05-.27c-.1-.45-.1-.45.29-.74l.29-.23a1.68,1.68,0,0,0,.71-1.37.78.78,0,0,0,0-.21Zm-1.7-10.58a3.25,3.25,0,0,0-.49-.87,3.3,3.3,0,0,1-.31-.51,5.77,5.77,0,0,1-.17-2.77,2.76,2.76,0,0,1,.17-.59,2.66,2.66,0,0,0,.16-2h0a.92.92,0,0,0,.88-.06,1.68,1.68,0,0,0,.64-1.07,1.38,1.38,0,0,1,.24-.54,2.06,2.06,0,0,1,.82-.07h.41a.71.71,0,0,0,.28.09,1.24,1.24,0,0,0,1-.24l.17.24.18.28a1.24,1.24,0,0,0-.64.25,1.59,1.59,0,0,0-.44.84c-.07.22-.13.44-.25.52h-.1a.73.73,0,0,0-.58,0,1.06,1.06,0,0,0-.37.44l-.08.13a.41.41,0,0,0-.08.32.4.4,0,0,0,.19.27c.15.09-.1.85-.18,1.1a5,5,0,0,0-.19.63,6.06,6.06,0,0,0,.2,2.9,2.33,2.33,0,0,0,.34.57,2.5,2.5,0,0,1,.31.55h0a1.27,1.27,0,0,1,0,.67,3.84,3.84,0,0,0,0,.48,1.64,1.64,0,0,0,1,1.54,4.74,4.74,0,0,1,.51.37,6.41,6.41,0,0,0,.79.58,3.31,3.31,0,0,1,.89.73c.25.36.19.53,0,1a5.1,5.1,0,0,0-.2.63,4.28,4.28,0,0,0-.09.87,1.85,1.85,0,0,1-.34,1.25.68.68,0,0,1-.55.23,2.51,2.51,0,0,0-.67.15.26.26,0,0,0-.14.11,7.3,7.3,0,0,0,.1-.94,4.78,4.78,0,0,1,.08-.84,4.06,4.06,0,0,1,.19-.59,1.75,1.75,0,0,0-.14-1.91,4.37,4.37,0,0,0-1.28-1.06,6.44,6.44,0,0,1-.8-.57,6.63,6.63,0,0,0-.69-.49c-.47-.29-.71-.44-.73-1a3.23,3.23,0,0,1,0-.44,2.32,2.32,0,0,0,0-1.14Zm6.34-10.26a2.15,2.15,0,0,1-.31-.73,1.73,1.73,0,0,0,.28.19,1.15,1.15,0,0,0,.83.14,3.54,3.54,0,0,0,.26.41,2,2,0,0,0,.3,1.64c.36.63.38.76-.13,1.16-.2.17-.33.21-.39.2a2.25,2.25,0,0,1-.41-.47,1.21,1.21,0,0,0-.4-.47c.64-.69.41-1.31,0-2ZM192.69,16a.82.82,0,0,0,.17.5l.06.05h0l-.07.07h0a1.19,1.19,0,0,0-.08.16,1.24,1.24,0,0,1-.84,1c-.14.08-.3.16-.47.27h0a2.47,2.47,0,0,0-.78.86,1.43,1.43,0,0,1-.52.57,2.16,2.16,0,0,1-1.56-.08,2.85,2.85,0,0,0-2.11,0,3.55,3.55,0,0,0-1.67,1.6h0a.76.76,0,0,0-.21.08.84.84,0,0,0-.26.27.29.29,0,0,1-.14-.08c-.07-.08,0-.3.07-.52a1.63,1.63,0,0,0,.08-1.09,3.49,3.49,0,0,1,1.17-.92,2.33,2.33,0,0,1,1.74.08,3.28,3.28,0,0,0,2.35,0,2.3,2.3,0,0,0,1-1,2.05,2.05,0,0,1,.6-.71l.31-.18A2.84,2.84,0,0,0,192.69,16Zm.4-1.77v-.06l.5-.39.24-.19.1-.09.28-.25a3.48,3.48,0,0,1,.17.84c0,.33-.11.45-.54.81h-.05l-.19.15a8.27,8.27,0,0,0-.66.51l.11-.24,0-.08a1,1,0,0,0,.25-.42.91.91,0,0,0-.26-.6Zm1.42-3.46c.39.21.78.42,1.17.61a4.91,4.91,0,0,0,.63.26,3.75,3.75,0,0,1,1,.45,2.48,2.48,0,0,1,.35.95l.09.39a4.54,4.54,0,0,0-.93-.41,3.85,3.85,0,0,1-.47-.19c-.55-.27-1.08-.56-1.59-.85h0a5.19,5.19,0,0,0-.25-1.22Zm6.71,6.63h.14a.45.45,0,0,0,0,.28.39.39,0,0,0,.29.28.76.76,0,0,0,.92-.27c.05-.07.05-.07.07-.08.28-.09.41,0,.71.13.13.06.27.13.44.19s.41.17.63.27a6.14,6.14,0,0,0,1,.4,1.27,1.27,0,0,0,.39,0H206a1.21,1.21,0,0,1,.64.84,2.68,2.68,0,0,1,0,1.26.48.48,0,0,0,0-.17,1.9,1.9,0,0,0-1-1.28,1.06,1.06,0,0,0-.55-.12H205a5.63,5.63,0,0,1-.77-.31c-.2-.09-.4-.19-.61-.27s-.22-.1-.32-.14a1.44,1.44,0,0,0-1.26-.11l-.11.05a1.16,1.16,0,0,0-.89-.3h-.13a.77.77,0,0,1-.22-.31l-.09-.16-.09-.16a3.21,3.21,0,0,0-.75-1l-.3-.23a1.93,1.93,0,0,1-.64-.69,3.65,3.65,0,0,1-.23-.73v-.08a5.71,5.71,0,0,0,.47.39l.29.25a2.72,2.72,0,0,1,.64.83l.12.2.07.13a1.42,1.42,0,0,0,.73.79.89.89,0,0,0,.35.11Zm14,9.13a4.61,4.61,0,0,0,1.19,1.79c.17.19.33.37.43.5l.24.34a3,3,0,0,0,1.28,1.22,1.41,1.41,0,0,0,.46,0H219a2.63,2.63,0,0,0,.1.43,2.55,2.55,0,0,0,.2.68H218a1.51,1.51,0,0,0-.12-.26,2.79,2.79,0,0,1-.1-.39,1.36,1.36,0,0,0-.42-.9,1,1,0,0,0-.53-.12h-.19c-.27-.1-.51-.45-.75-.78-.08-.11-.15-.23-.23-.33l-.42-.49a4.37,4.37,0,0,1-.88-1.21.27.27,0,0,1,.08-.24,1.44,1.44,0,0,0,.22-.27.94.94,0,0,0,.47,0h.13l0,0Zm16.24,7.29-.14.07c-.41.27-.34.89-.28,1.55V36a4.67,4.67,0,0,1-.51.36l-.31.22-.07.06a1.2,1.2,0,0,0-.59,1.11,4.17,4.17,0,0,0,.15,1,1.71,1.71,0,0,1,.06,1,2.62,2.62,0,0,1-.3.51,2.15,2.15,0,0,0-.5,1.27,1.29,1.29,0,0,0,.42.94,1.3,1.3,0,0,1,.18.23,2.26,2.26,0,0,1,.24.79A4.76,4.76,0,0,0,230,44a3,3,0,0,1,.09,1.77,1,1,0,0,0-.31-.38.7.7,0,0,0-1,.13l0,0c-.07.07-.1.1-.13.11a1.64,1.64,0,0,1-1.39-.48l-.06-.06S227.09,45,227,45a3.14,3.14,0,0,0,.18-2.56,2.41,2.41,0,0,0-.1-.43,2.71,2.71,0,0,0-.31-1,2.34,2.34,0,0,0-.24-.31c-.12-.14-.16-.18-.16-.35a1.27,1.27,0,0,1,.29-.66A3.25,3.25,0,0,0,227,39a2.08,2.08,0,0,0-.07-1.37,2.15,2.15,0,0,1-.13-.67v-.23a1.12,1.12,0,0,1,.2-.18l.05-.05.21-.14a1.9,1.9,0,0,0,.7-.62,1.71,1.71,0,0,0,0-.84,2.13,2.13,0,0,0-.05-.55.39.39,0,0,0,.21-.06.37.37,0,0,0,.19-.36v-.33a5.57,5.57,0,0,0,0-1h3.09a4.12,4.12,0,0,1,.08,1.21ZM212.68,46.34a.9.9,0,0,1-.21.08,2,2,0,0,0-.42.2,1.41,1.41,0,0,0-.53.72.49.49,0,0,1-.25.33,4,4,0,0,1-1.26.45,8.28,8.28,0,0,0-1.1.35l-.5.19a5,5,0,0,0-.64.25,2.64,2.64,0,0,0-.46.27,1.76,1.76,0,0,1-.42.24l-.28.11a8.32,8.32,0,0,0-2,1,3,3,0,0,1-.6.34,5.07,5.07,0,0,0-.64.37l-.07,0A3.12,3.12,0,0,1,202,52a3.56,3.56,0,0,1-1,.08h-.76a.72.72,0,0,0-.71.33l-.1.08-.13.08h-.39a6.14,6.14,0,0,1-1.84-.41h0a3.73,3.73,0,0,0-1-.16,2.74,2.74,0,0,1-.9-.15,15.33,15.33,0,0,1-2.23-1.09,4.89,4.89,0,0,0-2.23-.92c-.42,0-.85-.06-1.27-.06a10.81,10.81,0,0,1-1.27-.07,7.26,7.26,0,0,0-.93-.06h-.72a4.18,4.18,0,0,1-2.64-.46.84.84,0,0,0-.33-.67.39.39,0,0,0-.42-.08h0a10.47,10.47,0,0,0-1.9-1.08l-.13-.06h0a.29.29,0,0,0,0-.18c-.09-.18-.3-.29-.71-.48l-.13-.07h-.09a.62.62,0,0,0-.33,0l-.12-.06a1,1,0,0,0-.21-.09h0a1.4,1.4,0,0,0-.5,0h-.28a1.08,1.08,0,0,1-.49-.15l-.3-.11a6,6,0,0,0-.95-.14,3.76,3.76,0,0,1-.94-.15h-.17l-.4-.12c.08-.08.17-.15.24-.21a2,2,0,0,1,.89-.3,1.29,1.29,0,0,0,1-.47,1,1,0,0,0,.16-.41c.1.2.34.3,1,.47h.12a3.73,3.73,0,0,0,1,.16,3.51,3.51,0,0,1,.65.09l.17.07a1.64,1.64,0,0,0,.75.19H182c.17.4.65.52,1,.62l.34.1.13.06a6.19,6.19,0,0,1,1.7,1,.42.42,0,0,0,.18.11.3.3,0,0,0,.09.13,3.85,3.85,0,0,0,3,.76,9.26,9.26,0,0,1,1.29,0,7.65,7.65,0,0,0,1.17.06,6.5,6.5,0,0,1,1,0,3.74,3.74,0,0,1,1.63.68,13,13,0,0,0,2.05,1,2.85,2.85,0,0,0,1,.18,2.91,2.91,0,0,1,.72.1,7.4,7.4,0,0,0,1.8.38h.33a.65.65,0,0,0,.44-.14l.1-.06a.83.83,0,0,0,.29-.24h.12a5.61,5.61,0,0,1,.58,0A4.22,4.22,0,0,0,202,50a3.39,3.39,0,0,0,1.33-.69l.09-.07a3.62,3.62,0,0,1,.43-.24,3.14,3.14,0,0,0,.64-.37,6.21,6.21,0,0,1,1.53-.75l.26-.1a3.29,3.29,0,0,0,.52-.29,1.49,1.49,0,0,1,.3-.18,4,4,0,0,1,.48-.19l.48-.19a6.09,6.09,0,0,1,.83-.25,4.71,4.71,0,0,0,1.3-.47,1.22,1.22,0,0,0,.51-.65.46.46,0,0,1,.21-.28l.18-.08a.93.93,0,0,0,.51-.26V44.9a.61.61,0,0,0,.13-.39l.26-.07a1.21,1.21,0,0,0,.67-.3.68.68,0,0,0,.14-.23.87.87,0,0,0,.32.06,3.43,3.43,0,0,0,1-.21l.6-.15a1.55,1.55,0,0,1,.43,0v0a.62.62,0,0,0-.18.56c.09.29.41.39.55.44a1.65,1.65,0,0,0,.32.07,3.14,3.14,0,0,1-.61.12l-.42-.12a.53.53,0,0,0-.35,0,.57.57,0,0,0-.43.64l-.29.07a1.56,1.56,0,0,0-.84.39l-.05.06a.57.57,0,0,0-.08.38Zm-34.06-5a.67.67,0,0,0,0-.2,1.41,1.41,0,0,0,.89-.44,2.4,2.4,0,0,0,.57-1.78,4.63,4.63,0,0,1,.07-.74,5.25,5.25,0,0,1,.17-.52,1.57,1.57,0,0,0-.12-1.7,3.82,3.82,0,0,0-1.1-.94,5,5,0,0,1-.7-.51,4.61,4.61,0,0,0-.62-.44c-.41-.26-.6-.38-.6-.88a2.41,2.41,0,0,1,0-.38,2.09,2.09,0,0,0-.09-1.05,2.5,2.5,0,0,0-.41-.75,2.43,2.43,0,0,1-.26-.44,5.17,5.17,0,0,1-.14-2.44,4.44,4.44,0,0,1,.15-.52c.19-.55.43-1.27.14-1.74a.8.8,0,0,0,.75-.09,1.6,1.6,0,0,0,.57-1,1.13,1.13,0,0,1,.21-.46,1.52,1.52,0,0,1,.67-.06h.45a2.18,2.18,0,0,0,.44-.11,2.13,2.13,0,0,1,.42-.1c.12,0,.13,0,.25.22a3.47,3.47,0,0,0,.31.44,1,1,0,0,0-.37.2,1.64,1.64,0,0,0-.38.74.86.86,0,0,1-.2.43h0a.59.59,0,0,0-.55,0,1.21,1.21,0,0,0-.3.41l-.06.12a.45.45,0,0,0-.05.3.4.4,0,0,0,.18.24c.09.11-.1.69-.18.91a4.56,4.56,0,0,0,0,3.09,3.2,3.2,0,0,0,.29.51,1.66,1.66,0,0,1,.25.45h0a1.1,1.1,0,0,1,0,.57,1.48,1.48,0,0,0,0,.42,1.46,1.46,0,0,0,.83,1.36,2.75,2.75,0,0,1,.44.32,5.58,5.58,0,0,0,.69.51,2.72,2.72,0,0,1,.72.63c.2.29.15.44,0,.79a3.86,3.86,0,0,0-.17.55,4,4,0,0,0-.08.77,1.43,1.43,0,0,1-.27,1,.53.53,0,0,1-.42.18,2.24,2.24,0,0,0-.58.14.38.38,0,0,0,0,.69.17.17,0,0,1,.14.13.66.66,0,0,1-.27.42l-.2.15a1,1,0,0,0-.46,1.26c.09.43,0,.54,0,.54a2.94,2.94,0,0,1-.38.1,2.31,2.31,0,0,0-1.08.39,1.78,1.78,0,0,0-.57.62.89.89,0,0,0-.07-.41c-.08-.38-.08-.38.23-.61l.26-.2a1.51,1.51,0,0,0,.62-1.12Zm15-25.16h0l.44-.33.24-.18h0l.26-.23a3.08,3.08,0,0,1,.19.9c0,.3-.11.41-.51.74l-.2.14c-.54.38-.66.48-.73.62a.66.66,0,0,0,.08.65h0a.46.46,0,0,0-.13.21,1.09,1.09,0,0,1-.73.89l-.41.22a2.31,2.31,0,0,0-.7.76,1.05,1.05,0,0,1-.43.48A2,2,0,0,1,189.7,21a2.57,2.57,0,0,0-1.89,0,3.16,3.16,0,0,0-1.48,1.41,2.32,2.32,0,0,0-.16.44v.1h-.08a1.07,1.07,0,0,1,.07-.41,1.49,1.49,0,0,0,.05-1,1,1,0,0,0-.31-.44,2.82,2.82,0,0,1,1-.71,2.13,2.13,0,0,1,1.53.07,3,3,0,0,0,2.11.05,2.07,2.07,0,0,0,.89-.89A1.87,1.87,0,0,1,192,19l.43-.25a2,2,0,0,0,1.23-1.47,1.36,1.36,0,0,0,.27-.39.81.81,0,0,0-.25-.73ZM200.91,19H201a.45.45,0,0,0,0,.23.4.4,0,0,0,.28.28.74.74,0,0,0,.85-.25l.06-.06c.22-.07.32,0,.61.12.11.05.24.12.4.18l.55.24a5.07,5.07,0,0,0,.91.36,1,1,0,0,0,.34,0h.15a1.09,1.09,0,0,1,.55.74,2.31,2.31,0,0,1-.08,1.25v-.15a1.75,1.75,0,0,0-.87-1.15,1.08,1.08,0,0,0-.5-.12h-.09a4.43,4.43,0,0,1-.68-.28c-.17-.08-.35-.17-.54-.24l-.28-.13a1.36,1.36,0,0,0-1.11-.16h-.09a1.12,1.12,0,0,0-.8-.27h-.12s-.13-.17-.16-.24l-.08-.14-.08-.13a3.18,3.18,0,0,0-.68-.83l-.26-.21a1.53,1.53,0,0,1-.55-.58,2.72,2.72,0,0,1-.2-.63,2.5,2.5,0,0,0-.07-.26c.14.13.27.23.41.34l.27.22a2.37,2.37,0,0,1,.57.73l.1.17.06.11a1.28,1.28,0,0,0,.67.7.91.91,0,0,0,.38.13Zm26.64,14.7-.1.06c-.38.25-.32.8-.26,1.39a2.94,2.94,0,0,1,0,.42c-.09.08-.31.22-.42.3l-.27.19-.05.05a1,1,0,0,0-.51,1,2.93,2.93,0,0,0,.17.89,1.4,1.4,0,0,1,.08.88,1.73,1.73,0,0,1-.25.44,1.87,1.87,0,0,0-.42,1.13,1.25,1.25,0,0,0,.37.86,1.46,1.46,0,0,1,.16.19,2.38,2.38,0,0,1,.2.69,2.16,2.16,0,0,0,.11.49,2.54,2.54,0,0,1,.09,1.47.92.92,0,0,0-.24-.28.68.68,0,0,0-.94.15h0s-.07.09-.09.09a1.36,1.36,0,0,1-1.19-.4h-.06a2.42,2.42,0,0,0-.56-.44,2.71,2.71,0,0,0,.14-2.18,1.84,1.84,0,0,0-.08-.38,2.28,2.28,0,0,0-.26-.84,2.34,2.34,0,0,0-.2-.27.38.38,0,0,1-.15-.3,1,1,0,0,1,.23-.54,2.19,2.19,0,0,0,.28-.55,1.84,1.84,0,0,0-.11-1.2,1.84,1.84,0,0,1-.14-.56v-.18l.17-.15h0l.17-.12c.31-.21.52-.36.6-.55a1.3,1.3,0,0,0,0-.73v-.43a.47.47,0,0,0,.15-.06.36.36,0,0,0,.18-.34v-.28a4,4,0,0,0,0-.85h3.13a3.92,3.92,0,0,1,.08.9ZM210.91,44.48l-.14.05a1.3,1.3,0,0,0-.38.17,1.23,1.23,0,0,0-.49.63.43.43,0,0,1-.21.28,3.8,3.8,0,0,1-1.07.38,6.75,6.75,0,0,0-1,.29,3.69,3.69,0,0,1-.42.17,5.42,5.42,0,0,0-.56.22,3.26,3.26,0,0,0-.4.24,2.71,2.71,0,0,1-.37.21l-.26.1A7,7,0,0,0,204,48a3.2,3.2,0,0,1-.51.29,4,4,0,0,0-.57.32l-.09.07a2.61,2.61,0,0,1-1.05.56,3.54,3.54,0,0,1-.92,0h-.66a.75.75,0,0,0-.65.3.16.16,0,0,1-.08.06l-.12.07H199a5.47,5.47,0,0,1-1.64-.35,3.35,3.35,0,0,0-.89-.12,2.27,2.27,0,0,1-.77-.13,12.53,12.53,0,0,1-1.92-.92,4.53,4.53,0,0,0-2-.79c-.37,0-.73,0-1.1,0a9.77,9.77,0,0,1-1.08-.06h-1.42a3.56,3.56,0,0,1-2.24-.38.87.87,0,0,0-.32-.59.4.4,0,0,0-.38-.08h0a8.68,8.68,0,0,0-1.65-.94l-.12-.06h-.07a.45.45,0,0,0-.07-.18,1.75,1.75,0,0,0-.57-.35.66.66,0,0,1-.19-.09h-.09a.76.76,0,0,0-.3,0h-.09a.58.58,0,0,0-.18-.08h0a1.29,1.29,0,0,0-.48,0h-.24a1,1,0,0,1-.44-.14l-.24-.09a5.59,5.59,0,0,0-.82-.12,3.42,3.42,0,0,1-.78-.12h-.16l-.28-.09.16-.13a1.62,1.62,0,0,1,.74-.24,1.19,1.19,0,0,0,.89-.43,1.46,1.46,0,0,0,.09-1.14c-.07-.3-.07-.3.17-.48l.22-.17a1.34,1.34,0,0,0,.55-1.09v-.14a1.3,1.3,0,0,0,.71-.38,2.13,2.13,0,0,0,.49-1.55,3.36,3.36,0,0,1,.06-.63,2.59,2.59,0,0,1,.14-.45,1.4,1.4,0,0,0-.1-1.5,3.18,3.18,0,0,0-.93-.82,3.68,3.68,0,0,1-.59-.45,5.39,5.39,0,0,0-.54-.4c-.36-.22-.49-.31-.49-.72v-.32A1.68,1.68,0,0,0,180,32a2.13,2.13,0,0,0-.34-.65,2.22,2.22,0,0,1-.21-.37,4.56,4.56,0,0,1-.11-2.11,2.54,2.54,0,0,1,.13-.45,2.16,2.16,0,0,0,.14-1.48.73.73,0,0,0,.57-.13,1.45,1.45,0,0,0,.49-.85,1.13,1.13,0,0,1,.17-.39,1.87,1.87,0,0,1,.53-.05,1.41,1.41,0,0,0,.41,0,2.4,2.4,0,0,0,.38-.12l.32-.1h.12l.08.13a1.89,1.89,0,0,0,.54.62.64.64,0,0,0-.19.13,1.4,1.4,0,0,0-.32.63,1.09,1.09,0,0,1-.15.35.52.52,0,0,0-.5.07.89.89,0,0,0-.23.38v.1a.37.37,0,0,0,.13.48,1.84,1.84,0,0,1-.16.73,4.34,4.34,0,0,0-.14.48,5,5,0,0,0,.12,2.17A3.75,3.75,0,0,0,182,32a1.55,1.55,0,0,1,.19.36v.07a.72.72,0,0,1,0,.46v.35a1.25,1.25,0,0,0,.7,1.18,3.18,3.18,0,0,1,.37.27,3.45,3.45,0,0,0,.56.45,2.36,2.36,0,0,1,.57.52c.15.23.11.34,0,.63a4.42,4.42,0,0,0-.15.48c0,.22-.05.43-.06.65s0,.65-.2.83a.34.34,0,0,1-.31.14,1.89,1.89,0,0,0-.48.13A.36.36,0,0,0,183,39a.35.35,0,0,0,.17.17s.09.06.09.08a.44.44,0,0,1-.2.31l-.16.13a.86.86,0,0,0-.39,1.09.72.72,0,0,1,0,.41.89.89,0,0,1-.28.07,1.91,1.91,0,0,0-.92.34c-.69.52-.56.83-.51.93a1.54,1.54,0,0,0,.83.45h.11a3.28,3.28,0,0,0,.82.14,4.63,4.63,0,0,1,.52.07h.11a1.77,1.77,0,0,0,.68.19h.48l.15.07a1.32,1.32,0,0,0,.87.48,1.4,1.4,0,0,1,.29.09l.12.06a5.34,5.34,0,0,1,1.43.86.3.3,0,0,0,.21.12.39.39,0,0,0,.08.1,3.27,3.27,0,0,0,2.56.65,9.37,9.37,0,0,1,1.06,0h1a6.17,6.17,0,0,1,.86,0,3.15,3.15,0,0,1,1.38.56,10.9,10.9,0,0,0,1.73.81,2.56,2.56,0,0,0,.87.14,2.88,2.88,0,0,1,.59.07,6.44,6.44,0,0,0,1.56.31h.26a.61.61,0,0,0,.41-.13h.09a.72.72,0,0,0,.25-.21h.59a3.36,3.36,0,0,0,1-.08,2.73,2.73,0,0,0,1.11-.57l.1-.08a1.58,1.58,0,0,1,.36-.2,3,3,0,0,0,.55-.32,5.71,5.71,0,0,1,1.24-.61l.24-.1a1.66,1.66,0,0,0,.45-.25c.09,0,.17-.11.26-.15l.41-.17.39-.15a3.94,3.94,0,0,1,.69-.21,3.61,3.61,0,0,0,1.1-.39,1.11,1.11,0,0,0,.46-.56.44.44,0,0,1,.17-.23l.15,0a1.11,1.11,0,0,0,.46-.23V43a.51.51,0,0,0,.1-.32h.16a1.13,1.13,0,0,0,.6-.27.91.91,0,0,0,.11-.16.45.45,0,0,0,.23,0,3.06,3.06,0,0,0,.85-.17c.17-.05.33-.1.48-.13a1.34,1.34,0,0,1,.4.07l.33.07h0l-.07.09a.56.56,0,0,0-.17.52.68.68,0,0,0,.5.4h.14a1.21,1.21,0,0,1-.38.06,2.25,2.25,0,0,1-.35-.09.47.47,0,0,0-.33,0,.55.55,0,0,0-.4.56h-.22A1.41,1.41,0,0,0,211,44l-.06.08A.56.56,0,0,0,210.91,44.48ZM194.17,18h0l.38-.27.25-.18.25-.21v.1a3.27,3.27,0,0,1,.17.87c0,.25-.08.35-.43.63l-.21.14a2.32,2.32,0,0,0-.63.49.6.6,0,0,0,0,.63h0a.46.46,0,0,0-.13.21.89.89,0,0,1-.62.73l-.35.19a2,2,0,0,0-.61.65c-.14.2-.22.33-.35.38a1.63,1.63,0,0,1-1.13-.07,2.24,2.24,0,0,0-1.65,0,2.87,2.87,0,0,0-1.08.87v-.12a.72.72,0,0,0-.43-.47.65.65,0,0,0-.56.17h0l.06-.13a2.32,2.32,0,0,1,1.1-1,1.8,1.8,0,0,1,1.33.06,2.7,2.7,0,0,0,1.86,0,1.75,1.75,0,0,0,.8-.77,1.35,1.35,0,0,1,.44-.51h0l.37-.21a1.8,1.8,0,0,0,1.1-1.29,1.09,1.09,0,0,0,.23-.29A.66.66,0,0,0,194.17,18Zm6.44,2.36h.06a.34.34,0,0,0,0,.2.39.39,0,0,0,.27.26.66.66,0,0,0,.78-.22h.05c.18-.06.26,0,.51.11l.36.17c.16.06.32.14.48.21a4.05,4.05,0,0,0,.81.33.81.81,0,0,0,.31,0h.12a.89.89,0,0,1,.47.63,2,2,0,0,1-.12,1.22.2.2,0,0,0,0-.11,1.48,1.48,0,0,0-.77-1,.83.83,0,0,0-.44-.12h-.07a3.16,3.16,0,0,1-.6-.25l-.46-.2-.24-.12a1.18,1.18,0,0,0-1-.16h-.06a1,1,0,0,0-.72-.24h-.11a1,1,0,0,1-.11-.17l-.07-.12-.07-.11a2.51,2.51,0,0,0-.59-.71l-.24-.18a1.22,1.22,0,0,1-.46-.47,2,2,0,0,1-.16-.53,1.59,1.59,0,0,0-.13-.46,3.57,3.57,0,0,0,.37.31l.25.19a2.53,2.53,0,0,1,.5.63l.08.14v.09a1.19,1.19,0,0,0,.61.62,1,1,0,0,0,.39.07Zm23,12.21a3.3,3.3,0,0,1,0,.77h-.07c-.34.23-.28.72-.23,1.24V35l-.32.23-.24.18h0a.94.94,0,0,0-.42.93,2.68,2.68,0,0,0,.19.79,1.19,1.19,0,0,1,.1.72,1.55,1.55,0,0,1-.19.36,1.6,1.6,0,0,0-.35,1,1.15,1.15,0,0,0,.33.77l.13.17a2.38,2.38,0,0,1,.16.58,1.64,1.64,0,0,0,.1.45,2.33,2.33,0,0,1,.09,1.17.81.81,0,0,0-.19-.18.61.61,0,0,0-.84.15v0l-.06.07a1.15,1.15,0,0,1-1-.32h0c-.17-.17-.63-.62-1.1-.39l.06-.07a2.42,2.42,0,0,0,.22-2c0-.11-.05-.22-.07-.33a2.61,2.61,0,0,0-.22-.72l-.16-.23c-.09-.11-.12-.14-.13-.26a.82.82,0,0,1,.17-.42,1.64,1.64,0,0,0,.23-.48,1.52,1.52,0,0,0-.16-1,1.77,1.77,0,0,1-.15-.46v-.14l.12-.11.13-.1a1.28,1.28,0,0,0,.5-.48,1.3,1.3,0,0,0,0-.62,1.71,1.71,0,0,1,0-.32h.1a.34.34,0,0,0,.17-.32v-.24a3.86,3.86,0,0,0,0-.68h3.17Zm-12.87,8.54a.57.57,0,0,0,.42.36H211l-.28-.08a.55.55,0,0,0-.31,0,.5.5,0,0,0-.36.48l-.16.05a1.21,1.21,0,0,0-.65.29.36.36,0,0,0-.07.1.57.57,0,0,0,0,.26h-.06a1.14,1.14,0,0,0-.36.15,1,1,0,0,0-.43.54.33.33,0,0,1-.18.22,2.72,2.72,0,0,1-.88.31,5.44,5.44,0,0,0-.81.25l-.35.14a4,4,0,0,0-.48.19c-.14.07-.24.14-.34.2a1,1,0,0,1-.32.18l-.23.1a5.9,5.9,0,0,0-1.42.71,1.76,1.76,0,0,1-.42.24,2.27,2.27,0,0,0-.48.27l-.11.08a2,2,0,0,1-.84.45,2.57,2.57,0,0,1-.78.06,5.42,5.42,0,0,0-.57,0,.68.68,0,0,0-.58.25l-.06,0-.11.07h-.21a5.52,5.52,0,0,1-1.4-.28,3.86,3.86,0,0,0-.75-.1,1.74,1.74,0,0,1-.64-.09,10.86,10.86,0,0,1-1.62-.76,4,4,0,0,0-1.68-.66,7.22,7.22,0,0,0-.93,0,6.76,6.76,0,0,1-.9,0H190a3,3,0,0,1-1.85-.31.83.83,0,0,0-.31-.5.35.35,0,0,0-.32-.08h-.06a8.3,8.3,0,0,0-1.39-.79l-.12-.06h-.11a.42.42,0,0,0-.11-.18,1.7,1.7,0,0,0-.44-.24l-.23-.1H185a.62.62,0,0,0-.27,0h-.06l-.15-.06h0a1.19,1.19,0,0,0-.46,0h-.2a1.11,1.11,0,0,1-.4-.13l-.14-.06h0a4.92,4.92,0,0,0-.67-.1,1.93,1.93,0,0,1-.63-.1l-.16,0h-.08a1.38,1.38,0,0,1,.59-.2,1,1,0,0,0,.77-.38,1.21,1.21,0,0,0,.08-1,.81.81,0,0,1,0-.22h0l.16-.13.18-.15a1.15,1.15,0,0,0,.46-1v-.09a1,1,0,0,0,.54-.32,1.77,1.77,0,0,0,.4-1.31,2.35,2.35,0,0,1,0-.53,2.65,2.65,0,0,1,.12-.37,1.27,1.27,0,0,0-.08-1.29,3,3,0,0,0-.75-.71,2.63,2.63,0,0,1-.49-.39,4.1,4.1,0,0,0-.47-.35c-.29-.19-.37-.25-.37-.56a1.13,1.13,0,0,1,0-.26,1.6,1.6,0,0,0-.07-.84,2.81,2.81,0,0,0-.27-.55,1.46,1.46,0,0,1-.17-.3,4.12,4.12,0,0,1-.09-1.78,1.76,1.76,0,0,1,.12-.38,1.92,1.92,0,0,0,.13-1.25.63.63,0,0,0,.4-.14,1.38,1.38,0,0,0,.42-.74.69.69,0,0,1,.12-.31,1.28,1.28,0,0,1,.39,0h.37a2.19,2.19,0,0,0,.33-.12l.24-.1h.09a1.23,1.23,0,0,0,.74.64,1,1,0,0,0,.8-.28,1.1,1.1,0,0,0,.38-1.51l-.1-.14a.91.91,0,0,1-.14-.7,1.34,1.34,0,0,0,.59.63.81.81,0,0,0,.68,0A.35.35,0,0,0,188,25h0a1.35,1.35,0,0,1,.15.26v.17a1.33,1.33,0,0,0,.08,1.27c.17.33.17.33-.07.52l-.14.1a1,1,0,0,1-.15-.2.6.6,0,0,0-.67-.32,1.44,1.44,0,0,0-.45.17l-.14.07h-.16a1,1,0,0,0-.72.23,1.17,1.17,0,0,0-.27.53,1.17,1.17,0,0,1-.1.26.47.47,0,0,0-.38.1l-.08.09c0,.09-.07.19-.1.28v.1a.32.32,0,0,0,.13.39,1.83,1.83,0,0,1-.13.56c-.05.15-.09.28-.12.41a4.49,4.49,0,0,0,.09,1.79,2.64,2.64,0,0,0,.18.38,1,1,0,0,1,.13.27.11.11,0,0,0,0,.08.73.73,0,0,1,0,.36,1.31,1.31,0,0,0,0,.28,1,1,0,0,0,.56,1l.29.23a3.16,3.16,0,0,0,.44.38,1.4,1.4,0,0,1,.42.42c.1.15.08.22,0,.46a3,3,0,0,0-.12.4,3.41,3.41,0,0,0,0,.55c0,.3,0,.49-.13.62a.23.23,0,0,1-.19.1,1.14,1.14,0,0,0-.4.11.35.35,0,0,0,0,.62h0a.39.39,0,0,1-.13.2l-.13.1a.76.76,0,0,0-.32.93,1.31,1.31,0,0,1,0,.28h-.18a1.89,1.89,0,0,0-.77.29c-.39.31-.52.57-.41.82s.28.26.7.38h.09a2.55,2.55,0,0,0,.67.12,2.41,2.41,0,0,1,.38,0h0a1.8,1.8,0,0,0,.64.18h.15a.81.81,0,0,1,.22,0h0l.16.07h.1a1.18,1.18,0,0,0,.72.38l.24.08.12.06a4.19,4.19,0,0,1,1.15.69.33.33,0,0,0,.25.11.16.16,0,0,0,.06.08,2.71,2.71,0,0,0,2.11.54,5.75,5.75,0,0,1,.83,0,5.21,5.21,0,0,0,.79,0h.7a2.87,2.87,0,0,1,1.12.45,9,9,0,0,0,1.42.63,2.27,2.27,0,0,0,.73.11,3.75,3.75,0,0,1,.47.05,5.22,5.22,0,0,0,1.3.23h.19a.57.57,0,0,0,.38-.11l.08,0a.65.65,0,0,0,.21-.16h.47a3.21,3.21,0,0,0,.82-.07,2.35,2.35,0,0,0,.88-.47l.12-.08.28-.16a3,3,0,0,0,.46-.26,4.22,4.22,0,0,1,1-.49l.22-.09a2.75,2.75,0,0,0,.38-.2,1.48,1.48,0,0,1,.21-.13,2,2,0,0,1,.34-.14l.3-.12a3.5,3.5,0,0,1,.55-.17,3.2,3.2,0,0,0,.9-.31,1,1,0,0,0,.4-.47.39.39,0,0,1,.14-.17h.11A.91.91,0,0,0,208,41l.07-.09a.52.52,0,0,0,.07-.25h.06a1,1,0,0,0,.53-.24l.07-.1h.15a2.73,2.73,0,0,0,.69-.14l.38-.1h.27a1,1,0,0,0,.64,0,.2.2,0,0,1,.4-.08h0a.35.35,0,0,0-.3.32l-.06.06a.48.48,0,0,0-.29.61.28.28,0,0,0,.08.15Zm-26.07-17.3a1.14,1.14,0,0,1-.2-.82h.22a1.83,1.83,0,0,0,.81,1,.93.93,0,0,0,.4.12,1.56,1.56,0,0,0,.17,1.36c.23.43.24.47-.09.73a.55.55,0,0,1-.23.14,1.33,1.33,0,0,1-.24-.3.72.72,0,0,0-.69-.41,1,1,0,0,0-.38.07A1.31,1.31,0,0,0,184.67,23.85ZM194.72,20l.3-.21a2.11,2.11,0,0,0,.27-.18l.19-.16a1,1,0,0,0,.09.33,2.54,2.54,0,0,1,.13.72c0,.2-.07.29-.36.51l-.21.14a2,2,0,0,0-.54.38.6.6,0,0,0-.05.55h0a.36.36,0,0,0-.12.18c-.1.38-.17.42-.5.58l-.29.16a1.52,1.52,0,0,0-.53.54c-.1.16-.17.25-.26.28a1.42,1.42,0,0,1-.91-.06,2.07,2.07,0,0,0-1.43,0,2.51,2.51,0,0,0-.84.64l-.13-.06a.54.54,0,0,0-.5.14h0a.5.5,0,0,0-.34.06h0l-.09-.1-.14-.1a1.72,1.72,0,0,0,.07-.21c0-.09.06-.19.1-.28a2,2,0,0,1,.93-.86,1.5,1.5,0,0,1,1.12,0,2.37,2.37,0,0,0,1.62,0,1.47,1.47,0,0,0,.7-.67,1.32,1.32,0,0,1,.37-.41h0l.31-.17a1.58,1.58,0,0,0,1-1.1.9.9,0,0,0,.19-.2A.58.58,0,0,0,194.72,20Zm1.2-2.28c.2.11.4.22.62.32s.27.11.43.17a2.77,2.77,0,0,1,.61.27,1.55,1.55,0,0,1,.21.59,3.47,3.47,0,0,0,.23.71,2,2,0,0,0,.69.73l.21.16a2.13,2.13,0,0,1,.43.52l.07.11v.08a1,1,0,0,0,.54.52.79.79,0,0,0,.3,0h0a.38.38,0,0,0,0,.15.39.39,0,0,0,.25.25.64.64,0,0,0,.72-.18h0a.73.73,0,0,1,.41.1,1.87,1.87,0,0,0,.32.15l.41.19a3.65,3.65,0,0,0,.71.29.61.61,0,0,0,.27,0,.21.21,0,0,1,.11,0,.79.79,0,0,1,.38.53,1.82,1.82,0,0,1-.16,1.17,0,0,0,0,0,0-.05,1.36,1.36,0,0,0-.67-.9.94.94,0,0,0-.37-.11h-.07a3.38,3.38,0,0,1-.52-.22l-.37-.17a.78.78,0,0,1-.2-.11,1.09,1.09,0,0,0-.86-.16h0a.9.9,0,0,0-.63-.22h0a.21.21,0,0,1-.06-.1l-.07-.1-.05-.09a2.21,2.21,0,0,0-.52-.58l-.21-.16a.89.89,0,0,1-.36-.36,2.16,2.16,0,0,1-.14-.43,1.73,1.73,0,0,0-.32-.78,1.87,1.87,0,0,0-.79-.41l-.29-.11c-.45-.22-.82-.41-1.15-.61h-.11a1.18,1.18,0,0,0,.12-.53A3.14,3.14,0,0,0,195.92,17.67ZM219.7,32.58a2.91,2.91,0,0,1,0,.59h0c-.31.21-.26.65-.21,1.09v.25l-.23.17-.21.16a.8.8,0,0,0-.33.84,2,2,0,0,0,.2.68,1,1,0,0,1,.13.56,1.59,1.59,0,0,1-.15.29,1.34,1.34,0,0,0-.27.84,1.07,1.07,0,0,0,.28.68.71.71,0,0,1,.1.14,1.69,1.69,0,0,1,.13.49,1.69,1.69,0,0,0,.08.39,1.92,1.92,0,0,1,.08.89.4.4,0,0,0-.12-.1.55.55,0,0,0-.75.16v0h0a.91.91,0,0,1-.8-.23l-.05-.05c-.43-.42-.81-.49-1.11-.2a.51.51,0,0,0-.13.61h0a.36.36,0,0,0-.13.32H216a.29.29,0,0,0,0-.13c0-.19-.2-.27-.37-.35h0a.67.67,0,0,0-.15-.51.94.94,0,0,0-.8-.32h-.1a1.85,1.85,0,0,1-.44-.18.28.28,0,0,0,0-.13v-.06a1.38,1.38,0,0,0,1.19.24.78.78,0,0,0,.2-.11.7.7,0,0,0,.28.26.36.36,0,0,0,.46-.14,2,2,0,0,0,.19-1.68,2.5,2.5,0,0,1-.05-.29,2.43,2.43,0,0,0-.17-.6l-.12-.18a.38.38,0,0,1-.11-.23.48.48,0,0,1,.11-.3,1.28,1.28,0,0,0,.17-.42,1.2,1.2,0,0,0-.21-.86,1.14,1.14,0,0,1-.15-.36v-.09h0l.09-.08a1.05,1.05,0,0,0,.4-.41,1.46,1.46,0,0,0,0-.51v-.22h0a.37.37,0,0,0,.17-.32V33a2.26,2.26,0,0,0,0-.52h3.21Zm-.2,9.21a.56.56,0,0,0-.16.67h0a.37.37,0,0,0-.15.35v.09a2.53,2.53,0,0,0-.55,0,.3.3,0,0,0-.08-.08l-.09-.09a1.7,1.7,0,0,0-.06-.31h0a.42.42,0,0,0-.11-.18.77.77,0,0,0-.15-.62l-.15-.14a1.57,1.57,0,0,0,.61,0,.53.53,0,0,0,.28-.16.87.87,0,0,0,.35.41.37.37,0,0,0,.29,0Zm-2.44-.57a.5.5,0,0,0,.05-.13h0a1.35,1.35,0,0,0,.27.2h-.33A.15.15,0,0,0,217.06,41.22Zm-8.25-2.06a.48.48,0,0,0-.14.44.4.4,0,0,0,.16.22h-.1a.48.48,0,0,0-.29,0,.46.46,0,0,0-.33.4H208a1.14,1.14,0,0,0-.55.24.46.46,0,0,0-.09.15.43.43,0,0,0,0,.16,1,1,0,0,0-.3.11,1,1,0,0,0-.39.46.29.29,0,0,1-.14.17,2.82,2.82,0,0,1-.69.24,4,4,0,0,0-.67.2l-.27.11-.4.17-.28.16a1.17,1.17,0,0,1-.27.15l-.21.08a4.58,4.58,0,0,0-1.12.58,2.79,2.79,0,0,1-.33.19,1.94,1.94,0,0,0-.4.22l-.13.1a1.8,1.8,0,0,1-.64.34,1.92,1.92,0,0,1-.63.05H200a.6.6,0,0,0-.5.22h-.31a5.13,5.13,0,0,1-1.16-.2,2.48,2.48,0,0,0-.61-.07,1.81,1.81,0,0,1-.52-.07,8.7,8.7,0,0,1-1.32-.59,3.32,3.32,0,0,0-1.39-.53h-2.42a2.38,2.38,0,0,1-1.46-.23.73.73,0,0,0-.29-.42.47.47,0,0,0-.26-.08h-.09a5.34,5.34,0,0,0-1.14-.65l-.11-.06-.17-.06a.31.31,0,0,0-.12-.16,2.07,2.07,0,0,0-.34-.15l-.25-.1h-.07a.49.49,0,0,0-.24,0h-.11a1.62,1.62,0,0,0-.44-.07h-.15a1.32,1.32,0,0,1-.38-.13h-.06a3.35,3.35,0,0,0-.54-.08,1.43,1.43,0,0,1-.46-.07H185a1.23,1.23,0,0,1,.41-.13.84.84,0,0,0,.65-.32,1,1,0,0,0,.07-.83v-.15l.1-.08.15-.12a1,1,0,0,0,.37-.8v-.05a.84.84,0,0,0,.37-.25,1.49,1.49,0,0,0,.32-1.09,2.94,2.94,0,0,1,0-.42,1.08,1.08,0,0,1,.09-.29,1,1,0,0,0,0-1.08,2.21,2.21,0,0,0-.58-.6,3.79,3.79,0,0,1-.38-.32,2.31,2.31,0,0,0-.39-.31c-.22-.15-.26-.19-.26-.41v-.2a1.27,1.27,0,0,0-.06-.72,1.51,1.51,0,0,0-.2-.45.9.9,0,0,1-.12-.24,3.54,3.54,0,0,1-.06-1.45,1.71,1.71,0,0,1,.09-.3,1.61,1.61,0,0,0,.12-1.06.53.53,0,0,0,.23-.13,1.14,1.14,0,0,0,.35-.62.9.9,0,0,1,.08-.23h.26a.92.92,0,0,0,.33,0,1.39,1.39,0,0,0,.28-.12l.2-.1h0a1,1,0,0,0,.62.51.85.85,0,0,0,.69-.23.94.94,0,0,0,.32-1.29l-.06-.09a1.06,1.06,0,0,1-.13-.39.87.87,0,0,0,.18.11.73.73,0,0,0,.56,0,.88.88,0,0,0,.41.17H190l.1.2a1.63,1.63,0,0,0,.24.4,1.13,1.13,0,0,0,0,1,1.42,1.42,0,0,1,.08.18l-.13.13h-.06l-.06-.08c-.07-.17-.24-.32-.62-.23a1.07,1.07,0,0,0-.36.2l-.07.05h-.1a.82.82,0,0,0-.56.22,1,1,0,0,0-.21.43,1.07,1.07,0,0,1-.07.19.39.39,0,0,0-.28.16.35.35,0,0,0-.06.14v.28a.33.33,0,0,0,.12.3,1.59,1.59,0,0,1-.1.39,1.68,1.68,0,0,0-.09.32,3.77,3.77,0,0,0,0,1.42,1.07,1.07,0,0,0,.13.31.49.49,0,0,1,.06.17.24.24,0,0,0,0,.12v.45a.85.85,0,0,0,.43.84l.21.17.31.31a1,1,0,0,1,.28.31v.32c0,.1-.07.21-.1.31a3.38,3.38,0,0,0,0,.45c0,.2,0,.34-.07.41h0a.76.76,0,0,0-.3.1.33.33,0,0,0-.16.3.37.37,0,0,0,.16.28l0,.06-.09.08a.62.62,0,0,0-.25.76v.14h-.07a1.35,1.35,0,0,0-.61.24c-.13.1-.47.38-.31.7.08.16.25.22.55.32H188a1.34,1.34,0,0,0,.52.1h.24a1.22,1.22,0,0,0,.55.17h.46a.38.38,0,0,0,.15,0h.11a1.19,1.19,0,0,0,.55.27l.2.07.12.06a3.71,3.71,0,0,1,.88.52.34.34,0,0,0,.27.1v.07a2.14,2.14,0,0,0,1.66.41h1.74a2.19,2.19,0,0,1,.82.3h0a7.76,7.76,0,0,0,1.12.46A1.89,1.89,0,0,0,198,42h.35a4.24,4.24,0,0,0,1,.15h.11a.61.61,0,0,0,.37-.1h.06a.7.7,0,0,0,.17-.13h.32A2.1,2.1,0,0,0,201,42a1.53,1.53,0,0,0,.66-.36l.13-.09a.78.78,0,0,1,.2-.11,2.71,2.71,0,0,0,.37-.21,3,3,0,0,1,.68-.36l.19-.07.32-.17.16-.1.28-.12.2-.08a2.77,2.77,0,0,1,.41-.12,2.82,2.82,0,0,0,.69-.24.84.84,0,0,0,.35-.37.29.29,0,0,1,.1-.12h.08a.75.75,0,0,0,.37-.15.44.44,0,0,0,.08-.11.43.43,0,0,0,0-.16.81.81,0,0,0,.41-.21h.08a2,2,0,0,0,.54-.11l.26-.07h.15a.77.77,0,0,0,.52,0,.33.33,0,0,0,.21-.28v.08c.12.2.55.22.91.19h0l-.06.1H209a.35.35,0,0,0-.28.29ZM190,25.33a2.09,2.09,0,0,1,.08-.23,1.61,1.61,0,0,1,.76-.7,1.22,1.22,0,0,1,.92,0,2.14,2.14,0,0,0,1.37,0,1.33,1.33,0,0,0,.61-.56,1.06,1.06,0,0,1,.28-.32l.26-.13a1.36,1.36,0,0,0,.84-.91h0a.39.39,0,0,0,.1-.08.5.5,0,0,0,0-.55l.24-.15a1.75,1.75,0,0,0,.29-.18,1.34,1.34,0,0,0,.64-1.06,3.05,3.05,0,0,0,0-.52l.45.23c.1,0,.23.09.36.14a3,3,0,0,1,.49.2,1.38,1.38,0,0,1,.16.47,2.49,2.49,0,0,0,.2.6,1.6,1.6,0,0,0,.59.62l.18.13a1.61,1.61,0,0,1,.36.42l.06.09v.05a.78.78,0,0,0,.47.44h.26v.11a.37.37,0,0,0,.24.23.6.6,0,0,0,.65-.14h0a.48.48,0,0,1,.3.09,1.77,1.77,0,0,0,.29.14l.33.15a3.76,3.76,0,0,0,.62.27.89.89,0,0,0,.23,0h.09a.59.59,0,0,1,.3.42,1.45,1.45,0,0,1-.19,1h0a1.13,1.13,0,0,0-.55-.73,1.15,1.15,0,0,0-.31-.11h-.07a2.48,2.48,0,0,1-.44-.2l-.28-.13-.16-.09a.91.91,0,0,0-.73-.16h0a.88.88,0,0,0-.54-.2h-.07l0,.06V24a1.71,1.71,0,0,0-.43-.46l-.18-.13c-.15-.1-.22-.14-.27-.25a1.59,1.59,0,0,1-.1-.33,1.61,1.61,0,0,0-.27-.65,1.66,1.66,0,0,0-.66-.34l-.22-.08c-.28-.13-.6-.29-.92-.47a.35.35,0,0,0-.37,0,.35.35,0,0,0-.14.35.6.6,0,0,0,.07.34,1.44,1.44,0,0,1,.09.58c0,.15,0,.23-.28.4l-.21.12a1.89,1.89,0,0,0-.45.28.47.47,0,0,0-.12.3.31.31,0,0,0,0,.19A.38.38,0,0,0,195,24c-.07.28-.12.3-.39.43l-.22.11a1.35,1.35,0,0,0-.45.44c-.08.12-.12.17-.18.18a1.12,1.12,0,0,1-.7-.05,1.66,1.66,0,0,0-1.2,0A2,2,0,0,0,191,26a.38.38,0,0,0-.06.13.43.43,0,0,0-.16.05l-.11.08h0a1.57,1.57,0,0,0-.28-.44.77.77,0,0,0-.36-.15h-.07C189.92,25.52,190,25.42,190,25.33Zm20.37,12a.43.43,0,0,0-.08.49h0l0,.07a1.48,1.48,0,0,0-.42,0h0a.5.5,0,0,0-.07-.51.65.65,0,0,0-.63-.21.44.44,0,0,0-.26.24h-.1a.75.75,0,0,0-.21-.26h0a.53.53,0,0,0-.08-.17.34.34,0,0,0-.21-.14h0a.33.33,0,0,0-.24-.29l-.13,0a.72.72,0,0,0,.54,0h.18a.31.31,0,0,0,.36-.15,1.26,1.26,0,0,0,.16-1,3.5,3.5,0,0,1-.07-.45.2.2,0,0,0,0-.11v0a.94.94,0,0,1-.1-.23.43.43,0,0,1,0-.16.33.33,0,0,0,0-.14.43.43,0,0,0,0-.16,1.2,1.2,0,0,0-.31-.4,1,1,0,0,1-.17-.18.41.41,0,0,0,.11-.24.81.81,0,0,0,0-.22v-.07a.38.38,0,0,0,.08-.23v-.29h2.83a3.38,3.38,0,0,1,.45,0,.88.88,0,0,1,0,.23c-.21.17-.17.48-.12.76v.08h-.06c-.06.06-.11.09-.15.14a.53.53,0,0,0-.09.6h0a1.26,1.26,0,0,0,.26.45c.05.07.15.2.14.24a.29.29,0,0,1,0,.13,1.06,1.06,0,0,0-.12.55,1,1,0,0,0,.2.5v.06a1.22,1.22,0,0,1,0,.27.53.53,0,0,0,.06.31,1.1,1.1,0,0,1,.05.4h0a.46.46,0,0,0-.57.24h0a.55.55,0,0,1-.37-.1h0a.63.63,0,0,0-.83.09Zm-1.22.11h0Zm-2.55.6h-.15a.41.41,0,0,0-.29.32h0a1,1,0,0,0-.44.19.41.41,0,0,0-.1.21h0l-.18.07a.93.93,0,0,0-.34.37.22.22,0,0,1-.1.11,1.8,1.8,0,0,1-.51.17,3.24,3.24,0,0,0-.53.16l-.18.07-.33.15-.21.12a1,1,0,0,1-.23.12l-.18.08a3.47,3.47,0,0,0-.83.44,2,2,0,0,1-.25.14,2,2,0,0,0-.32.18l-.13.1a1.12,1.12,0,0,1-.44.24,1.4,1.4,0,0,1-.5,0H200a.62.62,0,0,0-.43.18h0l-.09,0h-.11a4.63,4.63,0,0,1-.91-.12,1.93,1.93,0,0,0-.48,0,1.28,1.28,0,0,1-.39,0,6.23,6.23,0,0,1-1-.42h0a2.69,2.69,0,0,0-1.07-.38,4.34,4.34,0,0,0-.51,0h-.61a4.21,4.21,0,0,0-.71,0,1.75,1.75,0,0,1-1.08-.16.72.72,0,0,0-.27-.33.36.36,0,0,0-.3-.05,6,6,0,0,0-.89-.5l-.11-.06-.23-.08a.4.4,0,0,0-.13-.13l-.27-.09a1.17,1.17,0,0,1-.24-.09h0a.45.45,0,0,0-.23,0h-.09a1.5,1.5,0,0,0-.42-.09h-.1a1,1,0,0,1-.32-.12h-.06a2.76,2.76,0,0,0-.4-.06,1.41,1.41,0,0,1-.29,0h.13a.66.66,0,0,0,.53-.27.85.85,0,0,0,0-.68v-.07h0a.47.47,0,0,0,.12-.09.77.77,0,0,0,.28-.66h0a.55.55,0,0,0,.2-.17,1.19,1.19,0,0,0,.24-.86,1.6,1.6,0,0,1,0-.31.81.81,0,0,1,.07-.22.88.88,0,0,0,0-.86,2,2,0,0,0-.42-.49l-.27-.26a2.55,2.55,0,0,0-.3-.26c-.16-.12-.16-.12-.15-.25v-.14a.94.94,0,0,0,0-.62,1.06,1.06,0,0,0-.12-.34.89.89,0,0,1-.08-.17,3.07,3.07,0,0,1,0-1.13,2,2,0,0,1,.07-.23,1.24,1.24,0,0,0,.07-.89l.11-.09a1,1,0,0,0,.26-.5.43.43,0,0,1,0-.16h0a.8.8,0,0,0,.3-.06l.21-.13.09-.07a.68.68,0,0,0,.46.31.7.7,0,0,0,.57-.19.77.77,0,0,0,.28-1l0-.06a.52.52,0,0,1-.06-.42.53.53,0,0,0,.25-.05l.07-.05a.48.48,0,0,0,.22.41.7.7,0,0,0,.35.12V28a.9.9,0,0,0,.46.5.34.34,0,0,0,.2,0v.06a1,1,0,0,0,0,.81v.07h0a.25.25,0,0,0-.12-.11.45.45,0,0,0-.45,0,1.74,1.74,0,0,0-.29.25.64.64,0,0,0-.41.22,1.3,1.3,0,0,0-.14.32.44.44,0,0,1-.06.16.39.39,0,0,0-.16.39v.17a.41.41,0,0,0,.08.19.32.32,0,0,1-.06.22,2.33,2.33,0,0,0-.07.25,3.35,3.35,0,0,0,0,1,1.05,1.05,0,0,0,.06.24v.08a.28.28,0,0,0,0,.18v.25a.65.65,0,0,0,.28.67l.13.12.19.22c.09.09.1.09.11.16a.31.31,0,0,0,.05.1v.1a1.43,1.43,0,0,0-.09.27,1.93,1.93,0,0,0,0,.34.41.41,0,0,1,0,.22.37.37,0,0,0-.18.08.33.33,0,0,0-.12.28.28.28,0,0,0,.08.2h0a.52.52,0,0,0-.18.58,1,1,0,0,0-.4.19c-.09.08-.35.31-.21.58s.22.18.41.25h.06a.68.68,0,0,0,.37.07h.1a1.21,1.21,0,0,0,.42.13H192a.24.24,0,0,0,.12,0h.14a1.25,1.25,0,0,0,.41.14h0A1.27,1.27,0,0,0,193,38l.16.06h.12a3.67,3.67,0,0,1,.6.36.25.25,0,0,0,.2.09h.15a1.49,1.49,0,0,0,1.2.3h.78a2.29,2.29,0,0,1,.37,0,1.37,1.37,0,0,1,.55.18h.06a4,4,0,0,0,.82.29,1.55,1.55,0,0,0,.43,0,1,1,0,0,1,.24,0,6,6,0,0,0,.73,0h0a.57.57,0,0,0,.38-.09h.05l.13-.09h.25a1.82,1.82,0,0,0,.52-.08,1.15,1.15,0,0,0,.46-.25l.11-.09.13-.07a1.56,1.56,0,0,0,.28-.16,2.13,2.13,0,0,1,.42-.23l.15-.06.25-.14.11-.06.32-.15.27-.07a2.16,2.16,0,0,0,.49-.16.77.77,0,0,0,.28-.26s0-.06.06-.07h.06a.51.51,0,0,0,.31-.11.26.26,0,0,0,.11-.14.11.11,0,0,0,0-.08.57.57,0,0,0,.21-.13,1,1,0,0,0,.39-.08h.13a.54.54,0,0,0,.43,0,.29.29,0,0,0,.15-.16h0a.27.27,0,0,0,.09.12c.2.16.92,0,.93,0a.74.74,0,0,1,.41.1h0a1.05,1.05,0,0,0-.22.3h-.16a.31.31,0,0,0-.26.23h0a.42.42,0,0,0-.09.59A.23.23,0,0,0,206.6,38ZM195.81,23.79l.17-.09a1.49,1.49,0,0,0,.3-.18,1.15,1.15,0,0,0,.57-.91,2.29,2.29,0,0,0,0-.37l.29.14.3.11.35.14a1.12,1.12,0,0,1,.12.35,2.91,2.91,0,0,0,.16.5,1.36,1.36,0,0,0,.51.5l.15.11a1,1,0,0,1,.28.31l.07.1a.66.66,0,0,0,.41.34.61.61,0,0,0,.19,0v.07a.34.34,0,0,0,.23.22.58.58,0,0,0,.58-.11.53.53,0,0,1,.2.07.89.89,0,0,0,.25.14l.25.12a3.25,3.25,0,0,0,.54.23.49.49,0,0,0,.17,0H202a.45.45,0,0,1,.22.32,1.07,1.07,0,0,1-.14.8l-.08.12v.08a.92.92,0,0,0-.41-.5l-.25-.1h-.06a2.64,2.64,0,0,1-.38-.18l-.17-.08-.13-.08a.72.72,0,0,0-.6-.16h0a.83.83,0,0,0-.45-.17h-.06v-.05l-.05-.06a1.22,1.22,0,0,0-.33-.31l-.15-.1c-.11-.06-.15-.09-.18-.14l-.06-.23A.84.84,0,0,0,198,24l-.16-.06a6.16,6.16,0,0,1-.68-.34.33.33,0,0,0-.45.11.29.29,0,0,0,0,.22.47.47,0,0,0,0,.26,1.3,1.3,0,0,1,.05.44.39.39,0,0,1-.21.3l-.2.09a1.65,1.65,0,0,0-.37.2.41.41,0,0,0-.13.23v.16a.45.45,0,0,0-.11.17c0,.17-.06.17-.27.27l-.17.07a1,1,0,0,0-.36.33c-.05.07-.07.09-.09.1a.92.92,0,0,1-.49-.05,1.43,1.43,0,0,0-1,0,1.67,1.67,0,0,0-.72.67.4.4,0,0,1-.09.24.09.09,0,0,0,0,.07v-.08a1,1,0,0,0-.23-.34.64.64,0,0,0-.3-.11h0a.88.88,0,0,0,0-.6,1.13,1.13,0,0,0-.12-.21,1.57,1.57,0,0,1,.49-.39,1,1,0,0,1,.72,0,1.76,1.76,0,0,0,1.11,0,1,1,0,0,0,.52-.44.83.83,0,0,1,.2-.22l.2-.1a1.16,1.16,0,0,0,.71-.71h.09A.44.44,0,0,0,195.81,23.79Zm10.79,5.67a2.28,2.28,0,0,0,.6.84l.19.21.11.15a1.4,1.4,0,0,0,.66.59.67.67,0,0,0,.2,0v.05a1.11,1.11,0,0,0,.13.4h0a5.28,5.28,0,0,1-.86-.1,3.5,3.5,0,0,1-.56-.13h-.13a.42.42,0,0,0-.09-.14v-.06a.56.56,0,0,0-.24-.45h0a.71.71,0,0,0-.29-.05h0a2,2,0,0,1-.18-.21l-.11-.14-.17-.18c-.07-.08-.22-.23-.28-.32l.09-.14v-.27a.8.8,0,0,0,.25-.11.31.31,0,0,0,.1,0l.22-.16.12-.06a.67.67,0,0,0,.2,0h0a.93.93,0,0,0,0,.33Zm1,6.28a.38.38,0,0,0-.28.59h-.23a.45.45,0,0,0-.07-.25.56.56,0,0,0-.53-.21.32.32,0,0,0-.22.17.55.55,0,0,0-.17-.2.21.21,0,0,0-.06-.1.38.38,0,0,0-.26-.14.43.43,0,0,0-.35,0h0a.69.69,0,0,0-.37.32H205a.32.32,0,0,0-.24.17.35.35,0,0,0-.12.3h0a.36.36,0,0,0-.25.23,1.3,1.3,0,0,0-.32.14A.31.31,0,0,0,204,37h0a.73.73,0,0,0-.29.26s0,.06-.08.08a.9.9,0,0,1-.32.09,2.38,2.38,0,0,0-.38.11l-.37.18-.12.07-.2.1-.14.06a2.35,2.35,0,0,0-.56.31l-.15.08-.24.14-.14.1a.61.61,0,0,1-.24.15,1.09,1.09,0,0,1-.36,0H200a.58.58,0,0,0-.33.14h-.07a2.58,2.58,0,0,1-.68,0h-.61a3.66,3.66,0,0,1-.7-.25h-.06a2,2,0,0,0-.76-.24h-1.24a1.06,1.06,0,0,1-.7-.1.72.72,0,0,0-.25-.24.31.31,0,0,0-.23,0h0a4.71,4.71,0,0,0-.62-.35h-.11a.82.82,0,0,0-.26-.1h0l-.12-.08h-.05a.32.32,0,0,0-.25-.06h-.13a.4.4,0,0,0-.19-.07h0a1.65,1.65,0,0,0-.44-.1.68.68,0,0,1-.2-.07h-.15l.11-.11a.67.67,0,0,0,0-.52h0a.63.63,0,0,0,.2-.52h0V36A.93.93,0,0,0,192,35a.67.67,0,0,1,0-.2.24.24,0,0,1,.05-.14.64.64,0,0,0,0-.63.83.83,0,0,0-.25-.41,2.11,2.11,0,0,1-.16-.18,1.45,1.45,0,0,0-.22-.21h-.06v-.14a.74.74,0,0,0,0-.51.81.81,0,0,0,0-.22.17.17,0,0,1,0-.1,2.89,2.89,0,0,1,0-.83v-.16c.06-.19.18-.53,0-.77h0a.89.89,0,0,0,.18-.38v-.1h0a.48.48,0,0,0,.17,0,.38.38,0,0,0,.13-.09.39.39,0,0,1,.08-.1.47.47,0,0,0,.25.11.55.55,0,0,0,.46-.15.61.61,0,0,0,.23-.83c-.06-.16-.06-.22,0-.29a2.39,2.39,0,0,1,.13-.21h0a.44.44,0,0,0,.26.53.34.34,0,0,0,.2,0,.61.61,0,0,0,.35.3c.31.09.53-.07.67-.48v-.08a.59.59,0,0,1,.25-.22h.33a1.37,1.37,0,0,0,.57,0,.61.61,0,0,0,.35-.21h.09a.9.9,0,0,0,.4-.26.35.35,0,0,0,.31-.37.06.06,0,0,1,0,0h.07a1,1,0,0,0,.33-.13.89.89,0,0,0,.4-.58v-.13h0l.16.06h.1v.09a1.31,1.31,0,0,0,.09.28.69.69,0,0,0,.35.3h.08l.16.11.06.05a.33.33,0,0,0,.23.1h.06a.27.27,0,0,0,.19.17.59.59,0,0,0,.37,0h0a.66.66,0,0,0,.17.12,4,4,0,0,0,.46.24h0l.09.05c.1.06.09.3,0,.42a.86.86,0,0,0-.14.82v.09l.11.17a2.9,2.9,0,0,0,.27.41.73.73,0,0,0,.8.26h.1a.51.51,0,0,0-.24.07h-.14a.49.49,0,0,0-.14-.11h-.14a.53.53,0,0,0-.26-.15h-.45l-.07-.1h0v-.07a.69.69,0,0,0-.17-.83h0l-.13-.09a1.13,1.13,0,0,1-.21-.12h0a.57.57,0,0,0-.32-.2h-.06a.64.64,0,0,0-.26-.13h0a.36.36,0,0,0-.25,0h0a1,1,0,0,0-.07-.15v-.06a.55.55,0,0,0-.27-.12H198l-.14-.05a.32.32,0,0,0-.3,0,.31.31,0,0,0-.14.26h0a.38.38,0,0,1,0,.21c0,.05-.05.1-.05.11h-.09a.67.67,0,0,0-.31.07.54.54,0,0,0-.15.15h0a.26.26,0,0,0-.19.13h-.14a1,1,0,0,0-.68,0,1,1,0,0,0-.34.29h0a.4.4,0,0,0-.23-.23.42.42,0,0,0-.27,0h-.17a.86.86,0,0,0-.36.32.6.6,0,0,0-.1.41.34.34,0,0,0-.17.05.2.2,0,0,0-.11.11l-.06.06a.72.72,0,0,0-.15.27.43.43,0,0,0-.15.18.48.48,0,0,0,0,.17V31h0l-.06.1a.37.37,0,0,0,.06.39v.12h0a.11.11,0,0,1,0,.08,1.09,1.09,0,0,0-.05.17,2.8,2.8,0,0,0,0,.41v.19a.33.33,0,0,0,0,.14.33.33,0,0,0,0,.24h0v.06a.48.48,0,0,0,.11.52s.05,0,.06.06v.14a.24.24,0,0,0,0,.12h0a.86.86,0,0,0-.07.21.62.62,0,0,0,0,.27h0v.07h0a.32.32,0,0,0,0,.27.54.54,0,0,0,0,.18l-.1.07v0a.35.35,0,0,0-.07.45.42.42,0,0,0,.25.16h0a.46.46,0,0,0,.23.06.79.79,0,0,0,.26.08.44.44,0,0,1,.16.06.15.15,0,0,0,.13,0,.8.8,0,0,0,.47.15h.46l.12.07.34.19a.23.23,0,0,0,.12.06.25.25,0,0,0,.17,0h0a1,1,0,0,0,.73.17h.58l.27.07h.1a1.86,1.86,0,0,0,.52.11h1a.5.5,0,0,0,.27-.08h0l.11,0H200a1.53,1.53,0,0,0,.37-.08.77.77,0,0,0,.27-.17l.07-.07h.05L201,36l.18-.11h.18l.16-.08h.27a1.4,1.4,0,0,0,.29-.09.66.66,0,0,0,.2-.14h0a.43.43,0,0,0,.27-.06.27.27,0,0,0,.14-.2h.12a.3.3,0,0,0,.3-.06.66.66,0,0,0,.28,0,.33.33,0,0,0,.25.08h0a1.88,1.88,0,0,0,.33,0l.13,0,.13.06a.46.46,0,0,0,.36.06.3.3,0,0,0,.22-.26.32.32,0,0,0-.11-.27h0a.67.67,0,0,0,.23-.1.47.47,0,0,0,.1-.1.34.34,0,0,0,.21-.14.82.82,0,0,0,.14-.59v-.21a.61.61,0,0,0,0-.19v-.35h0a.31.31,0,0,0-.11-.2,2.11,2.11,0,0,0-.3-.16l-.22-.12h0v-.07h0a.17.17,0,0,0,0-.1h0a.66.66,0,0,0,0-.28,2.81,2.81,0,0,0,.49.16,5.23,5.23,0,0,0,.87.13h2v.06a.68.68,0,0,0-.06.59.76.76,0,0,0-.11.14.45.45,0,0,0,0,.45v.06a1.48,1.48,0,0,0,.28.33l.12.12a.94.94,0,0,0,0,.41,1.4,1.4,0,0,0,.16.4c0,.15,0,.3.07.45v.19a.38.38,0,0,0-.41.25.25.25,0,0,1-.17,0,.46.46,0,0,0-.4-.28Zm-11.21-10,.12,0a1.82,1.82,0,0,0,.31-.16,1.05,1.05,0,0,0,.49-.75v-.24l.13.06.23.09a.92.92,0,0,1,.23.09A1.72,1.72,0,0,1,198,25a1.28,1.28,0,0,0,.13.39.86.86,0,0,0,.42.4l.11.08a1,1,0,0,1,.21.19l.06.07a.48.48,0,0,0,.33.24h.14a.28.28,0,0,0,.21.2.55.55,0,0,0,.5-.06.18.18,0,0,1,.09.06l.21.12.16.08A3.14,3.14,0,0,0,201,27a.24.24,0,0,0,.12,0h.07a.26.26,0,0,1,.14.21.77.77,0,0,1-.08.54l-.05.08a1.68,1.68,0,0,0-.2.34.76.76,0,0,0-.27-.32l-.2-.1h0l-.38-.2-.08-.06a.62.62,0,0,0-.47-.18h0a.77.77,0,0,0-.36-.15h-.07a1.2,1.2,0,0,0-.26-.18l-.13-.07h-.06v-.12a.84.84,0,0,0-.14-.37h0a.91.91,0,0,0-.38-.19h-.15c-.13-.06-.27-.12-.39-.19a.33.33,0,0,0-.33,0,.31.31,0,0,0-.14.29.48.48,0,0,0,0,.17.76.76,0,0,1,0,.3.3.3,0,0,1-.14.2l-.15.06a1,1,0,0,0-.32.13.45.45,0,0,0-.15.19v.07a.33.33,0,0,0-.16.19c0,.07,0,.07-.16.12H196a.66.66,0,0,0-.29.23.71.71,0,0,1-.29,0,1,1,0,0,0-.74,0,1.32,1.32,0,0,0-.54.48v.09l-.08-.09a.37.37,0,0,0-.14-.07h0a1,1,0,0,0,0-.35.57.57,0,0,0-.29-.3.46.46,0,0,0-.36.07h0v-.13a.69.69,0,0,1,.05-.13.86.86,0,0,1,.42-.38.77.77,0,0,1,.52,0,1.54,1.54,0,0,0,.85,0,.79.79,0,0,0,.43-.33.49.49,0,0,1,.12-.13h0l.15-.06a1,1,0,0,0,.56-.49.39.39,0,0,0,.21-.15.42.42,0,0,0-.25-.35Zm-.82,9.83a.36.36,0,0,0-.2-.06h-.32l-.09-.06a.29.29,0,0,0-.13,0,1.28,1.28,0,0,0-.33-.11h-.05a.53.53,0,0,0,0-.25.47.47,0,0,0,.06-.33v-.1a.71.71,0,0,0,0-.29v0h0a.45.45,0,0,0,.06-.36.55.55,0,0,0-.15-.46.38.38,0,0,0-.09-.13.55.55,0,0,0,0-.4v-.12a1.13,1.13,0,0,0,0-.26,1.5,1.5,0,0,1,0-.3v-.08a.62.62,0,0,0,0-.62l-.06-.08a1.21,1.21,0,0,0,0-.18h0l.09-.08a.2.2,0,0,0,.06-.15h0a.41.41,0,0,0,.31-.11.46.46,0,0,0,.22-.52.29.29,0,0,1,0-.13h0a.36.36,0,0,0,.3.27.21.21,0,0,0,.11,0h0a.29.29,0,0,0,.13,0c.15,0,.34,0,.46-.37h0l.09-.06h.31a.42.42,0,0,0,.31,0,.83.83,0,0,0,.21-.06h0a.32.32,0,0,0,.42-.17.59.59,0,0,0,0-.13h0a.76.76,0,0,0,.33-.08.8.8,0,0,0,.31-.39h0a.43.43,0,0,0,.32.2h.28a.41.41,0,0,0,.11.07h.22l.12.11a1.55,1.55,0,0,0,.32.2h0a.14.14,0,0,1,0,.09.67.67,0,0,0-.06.48.25.25,0,0,0,.06.15l.06.09a1.2,1.2,0,0,0,.17.21.54.54,0,0,0,.4.15h.2a.32.32,0,0,0,.33.22h0l.1.1a.45.45,0,0,0,.52,0h.12a1.07,1.07,0,0,0,.16.14h0a.5.5,0,0,0,.22.16h0a.34.34,0,0,0,.06.15l.12.11a1.33,1.33,0,0,0,.37.2,1.43,1.43,0,0,0,.54.13H204a.55.55,0,0,0,0,.31h0a.3.3,0,0,0,0,.23.55.55,0,0,0,.19.18h.05a2.11,2.11,0,0,0,.33.18l.11,0h0V34h-.05a.45.45,0,0,0-.2.23h0a.31.31,0,0,0-.23,0,.36.36,0,0,0-.2.2.54.54,0,0,0,0,.18h0a.4.4,0,0,0-.5-.13h0a.4.4,0,0,0-.13-.13.41.41,0,0,0-.13-.1h-.15a.33.33,0,0,0-.24,0,.45.45,0,0,0-.21.15h0a.28.28,0,0,0-.15.08.3.3,0,0,0-.14.19h0a.29.29,0,0,0-.14.13h-.15a.31.31,0,0,0-.13.17l-.15.11a.06.06,0,0,1-.06,0,.33.33,0,0,1-.14,0,1,1,0,0,0-.25.06l-.18.1H201l-.1,0h-.08a1.75,1.75,0,0,0-.29.18h-.07l-.16.09-.12.11a.16.16,0,0,1-.08.06h-.42a.5.5,0,0,0-.23.09h-.8a1.23,1.23,0,0,1-.38-.08h-.09a2.07,2.07,0,0,0-.43-.1h-1l-.16-.09h-.22a2.43,2.43,0,0,0-.35-.2l-.11-.06a.85.85,0,0,0-.22-.09Zm1.16-5.92.06.3h0Zm4.49,1.43V31h0s0,0,0,0Zm2.86.75h-.49a2.41,2.41,0,0,1-.38,0,1.07,1.07,0,0,1-.39-.1.56.56,0,0,1-.17-.09.42.42,0,0,0-.08-.18h0a.31.31,0,0,0-.18-.21h-.14l-.06-.06-.07-.06h0a.48.48,0,0,0,0-.17l-.05-.06a.25.25,0,0,0,.17,0l.15-.1.12-.08a.42.42,0,0,0,.17.1.57.57,0,0,0,.55-.1h0v.05a1.25,1.25,0,0,0,.36.46l.09.1.06.07a1,1,0,0,0,.37.31h.06a.35.35,0,0,0,.07.15h0v.05Zm.46-.78h0a.74.74,0,0,0-.21,0,.24.24,0,0,1-.08-.09l-.09-.1-.11-.22a.93.93,0,0,1-.14-.14h0a.48.48,0,0,0,0-.17.71.71,0,0,0-.09-.28A.5.5,0,0,1,204,30a.45.45,0,0,0,.3.05h.07a.74.74,0,0,0,.42-.17h0a.57.57,0,0,0,0,.26,1.63,1.63,0,0,0,.47.66l.14.15.09.11a1.12,1.12,0,0,0,.5.44h.11a.76.76,0,0,0,.1.3H206a5.26,5.26,0,0,1-.78-.12,1.32,1.32,0,0,1-.38-.13h-.05a10.43,10.43,0,0,1-.29-.47Zm-2.89-1a.57.57,0,0,0-.26,0h-.15c-.08-.11-.16-.23-.23-.35l-.09-.15a.48.48,0,0,1,.09-.3.74.74,0,0,0,0-.21h0l.11.19a6,6,0,0,0,.41.69.39.39,0,0,0,.08.1Zm.82-.42c-.26.06-.26.05-.33,0a5,5,0,0,1-.38-.63l-.1-.18c-.07-.19,0-.23.12-.46h0l.06.11c.2.37.39.71.61,1.06l.09.12Zm7.7,2.05a3.35,3.35,0,0,1-.69-.13h-.22a.86.86,0,0,0-.1-.16v-.13a.74.74,0,0,0-.29-.55.75.75,0,0,0-.36-.07h0a1.11,1.11,0,0,1-.29-.32l-.13-.17a2.62,2.62,0,0,0-.22-.25,3,3,0,0,1-.42-.52.69.69,0,0,0,.16-.22.09.09,0,0,0,0-.07,1.31,1.31,0,0,0,0-.28.74.74,0,0,0,.33.05,1,1,0,0,0,.48-.18,1.22,1.22,0,0,0,0,.27,2.73,2.73,0,0,0,.71,1c.1.1.18.2.24.27l.14.19a1.73,1.73,0,0,0,.78.71h.28v.13a1.25,1.25,0,0,0,.15.46ZM203,29.1c-.21-.33-.39-.67-.58-1l-.06-.1a.49.49,0,0,1,.08-.53v.1c.26.5.53,1,.82,1.47a.83.83,0,0,0,.13.18C203.14,29.28,203.12,29.25,203,29.1Zm-13.77-3.89a.92.92,0,0,1-.09.23h0a.51.51,0,0,1-.19-.22v0a.31.31,0,0,0,.23,0h0l0,0ZM210,39h0c.07-.17.07-.17.2-.22h.05a.33.33,0,0,0,.11.21h-.06a.28.28,0,0,0-.18,0h-.06a.35.35,0,0,0-.17.19h0Zm3.06.42h0a.76.76,0,0,0-.44-.11.59.59,0,0,0-.1-.53.82.82,0,0,0-.72-.27.42.42,0,0,0-.29.21.06.06,0,0,0,0,.06h0a.31.31,0,0,0,.13-.31.33.33,0,0,0-.26-.29,1.63,1.63,0,0,1-.37-.13V38h0a1.08,1.08,0,0,0,.88.08.33.33,0,0,0,.13-.07.44.44,0,0,0,.2.13.31.31,0,0,0,.41-.14,1.65,1.65,0,0,0,.18-1.32.56.56,0,0,0-.05-.27,3.15,3.15,0,0,0-.09-.42h0l-.07-.12a.44.44,0,0,1-.1-.22.64.64,0,0,1,.06-.18,1.08,1.08,0,0,0,.11-.36,1,1,0,0,0-.27-.7.82.82,0,0,1-.16-.25h0a.69.69,0,0,0,.29-.36.81.81,0,0,0,0-.38v-.13a.33.33,0,0,0,.15-.29.28.28,0,0,1,0-.13v-.35h3.24a2.67,2.67,0,0,1,0,.4h0c-.27.18-.22.56-.18.93v.17l-.14.1-.17.15a.68.68,0,0,0-.22.74,2,2,0,0,0,.23.57.8.8,0,0,1,.14.39.88.88,0,0,1-.1.22,1.24,1.24,0,0,0-.2.7,1,1,0,0,0,.25.58.36.36,0,0,0,.07.1,2.74,2.74,0,0,1,.09.39.61.61,0,0,0,.07.35,1.69,1.69,0,0,1,.06.63h-.06a.5.5,0,0,0-.67.19h0a.72.72,0,0,1-.58-.17h0c-.46-.43-.77-.3-.95-.12a.47.47,0,0,0-.11.55h0a.23.23,0,0,0-.07.1Zm-.5-7.86a5.18,5.18,0,0,1-.79-.11h-.43a1.74,1.74,0,0,0-.11-.18v-.19a.93.93,0,0,0-.33-.64.84.84,0,0,0-.41-.08h-.08A1.53,1.53,0,0,1,210,30l-.16-.21c-.06-.08-.16-.19-.27-.31a3.35,3.35,0,0,1-.54-.7h0a.8.8,0,0,0,.2-.28v-.05h0a2.57,2.57,0,0,0,.54-.34H210a1.31,1.31,0,0,0,0,.28,3.12,3.12,0,0,0,.83,1.22c.11.13.22.24.29.33s.1.15.16.22a2,2,0,0,0,.9.84.81.81,0,0,0,.31,0h.06v.2a1.8,1.8,0,0,0,.17.51Zm-8.66-3c-.28-.46-.54-.94-.78-1.4a.54.54,0,0,1,0-.6.49.49,0,0,0,.06.17,19.43,19.43,0,0,0,1,1.76,1.44,1.44,0,0,0,.18.25c-.24.11-.29.06-.42-.14Zm-16.62-4.9c0,.1-.05.19-.07.29a1.63,1.63,0,0,1-.11-.23l-.12-.24a.41.41,0,0,0,.22,0l.14-.08a1.51,1.51,0,0,1,0,.3Zm25,16.7v-.07h.43v.06h0l.2.2h0a1,1,0,0,0-.25-.06h-.23a.39.39,0,0,0-.17.21h0l-.3,0a1.4,1.4,0,0,0,.38-.35Zm1.29.64h0a.34.34,0,0,1,0,.31h0v-.14a.49.49,0,0,0,.06-.17Zm.08.27a.47.47,0,0,0-.05.1h0Zm.83-.54a.59.59,0,0,0,.18-.13h0l-.07.07ZM221,44.23h.09a.64.64,0,0,0,.25-.15.4.4,0,0,0,.1-.39.39.39,0,0,0-.31-.26h-.07a.76.76,0,0,0-.17-.35h0a1.67,1.67,0,0,0,1.06.1.76.76,0,0,0,.37-.21,1.23,1.23,0,0,0,.17.32.65.65,0,0,0-.24.44.45.45,0,0,0,.06.28h0a.39.39,0,0,0-.14.17.4.4,0,0,0-.12.1l-.28.18h-.11l-.08.06h-.28a1.13,1.13,0,0,0-.24-.25Zm-.88-1.61v-.1h0l.07.07h0ZM223,46.28Zm.81-.39H224l-.13,0Zm1.56-.65v.14a.75.75,0,0,0-.45.16h-.07a.48.48,0,0,0,0-.17.4.4,0,0,0-.31-.25A3.35,3.35,0,0,1,224,45a1,1,0,0,0-.2-.53l-.07-.09a2.08,2.08,0,0,0,1.73.44h.14a.63.63,0,0,0-.28.38Zm-2.06-1.12V44a1.85,1.85,0,0,1,.14.14l.07.06h0l-.26-.11ZM214.2,31.53h-.55a1.13,1.13,0,0,0-.12-.21,1.1,1.1,0,0,1-.06-.26,1,1,0,0,0-.36-.73.85.85,0,0,0-.44-.09h-.11a1.58,1.58,0,0,1-.53-.56l-.18-.25c-.08-.1-.19-.23-.32-.37a3.3,3.3,0,0,1-.65-.87v-.11a.75.75,0,0,0,.23-.32h0v-.05a.77.77,0,0,0,.37,0,1,1,0,0,0,.29-.11v.18a3.54,3.54,0,0,0,1,1.41c.13.15.25.28.33.39l.19.26a2.3,2.3,0,0,0,1,1,.81.81,0,0,0,.38,0h.06a2.86,2.86,0,0,1,.07.28,1.52,1.52,0,0,0,.17.56Zm-9.28-3.35c-.3-.49-.58-1-1-1.7a.77.77,0,0,1,0-.63A1.08,1.08,0,0,0,204,26c.39.77.76,1.44,1.13,2.07a3.71,3.71,0,0,0,.23.32c-.27.06-.36,0-.49-.25Zm-7.69-10.74a.8.8,0,0,1-.35-.13c-.5-.25-.93-.48-1.34-.71a1.58,1.58,0,0,0,.05-.38,3.35,3.35,0,0,0-.14-.83l.81.41a4.19,4.19,0,0,0,.49.2,3.28,3.28,0,0,1,.74.33,1.83,1.83,0,0,1,.25.71,3.65,3.65,0,0,0,.23.73A3.28,3.28,0,0,0,197.23,17.44Zm-11.74,4.3a1.18,1.18,0,0,1-.09.46l-.06.23a.91.91,0,0,0-.07-.14c.06-.16.11-.32.16-.46v-.06Zm29,20.34a9.73,9.73,0,0,0,1.08,0h0a.27.27,0,0,0-.07.08.8.8,0,0,0-.3-.06h-.11a.45.45,0,0,0-.25.18v.1h-.09a3.06,3.06,0,0,1-.74.09.73.73,0,0,0,.46-.43Zm5.11,2.06-.14.06Zm11.72,5.24h.06a.54.54,0,0,0,0,.18H231a.47.47,0,0,0,.28-.18Zm-3-2.63h-.27a.77.77,0,0,0-.45.11,6.18,6.18,0,0,1-.83-.27,1,1,0,0,0-.24-.68,1,1,0,0,0-.21-.21.67.67,0,0,0,0-.2,3.07,3.07,0,0,1,.26.25l.07.06a2.46,2.46,0,0,0,1.73.74.48.48,0,0,0,0,.2ZM216.5,31.53h-.72a1.27,1.27,0,0,0-.12-.23,1.67,1.67,0,0,1-.08-.32,1.25,1.25,0,0,0-.39-.82.92.92,0,0,0-.49-.1h-.15c-.23-.08-.44-.38-.64-.67L213.7,29c-.12-.15-.24-.29-.37-.43a3.89,3.89,0,0,1-.76-1,.17.17,0,0,1,0-.1l.06-.07a.64.64,0,0,0,.13-.15,1.76,1.76,0,0,0,.67-.4h.07a1.22,1.22,0,0,0,0,.27,4.17,4.17,0,0,0,1.08,1.6l.38.44.21.3a2.6,2.6,0,0,0,1.15,1.1,1.48,1.48,0,0,0,.42,0h.1a2.37,2.37,0,0,1,.09.36,2.15,2.15,0,0,0,.18.61Zm-10.71-3.81c-.36-.61-.72-1.27-1.1-2a.87.87,0,0,1-.08-.65.73.73,0,0,0,.1.25c.41.81.83,1.58,1.28,2.36a1.78,1.78,0,0,0,.28.38A.53.53,0,0,1,205.79,27.72ZM197,15.25l-.41-.16c-.52-.26-1-.52-1.45-.78V14.1a3.84,3.84,0,0,0-.19-1l1,.51c.15.07.35.14.56.22a3.5,3.5,0,0,1,.86.39,2.08,2.08,0,0,1,.3.83c.05.19.09.37.15.55A4.93,4.93,0,0,0,197,15.25Zm-13.27,7.59a1.84,1.84,0,0,0,.28,1.37c.29.53.3.62-.12.95-.22.18-.3.17-.3.17a2.05,2.05,0,0,1-.32-.38.88.88,0,0,0-.65-.5c.59-.66.35-1.24,0-1.87a1.79,1.79,0,0,1-.27-.67,1,1,0,0,0,.69,0A2.13,2.13,0,0,0,183.73,22.84ZM215.86,44H216a.83.83,0,0,0,.64-.27,2.58,2.58,0,0,0,.68.07h0a.2.2,0,0,0,0,.11h-.16A3.3,3.3,0,0,1,216,44ZM218,45.47h0a1.47,1.47,0,0,0,.66,0,.39.39,0,0,0,.23-.19,1.32,1.32,0,0,0,.73.18v0h-.21a3.83,3.83,0,0,1-1.47.07Zm3.45.54.06-.12V45.8l.44-.32.09-.08.46.1h0l-.28.14a2.11,2.11,0,0,0-.88.59l-.06-.07c.11,0,.14-.12.18-.12Zm2.3,1.61c.15-.13.49-.39.7-.55a2.62,2.62,0,0,1,.56,0,.29.29,0,0,0,0,.13h-.1a2.46,2.46,0,0,0-.95.64,1,1,0,0,0-.26-.23s.06,0,.06,0Zm7,.48a.81.81,0,0,0-.54.15h0l-.09,0-.48-.21a1.13,1.13,0,0,0-.21-.75.61.61,0,0,0,0-.42,2.41,2.41,0,0,1,.41.37l.06.06a3,3,0,0,0,1.31.76,1.36,1.36,0,0,0-.45,0Zm-24-20.84c-.44-.76-.85-1.52-1.25-2.3a1,1,0,0,1-.12-.65c0,.09.07.18.11.27.43.86.9,1.73,1.43,2.65a2.36,2.36,0,0,0,.32.44C207,27.66,206.87,27.53,206.71,27.26Zm-23.63-6.84h0l-.17-.12h.19Zm-2.32-.65a.85.85,0,0,1,.14.19.93.93,0,0,1-.28-.28A.67.67,0,0,1,180.76,19.77ZM174.58,46.2h0a3.37,3.37,0,0,0,.87.32h.12a4.87,4.87,0,0,0,1.13.2,4.18,4.18,0,0,1,.79.11l.22.08a2,2,0,0,0,.82.21h.53c.16.48.72.62,1.17.73l.39.11.13.06a7,7,0,0,1,2,1.21.34.34,0,0,0,.16.1.32.32,0,0,0,.1.17,4.39,4.39,0,0,0,3.46.87,9.52,9.52,0,0,1,1.51,0,12.44,12.44,0,0,0,1.37.08,11.81,11.81,0,0,1,1.19,0,4.28,4.28,0,0,1,1.9.8,16,16,0,0,0,2.35,1.16,3.77,3.77,0,0,0,1.15.21,3.32,3.32,0,0,1,.83.11h0a7.63,7.63,0,0,0,2,.45h.38a.73.73,0,0,0,.47-.15l.12-.07a1,1,0,0,0,.33-.29h.14c.22,0,.45,0,.67,0a4.51,4.51,0,0,0,1.27-.08,3.87,3.87,0,0,0,1.56-.8l.07,0a3.2,3.2,0,0,1,.51-.29,3.54,3.54,0,0,0,.73-.42,7.58,7.58,0,0,1,1.81-.88l.28-.11a2.62,2.62,0,0,0,.59-.33c.11-.08.23-.15.35-.22s.36-.14.56-.21a3.83,3.83,0,0,0,.56-.22,8.83,8.83,0,0,1,1-.3,5.09,5.09,0,0,0,1.5-.54,1.38,1.38,0,0,0,.57-.73.54.54,0,0,1,.24-.35l.22-.09a1.16,1.16,0,0,0,.55-.31h0a.69.69,0,0,0,.15-.46,2,2,0,0,1,.35-.1,1.45,1.45,0,0,0,.76-.33.57.57,0,0,0,.15-.3,1,1,0,0,0,.42.08,4.52,4.52,0,0,0,1.16-.24c.23-.07.46-.13.7-.18h.11a.61.61,0,0,0-.17.57c.08.27.34.39.61.48a3.06,3.06,0,0,0,.51.1,3.39,3.39,0,0,1-.84.17,3.47,3.47,0,0,1-.51-.13.59.59,0,0,0-.37,0,.63.63,0,0,0-.47.71,1.4,1.4,0,0,1-.35.1,1.61,1.61,0,0,0-.93.43v0a.81.81,0,0,0-.12.4v.06a.68.68,0,0,1-.26.12,1.88,1.88,0,0,0-.45.22,1.46,1.46,0,0,0-.58.8.6.6,0,0,1-.29.4,4.93,4.93,0,0,1-1.45.52,6.62,6.62,0,0,0-1.24.39c-.18.08-.38.14-.58.21s-.49.18-.72.28a3.46,3.46,0,0,0-.52.32,2.27,2.27,0,0,1-.48.27l-.3.11a9.39,9.39,0,0,0-2.29,1.13,3.07,3.07,0,0,1-.68.39,4,4,0,0,0-.73.41h0a3.64,3.64,0,0,1-1.48.78,4.84,4.84,0,0,1-1.2.06c-.28,0-.57,0-.85,0a.76.76,0,0,0-.78.36.31.31,0,0,1-.11.09l-.15.09h-.48a7.63,7.63,0,0,1-2-.47h-.08a4.6,4.6,0,0,0-1.16-.18,3.39,3.39,0,0,1-1-.18A17.32,17.32,0,0,1,191.93,53a5.57,5.57,0,0,0-2.51-1c-.49,0-1-.06-1.43-.07a11.8,11.8,0,0,1-1.46-.09,9.77,9.77,0,0,0-1.08-.06h-.81a4.82,4.82,0,0,1-3-.54.88.88,0,0,0-.34-.75.4.4,0,0,0-.45-.08h0a11.25,11.25,0,0,0-2.16-1.23l-.12,0a.54.54,0,0,0,0-.18c-.08-.21-.28-.35-.89-.64h-.08a.59.59,0,0,0-.37,0l-.16-.08-.23-.11h0a1.4,1.4,0,0,0-.5,0H176a1.34,1.34,0,0,1-.55-.16l-.34-.13a6.78,6.78,0,0,0-1.1-.16,3.94,3.94,0,0,1-1.08-.18l-.19-.05-.52-.15a2.28,2.28,0,0,1,.33-.29,2.11,2.11,0,0,1,1-.35A1.5,1.5,0,0,0,174.58,46.2Zm45.46,1a.31.31,0,0,0,.05-.1h0a2.11,2.11,0,0,0,1.14.08.41.41,0,0,0,.24-.19.77.77,0,0,0,.35.12h-.09a4,4,0,0,1-1.73,0Zm6.26,2,.46-.38h.81l.06.08h0a3,3,0,0,0-1,.68.9.9,0,0,0-.33-.25.48.48,0,0,0,0-.17Zm5.41,1.52v.06l-.18.13v-.07Zm1.76-1.23a1,1,0,0,0-.57.14h-.08l-.16.1a1.71,1.71,0,0,1-.23-.13,2.16,2.16,0,0,0,0-.36.48.48,0,0,0,0-.17.69.69,0,0,0,0-.68,2.29,2.29,0,0,1,.55.48l.06.06a3.88,3.88,0,0,0,.68.53ZM207.63,26.8c-.52-.91-1-1.76-1.41-2.6a1.43,1.43,0,0,1-.15-.64,1.11,1.11,0,0,0,.12.27c.45.91,1,1.88,1.58,3a2.43,2.43,0,0,0,.35.49C207.92,27.23,207.79,27,207.63,26.8Zm-15.5-12.41a.71.71,0,0,0,.16.28.16.16,0,0,0,.08.06h0a1.14,1.14,0,0,0-.15.23A2.11,2.11,0,0,1,191,16.39l-.32.19a2.89,2.89,0,0,0-.87,1,1.56,1.56,0,0,1-.6.67,2.51,2.51,0,0,1-1.77-.09,3.26,3.26,0,0,0-2.34,0,4.39,4.39,0,0,0-1.41,1.08.85.85,0,0,0-.64.25l-.07.06a.73.73,0,0,0-.48.08,1.09,1.09,0,0,0-.24.24l.09-.3c.06-.19.11-.36.16-.48a3.46,3.46,0,0,1,1.62-1.52,2.61,2.61,0,0,1,1.94.09,3.54,3.54,0,0,0,2.6.05,2.5,2.5,0,0,0,1.08-1.1,2.61,2.61,0,0,1,.68-.8l.44-.26A2.94,2.94,0,0,0,192.13,14.39Zm-10.48,4.49-.12.36v.08l-.13-.15a1.44,1.44,0,0,0-.58-.35l.1-.16a.47.47,0,0,0,.4,0,2.62,2.62,0,0,0,.34-.24h0a.8.8,0,0,1,0,.46Zm-2.16,1a2.23,2.23,0,0,0,.35,1.84c.41.72.44.9-.15,1.38-.29.23-.43.24-.47.23a3,3,0,0,1-.5-.56,2.71,2.71,0,0,0-.24-.35c.8-.84.48-1.58,0-2.37a2.14,2.14,0,0,1-.37-1,2.07,2.07,0,0,0,.74.7,1.3,1.3,0,0,0,.64.14Zm42.65,28.83v-.07l.41.09.28.07a2.71,2.71,0,0,1-.69-.08Zm2.79,1.67a2.31,2.31,0,0,1-.69-.11,4.16,4.16,0,0,1,.69.12Zm-16.38-24c-.6-1.06-1.11-2-1.56-2.9a1.69,1.69,0,0,1-.17-.58c0,.08.07.15.1.23.61,1.21,1.25,2.37,1.74,3.25a4.67,4.67,0,0,0,.36.51,1.06,1.06,0,0,1-.47-.55Zm-16.94-13.7a.76.76,0,0,0,.11.14.21.21,0,0,0,.1.06v.06h0a1,1,0,0,0-.17.27,2,2,0,0,1-1.21,1.46l-.46.27a3,3,0,0,0-1,1.1,1.75,1.75,0,0,1-.69.76,2.67,2.67,0,0,1-2-.09,3.46,3.46,0,0,0-2.57-.05,5.12,5.12,0,0,0-1.49,1.12.7.7,0,0,0-.42-.33.86.86,0,0,0-.77.28h0a3.75,3.75,0,0,1,1.77-1.66,2.88,2.88,0,0,1,2.14.1,3.85,3.85,0,0,0,2.85.06A2.94,2.94,0,0,0,189,15a2.82,2.82,0,0,1,.75-.9c.2-.13.38-.23.54-.32A3,3,0,0,0,191.61,12.68ZM179,18.46a1.74,1.74,0,0,1,.24.36,1.87,1.87,0,0,1-.36-.43h0Zm-1.5-.82a1.43,1.43,0,0,1-.23-.26l0-.06Zm-5.1,3.61a1,1,0,0,0-.22.13,1.94,1.94,0,0,0-.55,1c-.09.31-.16.57-.34.69s0,0-.21,0a.92.92,0,0,0-.69,0,1.33,1.33,0,0,0-.49.48.91.91,0,0,1-.11.16.43.43,0,0,0-.13.37.43.43,0,0,0,.22.32c.23.13-.07,1-.21,1.46a7.15,7.15,0,0,0-.23.79,7.07,7.07,0,0,0,.27,3.62,4.08,4.08,0,0,0,.44.72,2.59,2.59,0,0,1,.44.75,1.61,1.61,0,0,1,.06.87,3.21,3.21,0,0,0,0,.62A2.05,2.05,0,0,0,171.82,35a7.92,7.92,0,0,1,.67.46,7.78,7.78,0,0,0,1,.7,4.22,4.22,0,0,1,1.22,1c.36.48.26.73,0,1.29a4.52,4.52,0,0,0-.25.79,6.73,6.73,0,0,0-.12,1.09,2.4,2.4,0,0,1-.48,1.66,1,1,0,0,1-.79.32h-.41a6.26,6.26,0,0,0,.14-1.23,6.26,6.26,0,0,1,.12-1,4.91,4.91,0,0,1,.24-.74A2.12,2.12,0,0,0,173,37a5.71,5.71,0,0,0-1.63-1.3,6.71,6.71,0,0,1-1-.67,7.15,7.15,0,0,0-.85-.59c-.6-.36-.93-.56-1-1.34a5.42,5.42,0,0,1,0-.57,2.87,2.87,0,0,0-.12-1.36,4,4,0,0,0-.62-1.06,3.87,3.87,0,0,1-.41-.64,6.81,6.81,0,0,1-.22-3.44c.06-.25.13-.5.21-.74.25-.76.58-1.74.19-2.36l.1-.12h.11a1.09,1.09,0,0,0,1.05,0,2,2,0,0,0,.78-1.29,1.58,1.58,0,0,1,.32-.68c.17-.15.76-.12,1.11-.1h.57a1.55,1.55,0,0,0,.76.47Zm63.13,29.4a.74.74,0,0,0,0-.76,2.46,2.46,0,0,1,.69.55l.06.07a2.57,2.57,0,0,0,.4.34h-.42a1.08,1.08,0,0,0-.61.14h-.1a.5.5,0,0,0-.07-.34Zm-10-19.14h-.93a.7.7,0,0,0-.11-.27v-.09a2.19,2.19,0,0,1-.16-.57,3,3,0,0,0-.29-.93,1.94,1.94,0,0,0,.54.31,1.62,1.62,0,0,0,.58.07,1,1,0,0,1,.24,0,4.61,4.61,0,0,1,.16.64,3.47,3.47,0,0,0,.27.9Zm-16-5.63c-.49-.87-1.12-2-1.71-3.2a1.68,1.68,0,0,1-.17-.49l.07.16c.63,1.27,1.31,2.5,1.89,3.54a3.54,3.54,0,0,0,.35.51,1.44,1.44,0,0,1-.49-.52Zm-18.36-15h0a.37.37,0,0,0,.12.07v.14a1.34,1.34,0,0,0-.17.31A2,2,0,0,1,189.83,13l-.56.34h0a3.53,3.53,0,0,0-1.05,1.19,2,2,0,0,1-.77.86,3,3,0,0,1-2.2-.1,3.76,3.76,0,0,0-2.8,0,5.1,5.1,0,0,0-1.8,1.42,1.05,1.05,0,0,0-.06-.24,1.18,1.18,0,0,0-.5-.66,4.63,4.63,0,0,1,1.42-1.06,3.14,3.14,0,0,1,2.35.11A4.13,4.13,0,0,0,187,15a3.05,3.05,0,0,0,1.27-1.32,3,3,0,0,1,.83-1h0l.64-.38a3,3,0,0,0,1.42-1.34Zm-15.6,5.28a3.07,3.07,0,0,1-.2-.36h0a1.66,1.66,0,0,1,.22.3ZM235,52.88l.08-.05a.58.58,0,0,0,.21-.37l.56.19.62.2H235ZM239.79,51h0a1.09,1.09,0,0,1,.08.15l-.13-.14Zm-13.22-21.3a1.45,1.45,0,0,0,.62.07h.26a3.67,3.67,0,0,1,.2.72,3.12,3.12,0,0,0,.29,1h-1.16a1,1,0,0,0-.11-.29v-.1a2.74,2.74,0,0,1-.17-.64,3.77,3.77,0,0,0-.25-.87A1.73,1.73,0,0,0,226.57,29.74Zm-3.72-8.11a.45.45,0,0,0,.1-.14,1.63,1.63,0,0,1-.11,1,.92.92,0,0,1-.24.31,1.41,1.41,0,0,0-.45,1.42,6.88,6.88,0,0,0,1.68,2.54c.24.28.47.54.62.73l.34.49a7.79,7.79,0,0,0,.8,1,2,2,0,0,0-.49,0h-.25a3.18,3.18,0,0,1-1.19-1.25l-.34-.48c-.15-.21-.38-.46-.61-.73a7,7,0,0,1-1.34-1.89.43.43,0,0,1,.16-.5,1.73,1.73,0,0,0,.42-.58,2.32,2.32,0,0,0,0-1.79A1.1,1.1,0,0,0,222.85,21.63Zm-12.41,3.81a2.55,2.55,0,0,0,.31.47,1.72,1.72,0,0,1-.36-.49c-.57-1-1.24-2.24-1.86-3.5a1.94,1.94,0,0,1-.15-.36v.05C209.07,23,209.81,24.3,210.44,25.44Zm-6.25-13.56c.07-.1.09-.12.14-.14a1.24,1.24,0,0,1,1.12.15c.18.08.37.17.6.25s.61.24.91.38a7.8,7.8,0,0,0,1.39.53,1.19,1.19,0,0,0,.53,0,.4.4,0,0,1,.26.06,1.82,1.82,0,0,1,1,1.26,3.26,3.26,0,0,1,.07,1.12v-.07a2.63,2.63,0,0,0-1.4-1.78,1.2,1.2,0,0,0-.77-.14.2.2,0,0,1-.15,0,6.32,6.32,0,0,1-1.12-.43,7.61,7.61,0,0,0-.93-.39,3.9,3.9,0,0,1-.47-.2,2.08,2.08,0,0,0-1.54-.24A1,1,0,0,0,204.19,11.88Zm-.62.44-.17.08-.07-.07A.65.65,0,0,0,203.57,12.32Zm-1.67-.91a1.64,1.64,0,0,0,.54.07h.33a.49.49,0,0,0-.08.45V12H202a1.44,1.44,0,0,1-.43-.6l-.12-.23-.15-.27h0a1.45,1.45,0,0,0,.6.47Zm-2.63-3.27.41.34a4.14,4.14,0,0,1,.91,1.25l.18.32.1.2h0a3.89,3.89,0,0,0-.68-.78l-.4-.34a3.37,3.37,0,0,1-1-1.12,4.14,4.14,0,0,1-.19-.49A3.94,3.94,0,0,0,199.27,8.14Zm-4.74-5.5a7.53,7.53,0,0,0,.89.36,5.19,5.19,0,0,1,1.5.72,2.92,2.92,0,0,1,.47,1.17A8.7,8.7,0,0,0,196,4.26c-.29-.1-.56-.2-.73-.28-.75-.38-1.52-.8-2.31-1.25a10.86,10.86,0,0,0-.33-1.11A16.82,16.82,0,0,0,194.53,2.64Zm-3,3.28.25-.22.28-.27.21-.19v.1l.2.64c-.06.25-.24.43-.61.76l-.25.24-.2.16-.18.15a1.93,1.93,0,0,0-.32-.6.71.71,0,0,1-.1-.14h0Zm-11.37,7.44a3.46,3.46,0,0,1,2.55.12,4.49,4.49,0,0,0,3.34.07,3.37,3.37,0,0,0,1.37-1.43,3.2,3.2,0,0,1,.91-1.09c.26-.17.5-.3.71-.42a3.12,3.12,0,0,0,1.56-1.48l.1,0,.06.09-.06.09a1.24,1.24,0,0,0-.18.34,2.15,2.15,0,0,1-1.33,1.69c-.2.11-.42.24-.67.4A3.8,3.8,0,0,0,187.41,13a2.36,2.36,0,0,1-.85,1,3.34,3.34,0,0,1-2.43-.11,4,4,0,0,0-3-.06,5.17,5.17,0,0,0-2.42,2.29h0a2,2,0,0,0,.07-1.37,2.72,2.72,0,0,0-.11-.25,4.83,4.83,0,0,1,1.51-1.18ZM177,15.43a.9.9,0,0,1-.08.28c0,.09,0,.16-.07.24a.5.5,0,0,1-.19-.13,2.41,2.41,0,0,1,.22-.42Zm-1.62-1.68a3,3,0,0,0,.41-.32l.15-.12a1.3,1.3,0,0,1,.08.17,1.72,1.72,0,0,1-.15,1c-.05.14-.1.29-.14.45-.15-.09-.32-.17-.48-.25a1.36,1.36,0,0,1-.52-.3.59.59,0,0,1-.07-.26,1.9,1.9,0,0,1,.2-.37.53.53,0,0,0,.49,0Zm-2-1.63a4.58,4.58,0,0,0,.43-.34l.19-.16a2.14,2.14,0,0,1,.1.22,1.84,1.84,0,0,1-.17,1.11c-.06.18-.12.37-.17.56l-.38-.19a1.25,1.25,0,0,1-.56-.34,1,1,0,0,1,0-.84.52.52,0,0,0,.55,0Zm-3.46.49c.05-.12.11-.29.17-.48a7.6,7.6,0,0,1,.71-1.63.59.59,0,0,0,.6,0,3.94,3.94,0,0,0,.45-.36l.23-.2c0,.09.09.18.13.27a2,2,0,0,1-.19,1.22,1.62,1.62,0,0,1-.13.39,10.35,10.35,0,0,0-.63,1.5c0,.16-.1.3-.14.4a3,3,0,0,0,.39,3c.63,1.05.71,1.45-.07,2.12a1.31,1.31,0,0,0-.72-.34,2.81,2.81,0,0,0-.71,0c1.45-1.29,1-2.39.27-3.57a2.3,2.3,0,0,1-.37-2.32Zm-1.72,5.7a.54.54,0,0,1,.21.08h-.11a.42.42,0,0,1-.18-.08ZM165.89,38.2a7,7,0,0,0-2.16-1.66,10,10,0,0,1-1.3-.85,11.11,11.11,0,0,0-1.07-.72c-.8-.47-1.27-.75-1.33-1.81,0-.25,0-.51,0-.76a3.69,3.69,0,0,0-.15-1.68,5,5,0,0,0-.82-1.36,6.7,6.7,0,0,1-.56-.83,8.56,8.56,0,0,1-.31-4.46,8.73,8.73,0,0,1,.28-1c.32-1,.74-2.22.25-3a1.51,1.51,0,0,1,.21-.23,1,1,0,0,1,.25.08,1.4,1.4,0,0,0,1.29,0,2.47,2.47,0,0,0,1-1.6,1.86,1.86,0,0,1,.43-.92,3.18,3.18,0,0,1,1.56-.12h.68a3.86,3.86,0,0,0,.76-.1,3.4,3.4,0,0,1,.9-.09c.21,0,.29.1.47.37h-.21a3.2,3.2,0,0,0-2.08.33,2.44,2.44,0,0,0-.7,1.32c-.13.41-.23.78-.5.93-.07.05-.13,0-.38-.05a1.24,1.24,0,0,0-.85-.09,1.54,1.54,0,0,0-.65.56.91.91,0,0,1-.18.21.51.51,0,0,0-.18.42.47.47,0,0,0,.25.38c.36.2,0,1.34-.25,2a8.25,8.25,0,0,0,.08,5.73,5.59,5.59,0,0,0,.6.92,3.71,3.71,0,0,1,.62,1,2.4,2.4,0,0,1,.08,1.16,5.75,5.75,0,0,0,0,.83,2.71,2.71,0,0,0,1.67,2.43,10.38,10.38,0,0,1,.88.59,9,9,0,0,0,1.33.88,5.58,5.58,0,0,1,1.71,1.3c.52.67.38,1,.09,1.79a9,9,0,0,0-.33,1,9.8,9.8,0,0,0-.16,1.42,3.19,3.19,0,0,1-.69,2.29,1.45,1.45,0,0,1-1,.43,7.24,7.24,0,0,0,.29-1.91,8.86,8.86,0,0,1,.16-1.36,7.21,7.21,0,0,1,.31-1,2.57,2.57,0,0,0-.3-2.77Zm-5.27,13.57c-.18-.85-.12-.89.55-1.39a4.29,4.29,0,0,0,.48-.36,2.65,2.65,0,0,0,1.13-2.08,1.65,1.65,0,0,0-.17-.56h.12a2.61,2.61,0,0,0,1.69-.6.38.38,0,0,1,0,.15,1.52,1.52,0,0,1-.68,1.1l-.42.31a1.78,1.78,0,0,0-.87,2.24,4.48,4.48,0,0,1,.11.72,3.8,3.8,0,0,0-.91.88h-.16a3.68,3.68,0,0,0-.81.15,3.16,3.16,0,0,0-.07-.56Zm68.83,2.9a7.76,7.76,0,0,1-1.84.4,7.84,7.84,0,0,1-.88-.21c-.19,0-.33-.09-.47,0a.89.89,0,0,0-.65,1v0a2,2,0,0,1-.67.21,2.49,2.49,0,0,0-1.41.65,1.3,1.3,0,0,0-.24.52.66.66,0,0,1-.12.27,1.47,1.47,0,0,1-.49.27,2.8,2.8,0,0,0-.62.32,2.12,2.12,0,0,0-.82,1.23,1,1,0,0,1-.48.7,7.91,7.91,0,0,1-2.39.88,11.86,11.86,0,0,0-2,.62,9.66,9.66,0,0,1-1,.35,10.73,10.73,0,0,0-1.12.42,4.72,4.72,0,0,0-.81.49,3.2,3.2,0,0,1-.76.44l-.38.14a14.3,14.3,0,0,0-3.77,1.83,6.18,6.18,0,0,1-1.12.63,7.14,7.14,0,0,0-1.14.65,5.85,5.85,0,0,1-2.51,1.29,6.58,6.58,0,0,1-1.88.06q-.66,0-1.32,0c-.62,0-.91.11-1.11.5,0,0,0,.09-.21.18l-.22.14-.15.09h-.65a10.78,10.78,0,0,1-3.11-.79l-.26-.1a7,7,0,0,0-1.82-.31,5,5,0,0,1-1.67-.32,30.54,30.54,0,0,1-4-2.11,8.25,8.25,0,0,0-3.9-1.67c-.75-.08-1.51-.12-2.27-.13a19.33,19.33,0,0,1-2.4-.15A11.92,11.92,0,0,0,177,63h-1.26c-1.87.06-3.65.11-5.06-.95V62a1.23,1.23,0,0,0-.42-1,.52.52,0,0,0-.59-.08h0a15.76,15.76,0,0,0-3.44-2,.33.33,0,0,0,0-.14c.1-.71-1.25-1.2-1.26-1.21a1.07,1.07,0,0,0-.56.09h0l-.38-.21a.79.79,0,0,0-.3-.12,1.9,1.9,0,0,0-.67,0,2.65,2.65,0,0,1-.48.07,2.07,2.07,0,0,1-.84-.23,5.71,5.71,0,0,0-.58-.21,11,11,0,0,0-1.81-.27,8.24,8.24,0,0,1-1.84-.31l-.24-.06c-.58-.16-.92-.26-1.12-.34a6.23,6.23,0,0,1,.76-.69,3.26,3.26,0,0,1,1.45-.53c.19.25.63.43,1.72.72h.18a9.43,9.43,0,0,0,1.9.32,8.35,8.35,0,0,1,1.5.22,3.16,3.16,0,0,1,.43.16,2.74,2.74,0,0,0,1.19.28,2.87,2.87,0,0,0,.41-.05c.21.73,1.09.93,1.8,1.09a6.32,6.32,0,0,1,.62.18l.16.07a11,11,0,0,1,3.36,2h0a.49.49,0,0,0,.14.38c1.64,1.57,3.71,1.51,5.71,1.45a16.76,16.76,0,0,1,2.65.06,15.33,15.33,0,0,0,2.34.15,12.32,12.32,0,0,1,2,.11,6.92,6.92,0,0,1,3.21,1.4,27,27,0,0,0,3.89,2,5.6,5.6,0,0,0,1.86.37,5.28,5.28,0,0,1,1.43.23l.24.08a10.58,10.58,0,0,0,3.13.78h.67a1.06,1.06,0,0,0,.64-.23l.2-.11a1.38,1.38,0,0,0,.51-.48h.29a10.28,10.28,0,0,1,1.11,0,7.06,7.06,0,0,0,2-.08,6.5,6.5,0,0,0,2.68-1.36,5,5,0,0,1,.9-.51,6,6,0,0,0,1.18-.68,13.14,13.14,0,0,1,3.27-1.57l.35-.13a3.64,3.64,0,0,0,.92-.52,4.49,4.49,0,0,1,.59-.37c.31-.13.62-.24.94-.34s.65-.22,1-.36a10.81,10.81,0,0,1,1.67-.53,8.15,8.15,0,0,0,2.48-.92,1.86,1.86,0,0,0,.84-1.17,1.13,1.13,0,0,1,.43-.66,2.53,2.53,0,0,1,.37-.18,1.88,1.88,0,0,0,.81-.49,1.45,1.45,0,0,0,.31-.65v-.09a1.74,1.74,0,0,1,.79-.3,2.05,2.05,0,0,0,1.13-.48.77.77,0,0,0,.23-.63,3,3,0,0,0,.93.18,7.66,7.66,0,0,0,1.89-.39,1.52,1.52,0,0,0,.75.42,4.73,4.73,0,0,0,1.63.19Zm4.9-.31a1.3,1.3,0,0,0-.54-.35.35.35,0,0,0,.07-.12H235a2.66,2.66,0,0,0-.68.47Zm4.64.15h-.06c-1.58.08-2.54.08-3.12.06l.25-.12a8.74,8.74,0,0,0,1.09-.58,12.63,12.63,0,0,1,1.92.51l.35.12Zm1.53-1.3h0a.46.46,0,0,0-.3.31,5.22,5.22,0,0,1-1.76-.81.6.6,0,0,0,.14-.53.72.72,0,0,0,0-.67h.24a5.79,5.79,0,0,1,.51.48l.06.06a3.53,3.53,0,0,0,1,.76.7.7,0,0,0,.1.4Zm2.73-.3-.1-.11.07-.06v-.05h.05a1.41,1.41,0,0,1,.19.39v.08a2.39,2.39,0,0,1-.23-.22Zm7.83-18V35a.84.84,0,0,0-.31.12c-.57.38-.49,1.33-.4,2.33a6.91,6.91,0,0,1,0,.91,5.24,5.24,0,0,1-1,.69l-.47.31-.19.14a1.88,1.88,0,0,0-1,1.61,6.18,6.18,0,0,0,.08,1.55,3.21,3.21,0,0,1-.1,1.84,4.7,4.7,0,0,1-.54.85,3.4,3.4,0,0,0-.87,2,1.66,1.66,0,0,0,.62,1.36,2.3,2.3,0,0,1,.33.37,3.51,3.51,0,0,1,.43,1.29c.06.27.11.54.19.81a4.51,4.51,0,0,1,.06,3.31v-.06a1.71,1.71,0,0,0-.55-.87,1,1,0,0,0-1.41.09l0,0a.67.67,0,0,1-.28.19,2.3,2.3,0,0,1-.74,0,5,5,0,0,0,.3-4.37c-.06-.22-.11-.44-.15-.67a4.28,4.28,0,0,0-.54-1.55,3.35,3.35,0,0,0-.43-.49.63.63,0,0,1-.29-.59,2.47,2.47,0,0,1,.61-1.28,4.82,4.82,0,0,0,.6-1,3.79,3.79,0,0,0,.13-2.21,4.74,4.74,0,0,1-.08-1.19c.05-.48.05-.48.54-.84l.17-.13.37-.24a3.68,3.68,0,0,0,1.22-1,2.45,2.45,0,0,0,.06-1.37,8,8,0,0,1,0-1.2.47.47,0,0,0,.46,0,.45.45,0,0,0,.22-.42v-.57a8.37,8.37,0,0,0-.08-1.87h.59a6.83,6.83,0,0,1,2.3,0,5.56,5.56,0,0,1,.16,2Z"/><path class="cls-1" d="M196.53,33.81h.23l.16.07h.13a.64.64,0,0,0,.51.15h.51l.26.14a.41.41,0,0,0,.22,0,.58.58,0,0,0,.26.06h.05a.43.43,0,0,0,.16,0h.16a.68.68,0,0,0,.27-.13l.11-.06a.35.35,0,0,1,.14-.06l.13-.07H200a.47.47,0,0,0,.22-.09.34.34,0,0,0,.12-.12l.07-.06h.19a.34.34,0,0,0,.2,0h.43a.23.23,0,0,0,.2,0h.13a.3.3,0,0,0,.19-.14.55.55,0,0,0,0-.47v-.11h0a.67.67,0,0,0,0-.2.32.32,0,0,0,.1-.1.31.31,0,0,0,0-.19.29.29,0,0,0,0-.13.4.4,0,0,0-.16-.39.62.62,0,0,0-.33,0h-.82a.2.2,0,0,0-.09-.09h-.07a.37.37,0,0,0-.08-.33.34.34,0,0,0-.36-.07l-.09,0h0l0,.05h0l-.1.06a.47.47,0,0,0,0-.33.43.43,0,0,0-.21-.27.61.61,0,0,0-.19,0h-.17l-.08-.09h0a.41.41,0,0,0-.1-.21.61.61,0,0,0-.22-.13l-.14-.07a.27.27,0,0,0-.42.31h0a.32.32,0,0,0-.1.2h0l-.08.07a.51.51,0,0,0-.3,0h0a.32.32,0,0,0-.22-.2.33.33,0,0,0-.24,0h-.07A.46.46,0,0,0,197,31v.05h0a.4.4,0,0,0-.3.07.3.3,0,0,0-.07.08.4.4,0,0,0-.23.33,0,0,0,0,1,0,.05v.08a.7.7,0,0,0,0,.43v.13a.41.41,0,0,0,.24.35h.08v0h0a.31.31,0,0,0-.18.25h0a.3.3,0,0,0-.07.15h-.07a.34.34,0,0,0-.16.41A.39.39,0,0,0,196.53,33.81Zm.6-.28h0v-.1h0Zm-.22-1.74h0a.18.18,0,0,0,.07-.05.3.3,0,0,0,.15.07.38.38,0,0,0,.29-.09h0a.32.32,0,0,0,.27,0,.31.31,0,0,0,.19-.2.44.44,0,0,0,.32,0,.58.58,0,0,0,.18-.17.39.39,0,0,0,.19-.21l.06.05h0a.35.35,0,0,0,.15.17.33.33,0,0,0,.13.07.24.24,0,0,0,.12,0,.38.38,0,0,0,0,.36l.12.21a.36.36,0,0,0,.42.19h.1a.42.42,0,0,0,.17-.1h0a.31.31,0,0,0,.15.15h0a.28.28,0,0,0,.25.19h.83a.43.43,0,0,0,0,.16v.12a.58.58,0,0,0-.08.22h0a.39.39,0,0,0-.21-.06h0a.34.34,0,0,0-.31,0,.35.35,0,0,0-.17.12.29.29,0,0,0-.15.16h0a.6.6,0,0,0-.13.09h0a.47.47,0,0,0-.1.1h0l-.17.06h-.09l-.08.05a1.55,1.55,0,0,0-.29.14l-.1.06h-.49l-.18-.09a.7.7,0,0,0-.32-.13h-.52a.35.35,0,0,0-.12-.07l-.08,0a.42.42,0,0,0-.21-.13h0a.41.41,0,0,0,.07-.11h0a.48.48,0,0,0,.14-.34h0a.43.43,0,0,0,0-.41.7.7,0,0,0-.19-.15h0V32l-.08-.13a.18.18,0,0,1-.25-.09h0Z"/><path class="cls-2" d="M4.63,27H8.48a10.84,10.84,0,0,0,4.43-.83,6.52,6.52,0,0,0,2.87-2.4,6.58,6.58,0,0,0,1-3.69,6.64,6.64,0,0,0-1-3.71A6.45,6.45,0,0,0,12.91,14a10.69,10.69,0,0,0-4.43-.84H.2V32.31H4.63Zm6.67-9.38a3.13,3.13,0,0,1,1,2.46,3.08,3.08,0,0,1-1,2.44,4.63,4.63,0,0,1-3.07.87H4.63V16.78h3.6a4.68,4.68,0,0,1,3.07.87Z"/><path class="cls-2" d="M27.72,21.28h.5v-3.9a7.1,7.1,0,0,0-3.53.81,4.68,4.68,0,0,0-1.53,1.37v-2H19.09V32.31h4.26v-7a4,4,0,0,1,1.08-3.1,4,4,0,0,1,2.83-1Z"/><path class="cls-2" d="M45.14,25a7.17,7.17,0,0,0-3.91-6.6,9.45,9.45,0,0,0-8.33,0A7.5,7.5,0,0,0,30,21,7.36,7.36,0,0,0,29,25a7.3,7.3,0,0,0,1,3.9,7.5,7.5,0,0,0,2.9,2.69,9.32,9.32,0,0,0,8.33,0A7.25,7.25,0,0,0,45.14,25Zm-4.81,2.18A3.45,3.45,0,0,1,39,28.53a3.92,3.92,0,0,1-3.83,0,3.43,3.43,0,0,1-1.35-1.4A4.46,4.46,0,0,1,33.31,25a4.35,4.35,0,0,1,.51-2.18,3.56,3.56,0,0,1,1.35-1.4,4,4,0,0,1,3.83,0,3.6,3.6,0,0,1,1.34,1.4A4.61,4.61,0,0,1,40.83,25,4.68,4.68,0,0,1,40.33,27.13Z"/><path class="cls-2" d="M62.47,32.31V23.89a7.58,7.58,0,0,0-.8-3.68A5.05,5.05,0,0,0,59.5,18a6.79,6.79,0,0,0-3.13-.7,7,7,0,0,0-3.36.79,5.29,5.29,0,0,0-1.5,1.2V17.6H47.43V32.31H51.7V25a4.94,4.94,0,0,1,.45-2.24,3.1,3.1,0,0,1,1.26-1.3A3.83,3.83,0,0,1,55.22,21a2.83,2.83,0,0,1,2.2.85,3.76,3.76,0,0,1,.78,2.62v7.77Z"/><path class="cls-2" d="M73.06,32.29a4.59,4.59,0,0,0,1.57-.69l-1.12-3a2.89,2.89,0,0,1-1.75.55,1.73,1.73,0,0,1-1.33-.51A2,2,0,0,1,70,27.19v-6h3.63V17.93H70V14.35H65.69v12.9a5.09,5.09,0,0,0,1.44,3.95,5.76,5.76,0,0,0,4.06,1.32A6.94,6.94,0,0,0,73.06,32.29Z"/><path class="cls-2" d="M87,24.87a5.17,5.17,0,0,1-.44,2.23,2.87,2.87,0,0,1-1.2,1.31,3.56,3.56,0,0,1-1.75.42,2.77,2.77,0,0,1-2.2-.86,3.94,3.94,0,0,1-.78-2.69V17.6H76.41v8.31a7.77,7.77,0,0,0,.79,3.73,5,5,0,0,0,2.23,2.17,7.08,7.08,0,0,0,3.26.71,6.34,6.34,0,0,0,3.13-.77,4.85,4.85,0,0,0,1.44-1.19v1.75h4V17.6H87Z"/><path class="cls-2" d="M105.38,19.15a5,5,0,0,0-1.15-.95,6.27,6.27,0,0,0-3.25-.82,7.52,7.52,0,0,0-3.74.93,6.78,6.78,0,0,0-2.64,2.62,7.87,7.87,0,0,0-1,4,7.87,7.87,0,0,0,1,4,6.84,6.84,0,0,0,2.64,2.64,7.4,7.4,0,0,0,3.74.94,6.32,6.32,0,0,0,3.32-.82,4.47,4.47,0,0,0,1.27-1.1V32.3h4.08V17.6h-4.27Zm-.42,8a3.56,3.56,0,0,1-1.35,1.4,3.84,3.84,0,0,1-3.8,0,3.46,3.46,0,0,1-1.36-1.4A4.45,4.45,0,0,1,98,25a4.45,4.45,0,0,1,.5-2.18,3.66,3.66,0,0,1,1.36-1.4,4,4,0,0,1,3.8,0,3.63,3.63,0,0,1,1.35,1.4,4.34,4.34,0,0,1,.5,2.18,4.48,4.48,0,0,1-.46,2.16Z"/><path class="cls-2" d="M117.3,25.36a4,4,0,0,1,1.08-3.1,4,4,0,0,1,2.83-1h1V17.38a7.1,7.1,0,0,0-3.53.81,4.68,4.68,0,0,0-1.53,1.37v-2H113V32.31h4.26Z"/><path class="cls-2" d="M126.84,10.79a2.69,2.69,0,0,0-1.91.69,2.32,2.32,0,0,0-.13,3.27l.13.12a2.69,2.69,0,0,0,1.91.68,2.64,2.64,0,0,0,1.93-.7,2.34,2.34,0,0,0,.72-1.76,2.07,2.07,0,0,0-.74-1.65A2.81,2.81,0,0,0,126.84,10.79Z"/><rect class="cls-2" x="124.71" y="17.6" width="4.26" height="14.71"/><path class="cls-2" d="M143.54,31.54a7.45,7.45,0,0,0,0-13.19,9.43,9.43,0,0,0-8.32,0A7.25,7.25,0,0,0,131.3,25a7.3,7.3,0,0,0,1,3.9,7.42,7.42,0,0,0,2.87,2.69,9.3,9.3,0,0,0,8.32,0Zm-7.42-4.41a4.46,4.46,0,0,1-.51-2.18,4.35,4.35,0,0,1,.51-2.18,3.63,3.63,0,0,1,1.35-1.4,4,4,0,0,1,3.83,0,3.6,3.6,0,0,1,1.34,1.4,4.49,4.49,0,0,1,.49,2.18,4.56,4.56,0,0,1-.49,2.18,3.47,3.47,0,0,1-1.34,1.4,3.92,3.92,0,0,1-3.83,0A3.56,3.56,0,0,1,136.12,27.13Z"/><path class="cls-2" d="M157.5,28.94a4.41,4.41,0,0,1-2.09.36,9.28,9.28,0,0,1-2.72-.4,9.17,9.17,0,0,1-2.4-1L148.87,31A9.07,9.07,0,0,0,151.62,32a13.81,13.81,0,0,0,3.62.45,10.47,10.47,0,0,0,3.76-.6,5.29,5.29,0,0,0,2.36-1.65,3.85,3.85,0,0,0,.82-2.42,3.69,3.69,0,0,0-.49-2,3.65,3.65,0,0,0-1.27-1.23,6.66,6.66,0,0,0-1.73-.69,15.18,15.18,0,0,0-1.9-.37c-.63-.08-1.21-.18-1.74-.29a4.17,4.17,0,0,1-1.27-.44.87.87,0,0,1-.48-.82,1.14,1.14,0,0,1,.66-1A4.22,4.22,0,0,1,156,20.6a9.84,9.84,0,0,1,2.09.23,7.18,7.18,0,0,1,2.15.86l1.42-3a8.6,8.6,0,0,0-2.59-1,14.43,14.43,0,0,0-3.07-.33,9.72,9.72,0,0,0-3.66.62,5.45,5.45,0,0,0-2.37,1.7,4,4,0,0,0-.8,2.46,3.87,3.87,0,0,0,.48,2,3.37,3.37,0,0,0,1.32,1.3,6.05,6.05,0,0,0,1.75.7,17.7,17.7,0,0,0,1.9.37l1.73.27a4.7,4.7,0,0,1,1.27.4.84.84,0,0,1,.48.78A1.06,1.06,0,0,1,157.5,28.94Z"/><polygon class="cls-2" points="18.07 38.06 11.03 49.94 3.86 38.06 0.2 38.06 0.2 57.2 4.35 57.2 4.35 45.96 9.96 55.17 11.95 55.17 17.59 45.71 17.61 57.2 21.77 57.2 21.71 38.06 18.07 38.06"/><path class="cls-2" d="M35.46,49.76A5,5,0,0,1,35,52a2.87,2.87,0,0,1-1.2,1.31,3.56,3.56,0,0,1-1.75.42,2.77,2.77,0,0,1-2.2-.86,3.94,3.94,0,0,1-.78-2.69V42.49H24.83V50.8a7.77,7.77,0,0,0,.79,3.73,5,5,0,0,0,2.23,2.17,7.08,7.08,0,0,0,3.26.71,6.45,6.45,0,0,0,3.13-.77,4.85,4.85,0,0,0,1.44-1.19V57.2h4V42.49H35.46Z"/><path class="cls-2" d="M55.21,43a6.79,6.79,0,0,0-3.13-.7,7,7,0,0,0-3.36.79,5.67,5.67,0,0,0-1.51,1.2V42.49H43.14V57.2h4.27V49.92a4.94,4.94,0,0,1,.45-2.24,3,3,0,0,1,1.25-1.3A4,4,0,0,1,50.93,46a2.83,2.83,0,0,1,2.2.85,3.76,3.76,0,0,1,.78,2.62V57.2h4.26V48.78a7.57,7.57,0,0,0-.79-3.68A5,5,0,0,0,55.21,43Z"/><rect class="cls-2" x="61.48" y="42.49" width="4.26" height="14.71"/><path class="cls-2" d="M63.61,35.68a2.69,2.69,0,0,0-1.91.69,2.32,2.32,0,0,0-.13,3.27l.13.12a2.69,2.69,0,0,0,1.91.68,2.6,2.6,0,0,0,1.93-.7A2.32,2.32,0,0,0,66.27,38a2.1,2.1,0,0,0-.74-1.65A2.8,2.8,0,0,0,63.61,35.68Z"/><path class="cls-2" d="M74.28,46.26a3.88,3.88,0,0,1,2-.49,3.74,3.74,0,0,1,1.88.49,3.9,3.9,0,0,1,1.43,1.53L82.86,46a6.06,6.06,0,0,0-2.54-2.78,8.08,8.08,0,0,0-4-1,9.06,9.06,0,0,0-4.24,1,7.58,7.58,0,0,0-3,10.28l.13.23A7.2,7.2,0,0,0,72,56.44a8.94,8.94,0,0,0,4.24,1,8,8,0,0,0,4-1,6,6,0,0,0,2.54-2.74l-3.31-1.81A3.69,3.69,0,0,1,78,53.44a3.73,3.73,0,0,1-1.88.48,3.79,3.79,0,0,1-2-.5A3.45,3.45,0,0,1,72.89,52a5,5,0,0,1,0-4.37A3.56,3.56,0,0,1,74.28,46.26Z"/><path class="cls-2" d="M87.34,35.68a2.69,2.69,0,0,0-1.91.69,2.32,2.32,0,0,0-.13,3.27l.13.12a2.69,2.69,0,0,0,1.91.68,2.64,2.64,0,0,0,1.93-.7A2.32,2.32,0,0,0,90,38a2.07,2.07,0,0,0-.74-1.65A2.8,2.8,0,0,0,87.34,35.68Z"/><rect class="cls-2" x="85.21" y="42.49" width="4.26" height="14.71"/><path class="cls-2" d="M105.86,43.21a7.39,7.39,0,0,0-3.73-.94,6.49,6.49,0,0,0-3.34.82,4.86,4.86,0,0,0-1.28,1.11V42.49H93.44v20H97.7V55.62a4.52,4.52,0,0,0,1.18,1,6.17,6.17,0,0,0,3.25.82,7.48,7.48,0,0,0,3.73-.93,6.73,6.73,0,0,0,2.62-2.62,8.75,8.75,0,0,0,0-8A7,7,0,0,0,105.86,43.21ZM104.63,52a3.54,3.54,0,0,1-1.34,1.4,3.86,3.86,0,0,1-3.81,0A3.41,3.41,0,0,1,98.14,52a4.56,4.56,0,0,1-.49-2.18,4.49,4.49,0,0,1,.49-2.18,3.54,3.54,0,0,1,1.34-1.4,4,4,0,0,1,3.81,0,3.6,3.6,0,0,1,1.34,1.4,4.35,4.35,0,0,1,.51,2.18A4.46,4.46,0,0,1,104.63,52Z"/><path class="cls-2" d="M123,44a5,5,0,0,0-1.15-1,6.27,6.27,0,0,0-3.25-.82,7.56,7.56,0,0,0-3.75.93,6.85,6.85,0,0,0-2.64,2.62,8.75,8.75,0,0,0,0,8,7,7,0,0,0,2.64,2.64,7.46,7.46,0,0,0,3.75.94,6.32,6.32,0,0,0,3.32-.82,4.94,4.94,0,0,0,1.27-1.1v1.71h4.07V42.49H123Zm-.43,8a3.43,3.43,0,0,1-1.35,1.4,3.56,3.56,0,0,1-1.88.5,3.7,3.7,0,0,1-1.92-.5A3.54,3.54,0,0,1,116,52a4.46,4.46,0,0,1-.51-2.18,4.35,4.35,0,0,1,.51-2.18,3.63,3.63,0,0,1,1.35-1.4,3.79,3.79,0,0,1,1.92-.49,3.64,3.64,0,0,1,1.88.49,3.56,3.56,0,0,1,1.35,1.4,5.14,5.14,0,0,1,0,4.36Z"/><rect class="cls-2" x="130.61" y="36.91" width="4.26" height="20.28"/><path class="cls-2" d="M151.63,45.69a6.76,6.76,0,0,0-2.76-2.54,8.79,8.79,0,0,0-7.84.09,7.38,7.38,0,0,0-2.81,2.68,7.49,7.49,0,0,0-1,3.92,7.4,7.4,0,0,0,1,3.9,7.19,7.19,0,0,0,2.94,2.69,10.41,10.41,0,0,0,7.94.37A6.68,6.68,0,0,0,151.66,55l-2.27-2.46A5,5,0,0,1,145.7,54a5.11,5.11,0,0,1-2.31-.49A3.35,3.35,0,0,1,141.9,52a.54.54,0,0,0-.1-.22l10.87-2.1A7.52,7.52,0,0,0,151.63,45.69Zm-8.49.28a3.94,3.94,0,0,1,1.93-.47A3.82,3.82,0,0,1,147,46a3.52,3.52,0,0,1,1.27,1.3,4.09,4.09,0,0,1,.31.75l-7.16,1.37a4.65,4.65,0,0,1,.46-2A3.34,3.34,0,0,1,143.14,46Z"/><path class="cls-2" d="M166.94,50.7a3.65,3.65,0,0,0-1.27-1.23,6.87,6.87,0,0,0-1.74-.69,15.18,15.18,0,0,0-1.9-.37c-.63-.08-1.2-.18-1.73-.29a3.92,3.92,0,0,1-1.27-.44.87.87,0,0,1-.48-.82,1.13,1.13,0,0,1,.65-1,4.26,4.26,0,0,1,2.08-.38,9.84,9.84,0,0,1,2.09.23,7.18,7.18,0,0,1,2.15.86l1.42-3a8.3,8.3,0,0,0-2.6-1,15,15,0,0,0-3.06-.33,9.72,9.72,0,0,0-3.66.62,5.4,5.4,0,0,0-2.34,1.68,4,4,0,0,0-.81,2.46,3.87,3.87,0,0,0,.48,2,3.54,3.54,0,0,0,1.27,1.25A6.45,6.45,0,0,0,158,51a17.7,17.7,0,0,0,1.9.37l1.74.27a4.7,4.7,0,0,1,1.27.4.84.84,0,0,1,.48.78,1.07,1.07,0,0,1-.62,1,4.41,4.41,0,0,1-2.09.36,9.63,9.63,0,0,1-2.72-.4,9.11,9.11,0,0,1-2.39-1l-1.42,3.06A8.93,8.93,0,0,0,156.9,57a13.81,13.81,0,0,0,3.62.45,10.47,10.47,0,0,0,3.76-.6,5.29,5.29,0,0,0,2.36-1.65,4.18,4.18,0,0,0,.3-4.51Z"/><path class="cls-1" d="M1,64.79H83.62v2.48H1a1,1,0,0,1-1-1v-.49a1,1,0,0,1,1-1Z"/><path class="cls-3" d="M83.62,64.79h82.62a1,1,0,0,1,1,1v.49a1,1,0,0,1-1,1H83.62V64.79Z"/></g></g></g></g></svg>