<svg xmlns="http://www.w3.org/2000/svg" xmlns:xlink="http://www.w3.org/1999/xlink" viewBox="0 0 202.41 57.81"><defs><style>.cls-1{fill:#e2511e;}.cls-2{fill:url(#Degradado_sin_nombre_7);}.cls-3{fill:#fbc977;}.cls-4{fill:#fff;}.cls-5{fill:url(#Degradado_sin_nombre_68);}.cls-6{fill:url(#Degradado_sin_nombre_43);}.cls-7{fill:url(#Degradado_sin_nombre_66);}.cls-8{fill:url(#Degradado_sin_nombre_4);}.cls-9{fill:#fffae1;}</style><linearGradient id="Degradado_sin_nombre_7" x1="20.23" y1="1.7" x2="20.23" y2="53.58" gradientUnits="userSpaceOnUse"><stop offset="0" stop-color="#f19106"/><stop offset="0.91" stop-color="#d05551" stop-opacity="0"/></linearGradient><linearGradient id="Degradado_sin_nombre_68" x1="-336.14" y1="-3973.59" x2="-346.76" y2="-3967.46" gradientTransform="translate(-321.22 -3955.98) rotate(180)" gradientUnits="userSpaceOnUse"><stop offset="0" stop-color="#fcc22a" stop-opacity="0.6"/><stop offset="0.66" stop-color="#fcc22a" stop-opacity="0"/></linearGradient><linearGradient id="Degradado_sin_nombre_43" x1="13.98" y1="34.78" x2="20.69" y2="28.46" gradientUnits="userSpaceOnUse"><stop offset="0" stop-color="#fcc22a" stop-opacity="0.7"/><stop offset="0.65" stop-color="#fcc22a" stop-opacity="0"/></linearGradient><linearGradient id="Degradado_sin_nombre_66" x1="23.06" y1="30.65" x2="28.79" y2="24.92" gradientUnits="userSpaceOnUse"><stop offset="0" stop-color="#d89104" stop-opacity="0.7"/><stop offset="0.63" stop-color="#e15617" stop-opacity="0"/></linearGradient><linearGradient id="Degradado_sin_nombre_4" x1="-344.55" y1="-3984.85" x2="-348.95" y2="-3982.31" gradientTransform="translate(-321.22 -3955.98) rotate(180)" gradientUnits="userSpaceOnUse"><stop offset="0" stop-color="#fcc22a" stop-opacity="0.4"/><stop offset="0.66" stop-color="#fcc22a" stop-opacity="0"/></linearGradient></defs><g id="Capa_2" data-name="Capa 2"><g id="Capa_1-2" data-name="Capa 1"><path class="cls-1" d="M20.14,0A20.24,20.24,0,0,0,.81,25.92v0l.09.29C4,36.53,13.22,49.5,18.45,55.43a2.29,2.29,0,0,0,3.47,0c4.38-5.15,16-19.6,18.13-31.06l0-.16h0a20.51,20.51,0,0,0,.39-3.95A20.24,20.24,0,0,0,20.14,0Z"/><path class="cls-2" d="M20.15,1.7A18.68,18.68,0,0,0,2.31,25.63v0c0,.09.05.18.08.27,2.84,9.48,11.36,21.45,16.19,26.93a2.12,2.12,0,0,0,3.2,0c4-4.76,14.73-18.1,16.73-28.67l0-.15h0a19,19,0,0,0,.36-3.64A18.68,18.68,0,0,0,20.15,1.7Z"/><path class="cls-3" d="M26.16,23.33a5,5,0,0,0-5.49,2.44c-.14.23-.27.42-.37.59a13.67,13.67,0,0,0,7.2,7.4,11.18,11.18,0,0,0,2.33-4.47A5,5,0,0,0,26.16,23.33Z"/><circle class="cls-4" cx="20.23" cy="14.55" r="6.13" transform="translate(2.63 32.19) rotate(-80.78)"/><circle class="cls-4" cx="20.23" cy="14.55" r="6.13"/><circle class="cls-5" cx="20.23" cy="14.55" r="6.13"/><path class="cls-4" d="M19.45,24.86a4.92,4.92,0,0,0-3.56-1.66c-3.55-.11-5.7,2.84-4.94,6.3.52,2.42,2.36,4.36,3.79,5.67a30.3,30.3,0,0,0,2.83,2.3l2.07,1.46a1,1,0,0,0,1.15,0L23,37.67a18.55,18.55,0,0,0,4.43-3.78.13.13,0,0,0,0-.2,13.61,13.61,0,0,1-7-7.34A5,5,0,0,0,19.45,24.86Z"/><path class="cls-6" d="M19.45,24.86a4.92,4.92,0,0,0-3.56-1.66c-3.55-.11-5.7,2.84-4.94,6.3.52,2.42,2.36,4.36,3.79,5.67a30.3,30.3,0,0,0,2.83,2.3l2.07,1.46a1,1,0,0,0,1.15,0L23,37.67a18.55,18.55,0,0,0,4.43-3.78.13.13,0,0,0,0-.2,13.61,13.61,0,0,1-7-7.34A5,5,0,0,0,19.45,24.86Z"/><path class="cls-7" d="M26.16,23.33a5,5,0,0,0-5.49,2.44c-.14.23-.27.42-.37.59a13.67,13.67,0,0,0,7.2,7.4,11.18,11.18,0,0,0,2.33-4.47A5,5,0,0,0,26.16,23.33Z"/><circle class="cls-4" cx="25.53" cy="27.6" r="2.54"/><circle class="cls-8" cx="25.53" cy="27.6" r="2.54"/><path class="cls-1" d="M61.26,4h-9V7.44h8.19v3.64H52.29v3.43h9v3.64H48.52V.33H61.26Z"/><path class="cls-1" d="M76.62,10.27v7.88H72.85V10.56c0-1.8-1-2.68-2.89-2.68a2.61,2.61,0,0,0-2.84,2.55v7.72H63.35v-13h3.38L67,7a4.8,4.8,0,0,1,4.3-2.21C74.64,4.76,76.62,6.84,76.62,10.27Z"/><path class="cls-1" d="M87,9.83a2.19,2.19,0,0,0-2.34-1.95C83,7.88,82,9.39,82,11.65s1.07,3.77,2.74,3.77a2.82,2.82,0,0,0,2.83-1.74l3.2,1.51a6.36,6.36,0,0,1-6,3.35A6.22,6.22,0,0,1,80,16.65a7.12,7.12,0,0,1-1.77-5,7.09,7.09,0,0,1,1.77-5,6.19,6.19,0,0,1,4.74-1.9c3.56,0,5.72,2,6.11,5.07Z"/><path class="cls-1" d="M101.86,5.15h3.77v13h-3.38L102,16.72a4,4,0,0,1-3.57,1.82c-3.61,0-5.8-2.08-5.8-5.51V5.15H96.4v7.59c0,1.8.88,2.68,2.62,2.68a2.61,2.61,0,0,0,2.84-2.55Z"/><path class="cls-1" d="M118.15,14.28l1.17,2.89a9.54,9.54,0,0,1-5.23,1.37,6.59,6.59,0,0,1-4.92-1.89,6.94,6.94,0,0,1-1.84-5,6.92,6.92,0,0,1,1.84-5,6.55,6.55,0,0,1,4.92-1.9,6.15,6.15,0,0,1,4.24,1.35,4.35,4.35,0,0,1,1.54,3.46,4.37,4.37,0,0,1-1.62,3.54,5.78,5.78,0,0,1-3.8,1.32,5.11,5.11,0,0,1-3-1,2.64,2.64,0,0,0,2.68,1.95A7.36,7.36,0,0,0,118.15,14.28Zm-7.05-2.66a6.37,6.37,0,0,0,2.57.47,2.25,2.25,0,0,0,2.42-2.26,1.94,1.94,0,0,0-2-1.95C112.3,7.88,111.1,9.36,111.1,11.62Z"/><path class="cls-1" d="M135.3,18.15h-3.78l-1.4-8.4a2.2,2.2,0,0,0-2.39-1.87,1.94,1.94,0,0,0-2.14,2v8.27h-3.77v-13h3.12l.44,1.61a4,4,0,0,1,3.54-2c2.68,0,4.29,1.56,4.89,4.71Z"/><path class="cls-1" d="M143.13,5.15l-.55,3.12h-1.77v9.88H137V8.27h-2V5.15h2V.33h3.77V5.15Z"/><path class="cls-1" d="M154.32,5.67l-1.35,3a3.29,3.29,0,0,0-2.09-.81c-1.53,0-2.42.81-2.42,2v8.32h-3.77v-13h3.12l.55,1.92a3.14,3.14,0,0,1,2.84-2.31A5.94,5.94,0,0,1,154.32,5.67Z"/><path class="cls-1" d="M167,18.15h-3.87l-.65-2.88a4.12,4.12,0,0,1-4.29,3.27,4.6,4.6,0,0,1-3.41-1.22,4.1,4.1,0,0,1-1.2-3,3,3,0,0,1,1.17-2.5,4.65,4.65,0,0,1,2.94-.93h3.82l-.23-1a2.18,2.18,0,0,0-2.26-2A3,3,0,0,0,156.35,9l-1.74-2.27a5.3,5.3,0,0,1,4.52-2c3.18,0,5.1,1.43,5.75,4.32ZM161.42,14H158a.62.62,0,0,0-.71.7c0,.47.45.7,1.3.7A3.21,3.21,0,0,0,161.42,14Z"/><path class="cls-9" d="M52.86,33.12c0,1.12.42,1.51,1.8,1.51v3c-3.85,0-5.57-1.37-5.57-4.5V27.74H47.61V24.62c1.06,0,1.51-.7,1.51-2.55V19.81h3.77v1.45a3.59,3.59,0,0,1-1.72,3.36h3.49l-.29,3.12H52.86Z"/><path class="cls-9" d="M66.24,24.62H70v13H66.63l-.26-1.43A4,4,0,0,1,62.8,38C59.19,38,57,35.93,57,32.5V24.62h3.77v7.59a2.35,2.35,0,0,0,2.63,2.68,2.62,2.62,0,0,0,2.84-2.55Z"/><path class="cls-9" d="M102.66,29.74v7.88H98.89V30c0-1.8-1-2.68-2.89-2.68a2.61,2.61,0,0,0-2.83,2.55v7.72H89.4V30c0-1.8-1-2.68-2.89-2.68a2.61,2.61,0,0,0-2.84,2.55v7.72H79.9v-13H83l.52,1.9a4.67,4.67,0,0,1,4.35-2.29c2.42,0,4,1,4.81,3a4.64,4.64,0,0,1,4.68-3C100.68,24.23,102.66,26.31,102.66,29.74Z"/><path class="cls-9" d="M111.05,38a6.62,6.62,0,0,1-5-1.9,6.84,6.84,0,0,1-1.87-5,6.81,6.81,0,0,1,1.87-5,7.39,7.39,0,0,1,9.89,0,6.81,6.81,0,0,1,1.87,5,6.84,6.84,0,0,1-1.87,5A6.61,6.61,0,0,1,111.05,38Zm0-3.13a2.68,2.68,0,0,0,2.21-1,4.35,4.35,0,0,0,.83-2.73,4.35,4.35,0,0,0-.83-2.73,2.88,2.88,0,0,0-4.43,0,4.35,4.35,0,0,0-.83,2.73,4.35,4.35,0,0,0,.83,2.73A2.69,2.69,0,0,0,111.05,34.89Z"/><path class="cls-9" d="M141.56,37.62h-3.77l-1.32-8.06a2.37,2.37,0,0,0-2.63-2.21,2.08,2.08,0,0,0-1.56.78,2.29,2.29,0,0,0-.52,2L133,37.62h-3.77l-1.4-8.4a2.2,2.2,0,0,0-2.4-1.87,1.93,1.93,0,0,0-2.13,2v8.27h-3.77v-13h3.12l.44,1.61a4,4,0,0,1,3.54-2A4.31,4.31,0,0,1,131,27a4.09,4.09,0,0,1,3.93-2.76c2.94,0,4.65,1.56,5.2,4.71Z"/><path class="cls-9" d="M153.17,33.75l1.17,2.89A9.53,9.53,0,0,1,149.12,38a6.59,6.59,0,0,1-4.92-1.9,7,7,0,0,1-1.85-5,6.93,6.93,0,0,1,1.85-5,6.55,6.55,0,0,1,4.92-1.9,6.17,6.17,0,0,1,4.24,1.35,4.69,4.69,0,0,1-.08,7,5.8,5.8,0,0,1-3.8,1.32,5.09,5.09,0,0,1-3-1,2.64,2.64,0,0,0,2.68,2A7.35,7.35,0,0,0,153.17,33.75Zm-7-2.65a6.57,6.57,0,0,0,2.58.46,2.25,2.25,0,0,0,2.42-2.26,1.94,1.94,0,0,0-2-1.95C147.32,27.35,146.12,28.83,146.12,31.1Z"/><path class="cls-9" d="M170.32,37.62h-3.77l-1.41-8.4a2.19,2.19,0,0,0-2.39-1.87,1.93,1.93,0,0,0-2.13,2v8.27h-3.77v-13H160l.44,1.61a4,4,0,0,1,3.54-2c2.68,0,4.29,1.56,4.89,4.71Z"/><path class="cls-9" d="M175.58,33.12c0,1.12.42,1.51,1.8,1.51v3c-3.85,0-5.57-1.37-5.57-4.5V27.74h-1.48V24.62c1.06,0,1.5-.7,1.5-2.55V19.81h3.78v1.45a3.61,3.61,0,0,1-1.72,3.36h3.49l-.29,3.12h-1.51Z"/><path class="cls-9" d="M185.23,38a6.61,6.61,0,0,1-4.94-1.9,6.84,6.84,0,0,1-1.87-5,6.81,6.81,0,0,1,1.87-5,7.39,7.39,0,0,1,9.89,0,6.86,6.86,0,0,1,1.87,5,6.88,6.88,0,0,1-1.87,5A6.62,6.62,0,0,1,185.23,38Zm0-3.13a2.66,2.66,0,0,0,2.21-1,4.3,4.3,0,0,0,.84-2.73,4.3,4.3,0,0,0-.84-2.73,2.87,2.87,0,0,0-4.42,0,4.35,4.35,0,0,0-.83,2.73,4.35,4.35,0,0,0,.83,2.73A2.68,2.68,0,0,0,185.23,34.89Z"/><path class="cls-9" d="M52.59,46.32A1.41,1.41,0,0,1,52,47.5a2.26,2.26,0,0,1-1.45.43,4.54,4.54,0,0,1-1.67-.24v-.41a4.26,4.26,0,0,0,1.64.27,1.86,1.86,0,0,0,1.16-.33,1.09,1.09,0,0,0,.43-.88,1,1,0,0,0-.15-.56,1.25,1.25,0,0,0-.46-.41A5.83,5.83,0,0,0,50.6,45a3.25,3.25,0,0,1-1.26-.68,1.34,1.34,0,0,1-.35-1,1.33,1.33,0,0,1,.53-1.08,2,2,0,0,1,1.34-.42,3.93,3.93,0,0,1,1.57.31l-.15.36a3.57,3.57,0,0,0-1.41-.31,1.62,1.62,0,0,0-1,.31,1,1,0,0,0-.39.83,1.08,1.08,0,0,0,.12.54,1.18,1.18,0,0,0,.39.38,5.81,5.81,0,0,0,.93.4,4.87,4.87,0,0,1,1.05.47,1.55,1.55,0,0,1,.51.51A1.35,1.35,0,0,1,52.59,46.32Z"/><path class="cls-9" d="M53.56,42.21c0-.26.09-.39.26-.39a.23.23,0,0,1,.2.1.56.56,0,0,1,.07.29.59.59,0,0,1-.07.29.23.23,0,0,1-.2.1C53.65,42.6,53.56,42.47,53.56,42.21ZM54,47.85h-.4V43.44H54Z"/><path class="cls-9" d="M58.11,46.7a1,1,0,0,1-.45.91,2.13,2.13,0,0,1-1.28.32,3,3,0,0,1-1.4-.27v-.43a3.1,3.1,0,0,0,1.4.33,1.83,1.83,0,0,0,1-.22.66.66,0,0,0,.34-.58.71.71,0,0,0-.27-.56,2.92,2.92,0,0,0-.89-.44,4.76,4.76,0,0,1-.93-.42,1.19,1.19,0,0,1-.41-.39,1,1,0,0,1-.13-.53.91.91,0,0,1,.41-.78,2.06,2.06,0,0,1,1.17-.29,3.51,3.51,0,0,1,1.36.27l-.16.36a3.29,3.29,0,0,0-1.2-.26,1.87,1.87,0,0,0-.86.17.56.56,0,0,0-.32.5.7.7,0,0,0,.25.55,3.22,3.22,0,0,0,1,.47,4.83,4.83,0,0,1,.87.38,1.31,1.31,0,0,1,.41.4A.94.94,0,0,1,58.11,46.7Z"/><path class="cls-9" d="M60.29,47.58a3.21,3.21,0,0,0,.67-.07v.33a2.26,2.26,0,0,1-.67.09,1.11,1.11,0,0,1-.87-.31,1.47,1.47,0,0,1-.28-1V43.78h-.65v-.23l.65-.18.21-1h.2v1.07h1.3v.34h-1.3v2.8a1.26,1.26,0,0,0,.18.75A.64.64,0,0,0,60.29,47.58Z"/><path class="cls-9" d="M63.57,47.93a1.91,1.91,0,0,1-1.5-.59,2.39,2.39,0,0,1-.54-1.66A2.6,2.6,0,0,1,62.05,44a1.72,1.72,0,0,1,1.41-.64,1.52,1.52,0,0,1,1.23.54,2.27,2.27,0,0,1,.45,1.48v.33H62a2,2,0,0,0,.42,1.39,1.5,1.5,0,0,0,1.19.48,4.27,4.27,0,0,0,.67,0,5.19,5.19,0,0,0,.72-.23v.36a2.73,2.73,0,0,1-.69.22A3.73,3.73,0,0,1,63.57,47.93Zm-.11-4.22a1.33,1.33,0,0,0-1,.42A1.93,1.93,0,0,0,62,45.34h2.73a1.94,1.94,0,0,0-.33-1.2A1.09,1.09,0,0,0,63.46,43.71Z"/><path class="cls-9" d="M71.75,47.85V45a1.44,1.44,0,0,0-.25-1,1,1,0,0,0-.77-.29,1.28,1.28,0,0,0-1,.37,1.8,1.8,0,0,0-.32,1.17v2.59H69v-3c0-.74-.34-1.11-1-1.11a1.2,1.2,0,0,0-1,.4,2.11,2.11,0,0,0-.31,1.29v2.44h-.41V43.44h.34l.08.6h0a1.22,1.22,0,0,1,.52-.51,1.53,1.53,0,0,1,.74-.18,1.27,1.27,0,0,1,1.34.78h0a1.47,1.47,0,0,1,.58-.58,1.69,1.69,0,0,1,.82-.2,1.41,1.41,0,0,1,1.09.39A1.73,1.73,0,0,1,72.15,45v2.89Z"/><path class="cls-9" d="M76.14,47.85l-.1-.7h0a2.1,2.1,0,0,1-.68.61,2,2,0,0,1-.83.17,1.43,1.43,0,0,1-1-.33,1.2,1.2,0,0,1-.37-.92,1.15,1.15,0,0,1,.54-1,3,3,0,0,1,1.56-.37l.84,0V45A1.5,1.5,0,0,0,75.8,44a1,1,0,0,0-.83-.32,2.72,2.72,0,0,0-1.27.34l-.15-.35A3.3,3.3,0,0,1,75,43.36a1.42,1.42,0,0,1,1.09.38,1.64,1.64,0,0,1,.35,1.17v2.94Zm-1.63-.28a1.53,1.53,0,0,0,1.12-.41A1.51,1.51,0,0,0,76,46v-.43l-.78,0a2.8,2.8,0,0,0-1.32.29.93.93,0,0,0-.14,1.41A1,1,0,0,0,74.51,47.57Z"/><path class="cls-9" d="M81.39,43.35a1.92,1.92,0,0,1,.83.17,1.7,1.7,0,0,1,.63.6h0c0-.34,0-.67,0-1V41.53h.4v6.32H83l-.1-.67h0a1.65,1.65,0,0,1-1.45.75,1.75,1.75,0,0,1-1.4-.57,2.48,2.48,0,0,1-.48-1.65A2.74,2.74,0,0,1,80,44,1.65,1.65,0,0,1,81.39,43.35Zm0,.37a1.25,1.25,0,0,0-1.08.5,2.47,2.47,0,0,0-.37,1.48c0,1.25.49,1.88,1.46,1.88a1.33,1.33,0,0,0,1.1-.44,2.33,2.33,0,0,0,.35-1.43v-.07a2.56,2.56,0,0,0-.34-1.48A1.34,1.34,0,0,0,81.39,43.72Z"/><path class="cls-9" d="M86.39,47.93a1.91,1.91,0,0,1-1.5-.59,2.39,2.39,0,0,1-.54-1.66A2.55,2.55,0,0,1,84.87,44a1.7,1.7,0,0,1,1.4-.64,1.52,1.52,0,0,1,1.23.54A2.27,2.27,0,0,1,88,45.37v.33H84.77a2.1,2.1,0,0,0,.43,1.39,1.47,1.47,0,0,0,1.19.48,4.23,4.23,0,0,0,.66,0,5.26,5.26,0,0,0,.73-.23v.36a2.73,2.73,0,0,1-.69.22A3.8,3.8,0,0,1,86.39,47.93Zm-.12-4.22a1.31,1.31,0,0,0-1,.42,1.93,1.93,0,0,0-.45,1.21h2.73a1.88,1.88,0,0,0-.34-1.2A1.09,1.09,0,0,0,86.27,43.71Z"/><path class="cls-9" d="M91.19,47.85V41.91h.41v5.94Z"/><path class="cls-9" d="M96.14,47.85V45a1.42,1.42,0,0,0-.28-1,1.15,1.15,0,0,0-.87-.3,1.48,1.48,0,0,0-1.16.4,1.84,1.84,0,0,0-.37,1.29v2.44h-.4V43.44h.34l.08.6h0A1.66,1.66,0,0,1,95,43.35c1,0,1.51.54,1.51,1.61v2.89Z"/><path class="cls-9" d="M99.48,43.78h-1v4.07H98V43.78h-.82v-.23L98,43.4v-.34a2,2,0,0,1,.3-1.2,1.17,1.17,0,0,1,1-.37,2.67,2.67,0,0,1,.73.1l-.1.35a2.37,2.37,0,0,0-.64-.1.77.77,0,0,0-.67.28,1.62,1.62,0,0,0-.2.9v.42h1Z"/><path class="cls-9" d="M103.87,45.64a2.52,2.52,0,0,1-.53,1.69,1.82,1.82,0,0,1-1.45.6,1.86,1.86,0,0,1-1-.28,1.73,1.73,0,0,1-.68-.8,2.87,2.87,0,0,1-.23-1.21,2.51,2.51,0,0,1,.52-1.69,1.81,1.81,0,0,1,1.44-.6,1.77,1.77,0,0,1,1.43.61A2.56,2.56,0,0,1,103.87,45.64Zm-3.49,0a2.24,2.24,0,0,0,.4,1.42,1.51,1.51,0,0,0,2.26,0,2.72,2.72,0,0,0,0-2.84,1.37,1.37,0,0,0-1.14-.5,1.35,1.35,0,0,0-1.13.5A2.26,2.26,0,0,0,100.38,45.64Z"/><path class="cls-9" d="M106.7,43.35a3.21,3.21,0,0,1,.6.06l-.07.38a2.79,2.79,0,0,0-.58-.07,1.11,1.11,0,0,0-.92.48,2,2,0,0,0-.36,1.21v2.44H105V43.44h.35l0,.79h0a2,2,0,0,1,.58-.68A1.4,1.4,0,0,1,106.7,43.35Z"/><path class="cls-9" d="M113.6,47.85V45a1.44,1.44,0,0,0-.26-1,.93.93,0,0,0-.77-.29,1.24,1.24,0,0,0-1,.37,1.74,1.74,0,0,0-.33,1.17v2.59h-.41v-3q0-1.11-1-1.11a1.2,1.2,0,0,0-1,.4,2.11,2.11,0,0,0-.32,1.29v2.44h-.4V43.44h.33l.09.6h0a1.28,1.28,0,0,1,.52-.51,1.56,1.56,0,0,1,.74-.18,1.28,1.28,0,0,1,1.35.78h0a1.61,1.61,0,0,1,.58-.58,1.73,1.73,0,0,1,.83-.2,1.4,1.4,0,0,1,1.08.39A1.73,1.73,0,0,1,114,45v2.89Z"/><path class="cls-9" d="M118,47.85l-.1-.7h0a2,2,0,0,1-.69.61,1.92,1.92,0,0,1-.83.17,1.45,1.45,0,0,1-1-.33,1.19,1.19,0,0,1-.36-.92,1.15,1.15,0,0,1,.54-1,3,3,0,0,1,1.56-.37l.84,0V45a1.49,1.49,0,0,0-.26-.95,1,1,0,0,0-.82-.32,2.76,2.76,0,0,0-1.28.34l-.15-.35a3.37,3.37,0,0,1,1.44-.34,1.4,1.4,0,0,1,1.09.38,1.64,1.64,0,0,1,.36,1.17v2.94Zm-1.62-.28A1.42,1.42,0,0,0,117.88,46v-.43l-.77,0a2.88,2.88,0,0,0-1.33.29.83.83,0,0,0-.39.76.82.82,0,0,0,.25.65A1.05,1.05,0,0,0,116.36,47.57Z"/><path class="cls-9" d="M121.35,47.93a1.9,1.9,0,0,1-1.48-.59,2.87,2.87,0,0,1,0-3.38,1.93,1.93,0,0,1,1.52-.61,3.15,3.15,0,0,1,1.1.2l-.11.36a3.21,3.21,0,0,0-1-.19,1.5,1.5,0,0,0-1.23.5,2.17,2.17,0,0,0-.42,1.44,2.13,2.13,0,0,0,.42,1.4,1.43,1.43,0,0,0,1.17.51,2.8,2.8,0,0,0,1.12-.22v.38A2.51,2.51,0,0,1,121.35,47.93Z"/><path class="cls-9" d="M123.36,42.21c0-.26.08-.39.25-.39a.22.22,0,0,1,.2.1.48.48,0,0,1,.07.29.5.5,0,0,1-.07.29.22.22,0,0,1-.2.1C123.44,42.6,123.36,42.47,123.36,42.21Zm.46,5.64h-.41V43.44h.41Z"/><path class="cls-9" d="M128.82,45.64a2.51,2.51,0,0,1-.52,1.69,2,2,0,0,1-2.47.32,1.73,1.73,0,0,1-.68-.8,2.87,2.87,0,0,1-.24-1.21,2.52,2.52,0,0,1,.53-1.69,1.81,1.81,0,0,1,1.44-.6,1.78,1.78,0,0,1,1.43.61A2.55,2.55,0,0,1,128.82,45.64Zm-3.48,0a2.24,2.24,0,0,0,.4,1.42,1.51,1.51,0,0,0,2.26,0,2.72,2.72,0,0,0,0-2.84,1.37,1.37,0,0,0-1.14-.5,1.35,1.35,0,0,0-1.13.5A2.26,2.26,0,0,0,125.34,45.64Zm1.12-2.9c.2-.21.39-.44.59-.69a4.92,4.92,0,0,0,.39-.57H128v.07a4.55,4.55,0,0,1-.49.56c-.24.23-.5.46-.78.7h-.28Z"/><path class="cls-9" d="M133,47.85V45a1.37,1.37,0,0,0-.28-1,1.15,1.15,0,0,0-.87-.3,1.5,1.5,0,0,0-1.16.4,1.89,1.89,0,0,0-.37,1.29v2.44h-.4V43.44h.34l.08.6h0a1.67,1.67,0,0,1,1.54-.69c1,0,1.5.54,1.5,1.61v2.89Z"/><path class="cls-9" d="M138.63,47.93a1.6,1.6,0,0,1-1.48-.76h0v.34c0,.2,0,.42,0,.66v1.68h-.41V43.44h.34l.08.62h0a1.59,1.59,0,0,1,1.45-.71,1.63,1.63,0,0,1,1.36.59,2.64,2.64,0,0,1,.47,1.71,2.57,2.57,0,0,1-.49,1.68A1.66,1.66,0,0,1,138.63,47.93Zm0-.35a1.23,1.23,0,0,0,1.06-.51,2.37,2.37,0,0,0,.37-1.41c0-1.3-.47-1.94-1.41-1.94a1.41,1.41,0,0,0-1.13.42,2.11,2.11,0,0,0-.36,1.38v.13a2.42,2.42,0,0,0,.34,1.48A1.34,1.34,0,0,0,138.62,47.58Z"/><path class="cls-9" d="M144.25,47.85l-.1-.7h0a2.1,2.1,0,0,1-.68.61,2,2,0,0,1-.84.17,1.45,1.45,0,0,1-1-.33,1.19,1.19,0,0,1-.36-.92,1.15,1.15,0,0,1,.54-1,3,3,0,0,1,1.56-.37l.84,0V45a1.49,1.49,0,0,0-.26-.95,1,1,0,0,0-.82-.32,2.69,2.69,0,0,0-1.27.34l-.15-.35a3.29,3.29,0,0,1,1.43-.34,1.4,1.4,0,0,1,1.09.38,1.64,1.64,0,0,1,.36,1.17v2.94Zm-1.62-.28a1.5,1.5,0,0,0,1.11-.41,1.47,1.47,0,0,0,.41-1.12v-.43l-.77,0a2.88,2.88,0,0,0-1.33.29.83.83,0,0,0-.39.76.82.82,0,0,0,.25.65A1.05,1.05,0,0,0,142.63,47.57Z"/><path class="cls-9" d="M147.59,43.35a3.4,3.4,0,0,1,.61.06l-.08.38a2.69,2.69,0,0,0-.57-.07,1.11,1.11,0,0,0-.93.48,2,2,0,0,0-.36,1.21v2.44h-.4V43.44h.34l0,.79h0a1.83,1.83,0,0,1,.58-.68A1.34,1.34,0,0,1,147.59,43.35Z"/><path class="cls-9" d="M151.65,47.85l-.1-.7h0a2,2,0,0,1-.69.61,1.92,1.92,0,0,1-.83.17,1.45,1.45,0,0,1-1-.33,1.19,1.19,0,0,1-.36-.92,1.15,1.15,0,0,1,.54-1,3,3,0,0,1,1.56-.37l.84,0V45a1.49,1.49,0,0,0-.26-.95,1,1,0,0,0-.82-.32,2.76,2.76,0,0,0-1.28.34l-.15-.35a3.37,3.37,0,0,1,1.44-.34,1.4,1.4,0,0,1,1.09.38,1.64,1.64,0,0,1,.36,1.17v2.94ZM150,47.57A1.42,1.42,0,0,0,151.55,46v-.43l-.77,0a2.88,2.88,0,0,0-1.33.29.83.83,0,0,0-.39.76.82.82,0,0,0,.25.65A1.05,1.05,0,0,0,150,47.57Z"/><path class="cls-9" d="M155.69,47.85h-.4V41.53h.4Z"/><path class="cls-9" d="M159.73,47.85l-.1-.7h0a2.12,2.12,0,0,1-.69.61,1.92,1.92,0,0,1-.83.17,1.45,1.45,0,0,1-1-.33,1.19,1.19,0,0,1-.36-.92,1.16,1.16,0,0,1,.53-1,3,3,0,0,1,1.56-.37l.84,0V45a1.5,1.5,0,0,0-.25-.95,1,1,0,0,0-.83-.32,2.72,2.72,0,0,0-1.27.34l-.15-.35a3.37,3.37,0,0,1,1.44-.34,1.42,1.42,0,0,1,1.09.38,1.64,1.64,0,0,1,.36,1.17v2.94Zm-1.63-.28A1.42,1.42,0,0,0,159.63,46v-.43l-.77,0a2.84,2.84,0,0,0-1.33.29.84.84,0,0,0-.4.76.83.83,0,0,0,.26.65A1,1,0,0,0,158.1,47.57Z"/><path class="cls-9" d="M167.05,43.62a1.59,1.59,0,0,1-.59,1.32,2.6,2.6,0,0,1-1.66.46h-.91v2.45h-.42V41.91h1.46C166.34,41.91,167.05,42.48,167.05,43.62ZM163.89,45h.81a2.48,2.48,0,0,0,1.45-.33,1.25,1.25,0,0,0,.45-1.08,1.21,1.21,0,0,0-.42-1,2.12,2.12,0,0,0-1.31-.33h-1Z"/><path class="cls-9" d="M169.85,43.35a3.21,3.21,0,0,1,.6.06l-.07.38a2.79,2.79,0,0,0-.58-.07,1.11,1.11,0,0,0-.92.48,2,2,0,0,0-.36,1.21v2.44h-.41V43.44h.34l0,.79h0a1.93,1.93,0,0,1,.58-.68A1.4,1.4,0,0,1,169.85,43.35Z"/><path class="cls-9" d="M173,47.93a1.91,1.91,0,0,1-1.5-.59,2.39,2.39,0,0,1-.54-1.66,2.55,2.55,0,0,1,.52-1.69,1.71,1.71,0,0,1,1.4-.64,1.52,1.52,0,0,1,1.23.54,2.22,2.22,0,0,1,.46,1.48v.33h-3.19a2.1,2.1,0,0,0,.43,1.39,1.49,1.49,0,0,0,1.19.48,4.47,4.47,0,0,0,.67,0,5.19,5.19,0,0,0,.72-.23v.36a2.73,2.73,0,0,1-.69.22A3.73,3.73,0,0,1,173,47.93Zm-.12-4.22a1.33,1.33,0,0,0-1,.42,1.93,1.93,0,0,0-.45,1.21h2.73a1.94,1.94,0,0,0-.33-1.2A1.11,1.11,0,0,0,172.89,43.71Z"/><path class="cls-9" d="M176.64,47.85l-1.71-4.41h.41l1.15,3a10,10,0,0,1,.34,1h0c.11-.37.23-.71.34-1l1.15-3h.41L177,47.85Z"/><path class="cls-9" d="M181.15,47.93a1.91,1.91,0,0,1-1.5-.59,2.39,2.39,0,0,1-.54-1.66,2.55,2.55,0,0,1,.52-1.69,1.7,1.7,0,0,1,1.4-.64,1.52,1.52,0,0,1,1.23.54,2.27,2.27,0,0,1,.45,1.48v.33h-3.18a2.1,2.1,0,0,0,.43,1.39,1.47,1.47,0,0,0,1.19.48,4.23,4.23,0,0,0,.66,0,5.26,5.26,0,0,0,.73-.23v.36a2.73,2.73,0,0,1-.69.22A3.8,3.8,0,0,1,181.15,47.93ZM181,43.71a1.31,1.31,0,0,0-1,.42,1.93,1.93,0,0,0-.45,1.21h2.73a1.88,1.88,0,0,0-.34-1.2A1.09,1.09,0,0,0,181,43.71Z"/><path class="cls-9" d="M186.89,47.85V45a1.42,1.42,0,0,0-.28-1,1.15,1.15,0,0,0-.87-.3,1.48,1.48,0,0,0-1.16.4,1.84,1.84,0,0,0-.37,1.29v2.44h-.4V43.44h.34l.08.6h0a1.66,1.66,0,0,1,1.53-.69c1,0,1.51.54,1.51,1.61v2.89Z"/><path class="cls-9" d="M190.35,47.93a1.91,1.91,0,0,1-1.48-.59,2.41,2.41,0,0,1-.53-1.67,2.46,2.46,0,0,1,.55-1.71,2,2,0,0,1,1.53-.61,3.1,3.1,0,0,1,1.09.2l-.11.36a3.11,3.11,0,0,0-1-.19,1.5,1.5,0,0,0-1.23.5,2.17,2.17,0,0,0-.42,1.44,2.13,2.13,0,0,0,.42,1.4,1.43,1.43,0,0,0,1.17.51,2.72,2.72,0,0,0,1.11-.22v.38A2.51,2.51,0,0,1,190.35,47.93Z"/><path class="cls-9" d="M192.36,42.21c0-.26.09-.39.26-.39a.23.23,0,0,1,.2.1.56.56,0,0,1,.07.29.59.59,0,0,1-.07.29.23.23,0,0,1-.2.1C192.45,42.6,192.36,42.47,192.36,42.21Zm.46,5.64h-.4V43.44h.4Z"/><path class="cls-9" d="M197.83,45.64a2.51,2.51,0,0,1-.52,1.69,1.84,1.84,0,0,1-1.45.6,1.82,1.82,0,0,1-1-.28,1.68,1.68,0,0,1-.68-.8,2.87,2.87,0,0,1-.24-1.21,2.52,2.52,0,0,1,.53-1.69,1.78,1.78,0,0,1,1.43-.6,1.76,1.76,0,0,1,1.43.61A2.5,2.5,0,0,1,197.83,45.64Zm-3.49,0a2.3,2.3,0,0,0,.4,1.42,1.52,1.52,0,0,0,2.27,0,2.3,2.3,0,0,0,.4-1.42,2.22,2.22,0,0,0-.41-1.42,1.53,1.53,0,0,0-2.26,0A2.26,2.26,0,0,0,194.34,45.64Zm1.13-2.9c.19-.21.39-.44.58-.69a4.17,4.17,0,0,0,.4-.57H197v.07a4.83,4.83,0,0,1-.5.56c-.23.23-.49.46-.77.7h-.28Z"/><path class="cls-9" d="M202,47.85V45a1.37,1.37,0,0,0-.28-1,1.15,1.15,0,0,0-.87-.3,1.48,1.48,0,0,0-1.16.4,1.84,1.84,0,0,0-.37,1.29v2.44h-.4V43.44h.34l.08.6h0a1.66,1.66,0,0,1,1.53-.69c1,0,1.51.54,1.51,1.61v2.89Z"/><path class="cls-9" d="M50.83,53.22a1.81,1.81,0,0,1,.83.18,1.6,1.6,0,0,1,.62.6h0c0-.34,0-.68,0-1V51.4h.4v6.33h-.26l-.11-.68h0a1.62,1.62,0,0,1-1.45.76,1.71,1.71,0,0,1-1.39-.57A2.46,2.46,0,0,1,49,55.58a2.76,2.76,0,0,1,.48-1.75A1.7,1.7,0,0,1,50.83,53.22Zm0,.37a1.24,1.24,0,0,0-1.09.51,2.53,2.53,0,0,0-.36,1.47c0,1.25.48,1.88,1.45,1.88a1.32,1.32,0,0,0,1.1-.43,2.34,2.34,0,0,0,.35-1.44v-.07A2.45,2.45,0,0,0,51.94,54,1.31,1.31,0,0,0,50.83,53.59Z"/><path class="cls-9" d="M55.82,57.81a1.91,1.91,0,0,1-1.5-.6,2.37,2.37,0,0,1-.54-1.66,2.57,2.57,0,0,1,.52-1.69,1.74,1.74,0,0,1,1.4-.64,1.52,1.52,0,0,1,1.23.55,2.19,2.19,0,0,1,.46,1.48v.32H54.2A2.1,2.1,0,0,0,54.63,57a1.49,1.49,0,0,0,1.19.48,4.36,4.36,0,0,0,.67,0,4.11,4.11,0,0,0,.72-.23v.37a3.2,3.2,0,0,1-.69.22A3.73,3.73,0,0,1,55.82,57.81Zm-.12-4.23a1.33,1.33,0,0,0-1,.42,2,2,0,0,0-.45,1.22H57A2,2,0,0,0,56.63,54,1.14,1.14,0,0,0,55.7,53.58Z"/><path class="cls-9" d="M58.88,57.73h-.4V51.4h.4Z"/><path class="cls-9" d="M65.62,57.73H62.38V51.79h3.24v.38H62.79v2.24h2.67v.39H62.79v2.55h2.83Z"/><path class="cls-9" d="M72.26,57.73v-2.9a1.41,1.41,0,0,0-.25-.94,1,1,0,0,0-.77-.3,1.26,1.26,0,0,0-1,.37,1.81,1.81,0,0,0-.32,1.18v2.59H69.5v-3c0-.75-.34-1.12-1-1.12a1.2,1.2,0,0,0-1,.4,2.14,2.14,0,0,0-.32,1.3v2.44h-.4V53.31h.33l.09.6h0a1.49,1.49,0,0,1,.52-.51,1.6,1.6,0,0,1,.75-.18,1.28,1.28,0,0,1,1.34.79h0a1.45,1.45,0,0,1,.57-.58,1.65,1.65,0,0,1,.83-.21,1.42,1.42,0,0,1,1.09.39,1.77,1.77,0,0,1,.36,1.23v2.89Z"/><path class="cls-9" d="M75.83,53.22a1.7,1.7,0,0,1,1.4.59,2.67,2.67,0,0,1,.46,1.7,2.59,2.59,0,0,1-.49,1.7,1.7,1.7,0,0,1-1.39.6,1.87,1.87,0,0,1-.85-.2,1.42,1.42,0,0,1-.59-.55h0l-.11.67H74V51.4h.41V53c0,.24,0,.46,0,.66V54h0a1.61,1.61,0,0,1,.6-.59A1.91,1.91,0,0,1,75.83,53.22Zm0,.37A1.32,1.32,0,0,0,74.7,54a2.51,2.51,0,0,0-.33,1.47v.07A2.27,2.27,0,0,0,74.72,57a1.31,1.31,0,0,0,1.09.43,1.25,1.25,0,0,0,1.09-.51,2.36,2.36,0,0,0,.37-1.44C77.27,54.23,76.79,53.59,75.82,53.59Z"/><path class="cls-9" d="M81.47,57.73l-.1-.7h0a2.18,2.18,0,0,1-.68.6,1.86,1.86,0,0,1-.84.18,1.45,1.45,0,0,1-1-.33,1.21,1.21,0,0,1-.36-.93,1.13,1.13,0,0,1,.54-1,2.89,2.89,0,0,1,1.56-.38l.84,0v-.3a1.51,1.51,0,0,0-.26-1,1,1,0,0,0-.82-.32,2.85,2.85,0,0,0-1.27.34l-.15-.35a3.44,3.44,0,0,1,1.43-.34,1.44,1.44,0,0,1,1.09.38,1.65,1.65,0,0,1,.36,1.18v2.94Zm-1.62-.29a1.4,1.4,0,0,0,1.52-1.53v-.43l-.77,0a3,3,0,0,0-1.33.29.85.85,0,0,0-.39.77.81.81,0,0,0,.25.64A1,1,0,0,0,79.85,57.44Z"/><path class="cls-9" d="M84.82,53.22a3.38,3.38,0,0,1,.6.06l-.08.39a2.12,2.12,0,0,0-.57-.07,1.11,1.11,0,0,0-.93.48,2,2,0,0,0-.36,1.21v2.44h-.4V53.31h.34l0,.8h0a1.79,1.79,0,0,1,.58-.69A1.35,1.35,0,0,1,84.82,53.22Z"/><path class="cls-9" d="M88.87,57.73l-.1-.7h0a2.1,2.1,0,0,1-.69.6,1.78,1.78,0,0,1-.83.18,1.45,1.45,0,0,1-1-.33,1.21,1.21,0,0,1-.36-.93,1.13,1.13,0,0,1,.54-1A2.89,2.89,0,0,1,88,55.17l.84,0v-.3a1.51,1.51,0,0,0-.26-1,1,1,0,0,0-.82-.32,2.88,2.88,0,0,0-1.28.34l-.15-.35a3.52,3.52,0,0,1,1.44-.34,1.44,1.44,0,0,1,1.09.38,1.65,1.65,0,0,1,.36,1.18v2.94Zm-1.62-.29a1.5,1.5,0,0,0,1.11-.4,1.54,1.54,0,0,0,.41-1.13v-.43l-.77,0a3,3,0,0,0-1.33.29.85.85,0,0,0-.39.77.81.81,0,0,0,.25.64A1,1,0,0,0,87.25,57.44Z"/><path class="cls-9" d="M93.22,57.73H90.07v-.26l2.62-3.8H90.26v-.36h2.95v.26l-2.63,3.8h2.64Z"/><path class="cls-9" d="M97.84,55.51a2.55,2.55,0,0,1-.52,1.69,1.81,1.81,0,0,1-1.45.61,2,2,0,0,1-1-.28,1.79,1.79,0,0,1-.67-.81,2.87,2.87,0,0,1-.24-1.21,2.47,2.47,0,0,1,.52-1.68,1.82,1.82,0,0,1,1.44-.61,1.76,1.76,0,0,1,1.43.62A2.46,2.46,0,0,1,97.84,55.51Zm-3.49,0a2.28,2.28,0,0,0,.4,1.42,1.52,1.52,0,0,0,2.27,0,2.28,2.28,0,0,0,.4-1.42A2.22,2.22,0,0,0,97,54.09a1.39,1.39,0,0,0-1.13-.5,1.36,1.36,0,0,0-1.13.5A2.22,2.22,0,0,0,94.35,55.51Z"/><path class="cls-9" d="M103.94,55.63h-2.42l-.83,2.1h-.45l2.38-6h.27l2.34,6h-.47Zm-2.27-.37h2.13L103,53.11c-.07-.16-.15-.4-.24-.69-.08.26-.16.49-.24.7Z"/><path class="cls-9" d="M107.46,53.22a1.78,1.78,0,0,1,.83.18,1.69,1.69,0,0,1,.63.6h0c0-.34,0-.68,0-1V51.4h.4v6.33h-.27l-.1-.68h0a1.63,1.63,0,0,1-1.45.76,1.73,1.73,0,0,1-1.4-.57,2.51,2.51,0,0,1-.48-1.66,2.76,2.76,0,0,1,.48-1.75A1.68,1.68,0,0,1,107.46,53.22Zm0,.37a1.23,1.23,0,0,0-1.08.51,2.46,2.46,0,0,0-.37,1.47c0,1.25.49,1.88,1.46,1.88a1.33,1.33,0,0,0,1.1-.43,2.34,2.34,0,0,0,.35-1.44v-.07a2.44,2.44,0,0,0-.35-1.47A1.31,1.31,0,0,0,107.46,53.59Z"/><path class="cls-9" d="M114.33,55.51a2.5,2.5,0,0,1-.53,1.69,1.79,1.79,0,0,1-1.44.61,2,2,0,0,1-1-.28,1.88,1.88,0,0,1-.68-.81,3,3,0,0,1-.23-1.21,2.47,2.47,0,0,1,.52-1.68,1.82,1.82,0,0,1,1.44-.61,1.78,1.78,0,0,1,1.43.62A2.51,2.51,0,0,1,114.33,55.51Zm-3.49,0a2.22,2.22,0,0,0,.4,1.42,1.51,1.51,0,0,0,2.26,0,2.72,2.72,0,0,0,0-2.84,1.39,1.39,0,0,0-1.14-.5,1.35,1.35,0,0,0-1.12.5A2.22,2.22,0,0,0,110.84,55.51Z"/><path class="cls-9" d="M115.83,57.73h-.4V51.4h.4Z"/><path class="cls-9" d="M119,57.81a1.92,1.92,0,0,1-1.51-.6,2.41,2.41,0,0,1-.53-1.66,2.57,2.57,0,0,1,.52-1.69,1.72,1.72,0,0,1,1.4-.64,1.52,1.52,0,0,1,1.23.55,2.24,2.24,0,0,1,.45,1.48v.32h-3.18a2.1,2.1,0,0,0,.42,1.39,1.51,1.51,0,0,0,1.2.48,4.23,4.23,0,0,0,.66,0,4.45,4.45,0,0,0,.73-.23v.37a3.11,3.11,0,0,1-.7.22A3.69,3.69,0,0,1,119,57.81Zm-.12-4.23a1.33,1.33,0,0,0-1,.42,2.09,2.09,0,0,0-.45,1.22h2.73a2,2,0,0,0-.33-1.21A1.12,1.12,0,0,0,118.85,53.58Z"/><path class="cls-9" d="M124.36,56.58a1.05,1.05,0,0,1-.45.91,2.22,2.22,0,0,1-1.28.32,3,3,0,0,1-1.4-.27V57.1a3.1,3.1,0,0,0,1.4.33,1.93,1.93,0,0,0,1-.21.68.68,0,0,0,.34-.58.74.74,0,0,0-.27-.56,3.29,3.29,0,0,0-.89-.45,5.62,5.62,0,0,1-.93-.41,1.4,1.4,0,0,1-.41-.39,1,1,0,0,1-.13-.53.91.91,0,0,1,.41-.79,2.06,2.06,0,0,1,1.17-.29,3.43,3.43,0,0,1,1.35.27l-.15.37a3.12,3.12,0,0,0-1.2-.27,1.75,1.75,0,0,0-.86.18.55.55,0,0,0-.32.5.68.68,0,0,0,.25.55,3.27,3.27,0,0,0,1,.46,4.12,4.12,0,0,1,.87.39,1.19,1.19,0,0,1,.41.39A1,1,0,0,1,124.36,56.58Z"/><path class="cls-9" d="M127.14,57.81a1.87,1.87,0,0,1-1.48-.6,2.39,2.39,0,0,1-.54-1.66,2.43,2.43,0,0,1,.56-1.71,2,2,0,0,1,1.52-.62,3.15,3.15,0,0,1,1.1.2l-.11.36a3.16,3.16,0,0,0-1-.19,1.53,1.53,0,0,0-1.23.5,2.22,2.22,0,0,0-.42,1.45,2.14,2.14,0,0,0,.42,1.4,1.45,1.45,0,0,0,1.17.5,2.94,2.94,0,0,0,1.12-.21v.37A2.5,2.5,0,0,1,127.14,57.81Z"/><path class="cls-9" d="M131,57.81a1.91,1.91,0,0,1-1.5-.6,2.37,2.37,0,0,1-.54-1.66,2.57,2.57,0,0,1,.52-1.69,1.73,1.73,0,0,1,1.4-.64,1.52,1.52,0,0,1,1.23.55,2.24,2.24,0,0,1,.45,1.48v.32h-3.18A2.1,2.1,0,0,0,129.8,57a1.47,1.47,0,0,0,1.19.48,4.23,4.23,0,0,0,.66,0,4.17,4.17,0,0,0,.73-.23v.37a3.2,3.2,0,0,1-.69.22A3.8,3.8,0,0,1,131,57.81Zm-.12-4.23a1.31,1.31,0,0,0-1,.42,2,2,0,0,0-.45,1.22h2.73a1.89,1.89,0,0,0-.34-1.21A1.12,1.12,0,0,0,130.87,53.58Z"/><path class="cls-9" d="M136.73,57.73V54.86a1.44,1.44,0,0,0-.28-1,1.15,1.15,0,0,0-.87-.3,1.48,1.48,0,0,0-1.16.4,1.87,1.87,0,0,0-.37,1.3v2.44h-.4V53.31H134l.08.6h0a1.66,1.66,0,0,1,1.53-.69c1,0,1.51.54,1.51,1.62v2.89Z"/><path class="cls-9" d="M139.6,57.45a3.16,3.16,0,0,0,.66-.06v.32a1.93,1.93,0,0,1-.67.1,1.11,1.11,0,0,1-.86-.31,1.45,1.45,0,0,1-.28-1V53.66h-.66v-.24l.66-.18.2-1h.21v1.07h1.3v.35h-1.3v2.8a1.3,1.3,0,0,0,.18.75A.65.65,0,0,0,139.6,57.45Z"/><path class="cls-9" d="M142.88,57.81a1.91,1.91,0,0,1-1.5-.6,2.37,2.37,0,0,1-.54-1.66,2.57,2.57,0,0,1,.52-1.69,1.73,1.73,0,0,1,1.4-.64,1.52,1.52,0,0,1,1.23.55,2.24,2.24,0,0,1,.45,1.48v.32h-3.18a2.1,2.1,0,0,0,.43,1.39,1.47,1.47,0,0,0,1.19.48,4.23,4.23,0,0,0,.66,0,4.17,4.17,0,0,0,.73-.23v.37a3.2,3.2,0,0,1-.69.22A3.8,3.8,0,0,1,142.88,57.81Zm-.12-4.23a1.31,1.31,0,0,0-1,.42,2,2,0,0,0-.45,1.22H144a1.89,1.89,0,0,0-.34-1.21A1.12,1.12,0,0,0,142.76,53.58Z"/></g></g></svg>