<svg xmlns="http://www.w3.org/2000/svg" viewBox="0 0 263.22 60.6"><defs><style>.cls-1{fill:#f8801c;}.cls-2{fill:#993f88;}.cls-3{fill:#fff;}.cls-4{fill:#ff4c64;}.cls-5{fill:#5276b4;}.cls-6{fill:#00aa23;}.cls-7{fill:#f8bb52;}</style></defs><g id="Capa_2" data-name="Capa 2"><g id="Capa_1-2" data-name="Capa 1"><path class="cls-1" d="M72.6,29.49l7.68-17.25h4l7.71,17.25H87.75L81.44,14.26H83L76.69,29.49Zm3.84-3.69,1.06-3h8.87l1.09,3Z"/><path class="cls-1" d="M97.29,29.69a5.22,5.22,0,0,1-3.66-1.19,4.65,4.65,0,0,1-1.3-3.57V13.3h3.85V24.89a1.8,1.8,0,0,0,.43,1.29,1.59,1.59,0,0,0,1.19.46,2.57,2.57,0,0,0,1.58-.5l1,2.71a4.15,4.15,0,0,1-1.41.63A6.92,6.92,0,0,1,97.29,29.69Zm-2.84-10.2v-3h5v3Z"/><path class="cls-1" d="M102.49,29.49V11.21h3.84V29.49Z"/><path class="cls-1" d="M112.93,29.69a6.19,6.19,0,0,1-2.66-.53,4,4,0,0,1-1.7-1.44,3.92,3.92,0,0,1,0-4.12,3.84,3.84,0,0,1,1.84-1.39,9,9,0,0,1,3.27-.5h3.53V24h-3.11a2.94,2.94,0,0,0-1.86.44,1.45,1.45,0,0,0-.5,1.11,1.37,1.37,0,0,0,.58,1.17,2.57,2.57,0,0,0,1.59.43,3.32,3.32,0,0,0,1.72-.45,2.62,2.62,0,0,0,1.11-1.35l.59,1.78a3.48,3.48,0,0,1-1.53,2A5.53,5.53,0,0,1,112.93,29.69Zm4-.2V26.91l-.25-.57V21.71a2.5,2.5,0,0,0-.75-1.93,3.32,3.32,0,0,0-2.31-.69,6.76,6.76,0,0,0-2.08.34,5.5,5.5,0,0,0-1.74.9l-1.38-2.69a8.42,8.42,0,0,1,2.62-1.18,11.59,11.59,0,0,1,3.1-.42,7.07,7.07,0,0,1,4.71,1.43,5.56,5.56,0,0,1,1.67,4.46v7.56Z"/><path class="cls-1" d="M127.45,29.69a13,13,0,0,1-3.27-.41,8,8,0,0,1-2.47-1L123,25.5a8.5,8.5,0,0,0,2.15.93,9.19,9.19,0,0,0,2.46.35,3.93,3.93,0,0,0,1.88-.32,1,1,0,0,0,.56-.88.76.76,0,0,0-.44-.71,3.85,3.85,0,0,0-1.14-.35c-.48-.09-1-.17-1.57-.25s-1.13-.19-1.71-.33a5.93,5.93,0,0,1-1.58-.63,3.33,3.33,0,0,1-1.14-1.13,3.54,3.54,0,0,1-.43-1.85,3.6,3.6,0,0,1,.72-2.22,4.87,4.87,0,0,1,2.11-1.52,8.84,8.84,0,0,1,3.3-.55,13.77,13.77,0,0,1,2.76.29,7.43,7.43,0,0,1,2.34.87L132,19.93a6.39,6.39,0,0,0-1.93-.77,9,9,0,0,0-1.89-.21,3.86,3.86,0,0,0-1.87.34,1,1,0,0,0-.59.89.8.8,0,0,0,.43.74,4.15,4.15,0,0,0,1.15.39c.47.1,1,.19,1.56.26a14.72,14.72,0,0,1,1.71.33,6.29,6.29,0,0,1,1.57.63,3.19,3.19,0,0,1,1.14,1.11,3.36,3.36,0,0,1,.45,1.84,3.46,3.46,0,0,1-.74,2.18,5,5,0,0,1-2.13,1.49A9.41,9.41,0,0,1,127.45,29.69Z"/><path class="cls-1" d="M146.62,29.69a6.71,6.71,0,0,1-3.38-.85,6.32,6.32,0,0,1-2.38-2.38,7.16,7.16,0,0,1-.87-3.6,7.21,7.21,0,0,1,.87-3.62,6.2,6.2,0,0,1,2.38-2.36,6.81,6.81,0,0,1,3.38-.84,5.69,5.69,0,0,1,2.93.74A4.84,4.84,0,0,1,151.5,19a9.23,9.23,0,0,1,.69,3.84,9.48,9.48,0,0,1-.67,3.84A4.69,4.69,0,0,1,149.61,29,5.79,5.79,0,0,1,146.62,29.69Zm.66-3.15a3.27,3.27,0,0,0,1.7-.45,3.18,3.18,0,0,0,1.22-1.27,3.92,3.92,0,0,0,.46-2,3.93,3.93,0,0,0-.46-2A3.19,3.19,0,0,0,149,19.64a3.27,3.27,0,0,0-1.7-.45,3.32,3.32,0,0,0-1.72.45,3.19,3.19,0,0,0-1.22,1.25,3.93,3.93,0,0,0-.46,2,3.92,3.92,0,0,0,.46,2,3.18,3.18,0,0,0,1.22,1.27A3.32,3.32,0,0,0,147.28,26.54Zm3.48,2.95V26.78l.07-3.94-.24-3.92V11.21h3.84V29.49Z"/><path class="cls-1" d="M163.5,29.69a8.55,8.55,0,0,1-4-.89,6.43,6.43,0,0,1-3.59-5.94,6.69,6.69,0,0,1,.93-3.53,6.52,6.52,0,0,1,2.52-2.42,8,8,0,0,1,7.14-.05A6.25,6.25,0,0,1,169,19.23a7.07,7.07,0,0,1,.91,3.68,4.7,4.7,0,0,1,0,.51c0,.19,0,.37,0,.53H159.06V21.71h8.75l-1.48.66a3.68,3.68,0,0,0-.42-1.8,3,3,0,0,0-1.16-1.19A3.3,3.3,0,0,0,163,19a3.4,3.4,0,0,0-1.74.43,3,3,0,0,0-1.17,1.21,3.78,3.78,0,0,0-.42,1.83V23a3.71,3.71,0,0,0,.48,1.91,3.19,3.19,0,0,0,1.36,1.26,4.57,4.57,0,0,0,2.06.43,5.1,5.1,0,0,0,1.86-.32,4.41,4.41,0,0,0,1.46-1L169,27.55a6,6,0,0,1-2.29,1.59A8.48,8.48,0,0,1,163.5,29.69Z"/><path class="cls-1" d="M185.92,29.79a10.64,10.64,0,0,1-3.76-.65,9,9,0,0,1-3-1.86,8.68,8.68,0,0,1-2-2.84,8.85,8.85,0,0,1-.7-3.57,8.85,8.85,0,0,1,.7-3.57,8.56,8.56,0,0,1,2-2.84,9.18,9.18,0,0,1,3-1.86A10.79,10.79,0,0,1,186,12a10.61,10.61,0,0,1,4.12.76,8.17,8.17,0,0,1,3.1,2.22l-2.57,2.37a6.15,6.15,0,0,0-2-1.47,6,6,0,0,0-2.42-.48,6.47,6.47,0,0,0-2.29.39,5.22,5.22,0,0,0-1.79,1.14A5,5,0,0,0,181,18.63a6.27,6.27,0,0,0,0,4.46,5.21,5.21,0,0,0,1.15,1.76A5.12,5.12,0,0,0,183.89,26a6,6,0,0,0,2.25.4,7.26,7.26,0,0,0,2.31-.38,6.84,6.84,0,0,0,2.18-1.3l2.27,2.89a10.64,10.64,0,0,1-3.27,1.62A12.62,12.62,0,0,1,185.92,29.79Zm3.33-2.71V20.6h3.65v7Z"/><path class="cls-1" d="M201.84,29.69a8.55,8.55,0,0,1-4-.89,6.61,6.61,0,0,1-2.65-2.42,6.68,6.68,0,0,1-.93-3.52,6.69,6.69,0,0,1,.92-3.53,6.61,6.61,0,0,1,2.53-2.42,7.94,7.94,0,0,1,7.13-.05,6.28,6.28,0,0,1,2.48,2.37,7.17,7.17,0,0,1,.91,3.68,4.92,4.92,0,0,1,0,.51c0,.19,0,.37-.05.53H197.4V21.71h8.75l-1.48.66a3.8,3.8,0,0,0-.41-1.8,3.09,3.09,0,0,0-1.16-1.19,3.37,3.37,0,0,0-1.73-.43,3.43,3.43,0,0,0-1.74.43,3,3,0,0,0-1.17,1.21,3.89,3.89,0,0,0-.41,1.83V23a3.71,3.71,0,0,0,.48,1.91,3.16,3.16,0,0,0,1.35,1.26,4.57,4.57,0,0,0,2.06.43,5,5,0,0,0,1.86-.32,4.55,4.55,0,0,0,1.47-1l2,2.22A6,6,0,0,1,205,29.14,8.48,8.48,0,0,1,201.84,29.69ZM199,14.54,202.36,11h4.14L202,14.54Z"/><path class="cls-1" d="M217.81,16a6.16,6.16,0,0,1,2.82.63,4.59,4.59,0,0,1,2,1.92,6.77,6.77,0,0,1,.71,3.31v7.59h-3.84v-7a3.41,3.41,0,0,0-.7-2.37,2.56,2.56,0,0,0-2-.76,3.45,3.45,0,0,0-1.64.38A2.62,2.62,0,0,0,214,20.92a4.4,4.4,0,0,0-.41,2v6.55h-3.84V16.24h3.67v3.67l-.69-1.11a4.94,4.94,0,0,1,2.05-2.05A6.33,6.33,0,0,1,217.81,16Z"/><path class="cls-1" d="M232.4,29.69a8.52,8.52,0,0,1-4-.89,6.48,6.48,0,0,1-2.65-2.42,6.6,6.6,0,0,1-.94-3.52,6.78,6.78,0,0,1,.92-3.53,6.61,6.61,0,0,1,2.53-2.42A7.48,7.48,0,0,1,231.9,16a7.39,7.39,0,0,1,3.51.82,6.21,6.21,0,0,1,2.48,2.37,7.07,7.07,0,0,1,.91,3.68c0,.15,0,.32,0,.51s0,.37-.05.53H228V21.71h8.75l-1.48.66a3.68,3.68,0,0,0-.42-1.8,3,3,0,0,0-1.16-1.19,3.3,3.3,0,0,0-1.72-.43,3.4,3.4,0,0,0-1.74.43A3,3,0,0,0,229,20.59a3.78,3.78,0,0,0-.42,1.83V23a3.71,3.71,0,0,0,.48,1.91,3.13,3.13,0,0,0,1.36,1.26,4.55,4.55,0,0,0,2.05.43,5.12,5.12,0,0,0,1.87-.32,4.41,4.41,0,0,0,1.46-1l2.05,2.22a6,6,0,0,1-2.3,1.59A8.42,8.42,0,0,1,232.4,29.69Z"/><path class="cls-1" d="M240.31,29.49V16.24H244V20l-.52-1.08a4.21,4.21,0,0,1,1.9-2.13,6.39,6.39,0,0,1,3.18-.73v3.55l-.45,0h-.42a3.26,3.26,0,0,0-3.52,3.69v6.26Z"/><path class="cls-1" d="M256,29.69a7.75,7.75,0,0,1-3.75-.89,6.71,6.71,0,0,1-2.59-2.42,6.72,6.72,0,0,1,2.59-9.47,8.52,8.52,0,0,1,7.5,0,6.72,6.72,0,0,1,0,11.89A7.81,7.81,0,0,1,256,29.69Zm0-3.15a3.36,3.36,0,0,0,1.73-.45,3.16,3.16,0,0,0,1.21-1.27,4.61,4.61,0,0,0,0-3.93,3.17,3.17,0,0,0-1.21-1.25,3.36,3.36,0,0,0-1.73-.45,3.32,3.32,0,0,0-1.72.45A3.19,3.19,0,0,0,253,20.89a3.93,3.93,0,0,0-.46,2,3.92,3.92,0,0,0,.46,2,3.18,3.18,0,0,0,1.22,1.27A3.32,3.32,0,0,0,256,26.54Z"/><path class="cls-2" d="M81.16,51.86a8.07,8.07,0,0,1-3-.54,7.07,7.07,0,0,1-2.37-1.49,6.79,6.79,0,0,1-1.56-2.25,7.58,7.58,0,0,1,0-5.67,6.73,6.73,0,0,1,1.56-2.26,7.4,7.4,0,0,1,2.37-1.49,8.59,8.59,0,0,1,5.94,0,7.46,7.46,0,0,1,2.36,1.49A6.45,6.45,0,0,1,88,41.91a7.11,7.11,0,0,1,.56,2.83A7.21,7.21,0,0,1,88,47.59a6.33,6.33,0,0,1-1.56,2.25,7.26,7.26,0,0,1-2.36,1.48A7.9,7.9,0,0,1,81.16,51.86Zm0-2.26a5.06,5.06,0,0,0,1.93-.35,4.55,4.55,0,0,0,1.55-1,4.73,4.73,0,0,0,1-1.54A5,5,0,0,0,86,44.74a4.86,4.86,0,0,0-.37-1.94,4.73,4.73,0,0,0-1-1.54,4.27,4.27,0,0,0-1.55-1,5.35,5.35,0,0,0-3.86,0,4.41,4.41,0,0,0-1.54,1,4.79,4.79,0,0,0-1,1.54,5,5,0,0,0-.36,1.94,5.11,5.11,0,0,0,.36,1.94,5,5,0,0,0,1,1.55,4.51,4.51,0,0,0,1.54,1A5.11,5.11,0,0,0,81.14,49.6Z"/><path class="cls-2" d="M95.6,51.66l6.23-13.83h2.53l6.24,13.83h-2.68l-5.36-12.47h1L98.25,51.66Zm2.87-3.2.69-2h7.47l.69,2Z"/><path class="cls-2" d="M116.43,51.66l5.83-8v1.93l-5.55-7.74h2.9l4.13,5.73-1.18,0,4.09-5.75h2.79l-5.52,7.6V43.58l5.87,8.08h-3l-4.35-6.09h1.17l-4.29,6.09Z"/><path class="cls-2" d="M135.6,51.66l6.23-13.83h2.53l6.24,13.83h-2.69l-5.35-12.47h1l-5.33,12.47Zm2.87-3.2.69-2h7.47l.69,2Z"/><path class="cls-2" d="M165,51.86a8,8,0,0,1-2.94-.53,7.06,7.06,0,0,1-2.35-1.48,6.7,6.7,0,0,1-1.55-2.26,7.63,7.63,0,0,1,0-5.69,6.63,6.63,0,0,1,1.56-2.26,7.18,7.18,0,0,1,2.35-1.49,8.6,8.6,0,0,1,6,.06,6.27,6.27,0,0,1,2.37,1.73l-1.66,1.56a4.91,4.91,0,0,0-3.7-1.62,5.29,5.29,0,0,0-2,.36,4.59,4.59,0,0,0-2.59,2.55,5.13,5.13,0,0,0-.37,2,5.18,5.18,0,0,0,.37,2,4.59,4.59,0,0,0,2.59,2.55,5.28,5.28,0,0,0,2,.35,5,5,0,0,0,2-.4A4.83,4.83,0,0,0,168.84,48l1.66,1.59a6.33,6.33,0,0,1-2.37,1.71A7.89,7.89,0,0,1,165,51.86Z"/><path class="cls-2" d="M177.16,51.66l6.22-13.83h2.53l6.25,13.83h-2.69l-5.35-12.47h1l-5.33,12.47Zm2.86-3.2.7-2h7.47l.69,2Z"/><path class="cls-2" d="M17,0h43.6a0,0,0,0,1,0,0V43.6a17,17,0,0,1-17,17H0a0,0,0,0,1,0,0V17A17,17,0,0,1,17,0Z"/><path class="cls-3" d="M52.45,25.4H42.12l-.4,1.91a8.45,8.45,0,0,1,2.61,1.27c.32.47.46,2.69.48,4.38a8.28,8.28,0,0,1-2.9.46c-4.22,0-6.85-3.12-6.85-8.29a11.7,11.7,0,0,1,2.44-7.47,6.61,6.61,0,0,1,3.35-.87,3.72,3.72,0,0,1,3,1.06,20.23,20.23,0,0,1,1,4.32c.74.11,2.59.16,3.4.16.25-1,.93-4,1.22-5.62l-.54-1a13.62,13.62,0,0,0-7-1.91c-7,0-12.91,4.89-12.91,11.74a13.93,13.93,0,0,0,.31,3c-1.24-3.17-2.74-7.08-4.13-10.59a28.09,28.09,0,0,1-1.12-3.56,28.2,28.2,0,0,0-5.76.54l-1,3c-2.2,5.68-4.54,11.55-6.39,15.32L8.38,34.51l.41,1.9h9.78l.41-1.9-3.53-1.23c.3-1,.65-2.17,1-3.34l7.72-.19c.49,1.41.93,2.72,1.31,3.81l-2.72.95.41,1.9h10.7l.3-1.36a14.13,14.13,0,0,0,7,1.63,16.6,16.6,0,0,0,9-2.58v-.54a43.49,43.49,0,0,1,.27-5.33l2.45-.92Zm-35,1.5c.9-2.69,1.88-5.47,2.83-7.88,1.06,2.66,2.06,5.46,3,8Z"/><path class="cls-3" d="M12,45.94a2.88,2.88,0,0,1-1.11-.2,2.52,2.52,0,0,1-.89-.57,2.56,2.56,0,0,1-.58-.86,2.65,2.65,0,0,1-.21-1.07,2.74,2.74,0,0,1,.21-1.08A2.78,2.78,0,0,1,10,41.3a2.83,2.83,0,0,1,.89-.57,3.08,3.08,0,0,1,1.11-.2,3,3,0,0,1,1.11.2,2.83,2.83,0,0,1,.89.57,2.59,2.59,0,0,1,.59.86,3,3,0,0,1,0,2.16,2.69,2.69,0,0,1-.59.86,2.64,2.64,0,0,1-.89.56A2.85,2.85,0,0,1,12,45.94Zm0-.5a2.35,2.35,0,0,0,.89-.16,2.12,2.12,0,0,0,.71-.46,2.18,2.18,0,0,0,.46-.7,2.36,2.36,0,0,0,0-1.76,2.08,2.08,0,0,0-.46-.7,2.12,2.12,0,0,0-.71-.46,2.39,2.39,0,0,0-1.77,0,2.16,2.16,0,0,0-.72.46,2.27,2.27,0,0,0-.47.7,2.27,2.27,0,0,0,.47,2.46,2.16,2.16,0,0,0,.72.46A2.33,2.33,0,0,0,12,45.44Z"/><path class="cls-3" d="M16.63,45.9l2.43-5.32h.56l2.43,5.32h-.59l-2.24-5h.23l-2.24,5Zm1-1.42.16-.46h3.1l.16.46Z"/><path class="cls-3" d="M23.47,45.9,25.65,43v.43l-2-2.8h.64L26,42.92h-.25l1.72-2.35h.61l-2,2.76V43L28.2,45.9h-.66L25.7,43.4h.24l-1.82,2.5Z"/><path class="cls-3" d="M29.62,45.9l2.43-5.32h.56L35,45.9h-.59l-2.24-5h.23l-2.24,5Zm1-1.42.16-.46h3.1l.16.46Z"/><path class="cls-3" d="M39.68,45.94a2.82,2.82,0,0,1-1.11-.2,2.64,2.64,0,0,1-.89-.56,2.83,2.83,0,0,1-.58-.86,2.88,2.88,0,0,1,0-2.16,2.59,2.59,0,0,1,.59-.86,2.78,2.78,0,0,1,.88-.57,3.08,3.08,0,0,1,1.11-.2,3,3,0,0,1,1.09.2,2.15,2.15,0,0,1,.86.58l-.36.36a2,2,0,0,0-.72-.49,2.45,2.45,0,0,0-1.74,0,2.27,2.27,0,0,0-.72.46,2.1,2.1,0,0,0-.47.7,2.36,2.36,0,0,0,0,1.76,2.21,2.21,0,0,0,.47.7,2.27,2.27,0,0,0,.72.46,2.35,2.35,0,0,0,.89.16,2.37,2.37,0,0,0,.85-.15,2,2,0,0,0,.72-.49l.36.36a2.28,2.28,0,0,1-.86.59A3,3,0,0,1,39.68,45.94Z"/><path class="cls-3" d="M43.36,45.9l2.43-5.32h.56l2.43,5.32h-.59L46,40.9h.23L44,45.9Zm1-1.42.17-.46h3.09l.17.46Z"/><path class="cls-4" d="M5.63,21.1V17A11.38,11.38,0,0,1,17,5.63h4V0H17A17,17,0,0,0,0,17v4.1Z"/><path class="cls-5" d="M55,39.5v4.1A11.38,11.38,0,0,1,43.6,55H39.37v5.62H43.6a17,17,0,0,0,17-17V39.5Z"/><rect class="cls-6" y="39.5" width="5.6" height="21.1"/><rect class="cls-6" x="7.75" y="47.25" width="5.6" height="21.1" transform="translate(68.35 47.25) rotate(90)"/><rect class="cls-7" x="54.99" width="5.6" height="21.1" transform="translate(115.58 21.1) rotate(180)"/><rect class="cls-7" x="47.24" y="-7.75" width="5.6" height="21.1" transform="translate(47.24 52.84) rotate(-90)"/></g></g></svg>