<svg xmlns="http://www.w3.org/2000/svg" viewBox="0 0 462.18 66.78"><defs><style>.cls-1{fill:#fff;}.cls-2{fill:#ff4c64;}.cls-3{fill:#00afa5;}.cls-4{fill:#00b023;}.cls-5{fill:#fe851c;}.cls-6{fill:#0797d4;}.cls-7{fill:#9f3f8e;}.cls-8{fill:#5276ba;}.cls-9{fill:#fec152;}.cls-10{fill:#9d2449;}</style></defs><g id="Capa_2" data-name="Capa 2"><g id="Capa_1-2" data-name="Capa 1"><rect class="cls-1" width="65.87" height="66.78" rx="19.42"/><path class="cls-2" d="M7.71,20.9a13,13,0,0,1,13-13h.1V2.27h-.69A17.9,17.9,0,0,0,2.23,20.16V24H7.71Z"/><path class="cls-3" d="M45.25,7.89a13,13,0,0,1,13,13v.37h5.38V20.16A17.9,17.9,0,0,0,45.74,2.27H42.23V7.89Z"/><path class="cls-4" d="M20.72,59.05a13,13,0,0,1-13-13v-.38H2.23v1a17.91,17.91,0,0,0,17.9,17.9h3.36V59.05Z"/><path class="cls-5" d="M20.14,51a4.37,4.37,0,0,1-4.37-4.37h0a3.72,3.72,0,0,0-3.72-3.72H2.23v2.77H9.66a1,1,0,0,1,1,1h0a9.51,9.51,0,0,0,9.51,9.51h3.36v-1.8A3.35,3.35,0,0,0,20.14,51Z"/><path class="cls-6" d="M20.82,2.27V10a.68.68,0,0,1-.69.68h0a9.51,9.51,0,0,0-9.51,9.51V24H12a3.77,3.77,0,0,0,3.77-3.78h0a4.37,4.37,0,0,1,4.37-4.37h.36a3,3,0,0,0,3-3V2.27Z"/><path class="cls-7" d="M58.26,21.27H56.35a1.1,1.1,0,0,1-1.1-1.11h0a9.51,9.51,0,0,0-9.51-9.51H42.23v1.54a3.61,3.61,0,0,0,3.61,3.61h0a4.37,4.37,0,0,1,4.37,4.37h0A3.78,3.78,0,0,0,54,24h9.65V21.27Z"/><path class="cls-8" d="M58.26,42.89V46a13,13,0,0,1-13,13H45v5.47h.73a17.91,17.91,0,0,0,17.9-17.9V42.89Z"/><path class="cls-9" d="M50.21,46.61h0A4.37,4.37,0,0,1,45.84,51h0a3.62,3.62,0,0,0-3.61,3.62v9.92H45V56.86a.73.73,0,0,1,.73-.73h0a9.51,9.51,0,0,0,9.51-9.51V42.89H53.94A3.72,3.72,0,0,0,50.21,46.61Z"/><rect class="cls-10" x="55.66" y="26.62" width="2.62" height="5.4"/><polygon class="cls-10" points="60.97 26.62 60.97 34.72 52.97 34.72 52.97 26.62 50.21 26.62 50.21 40.12 63.64 40.12 63.64 26.62 60.97 26.62"/><polygon class="cls-10" points="34.28 32.02 40.93 32.02 36.92 25.28 41 18.53 34.28 18.53 34.28 32.02"/><path class="cls-10" d="M45.28,18.53H41l4,6.75L41.06,32h6.65V21A2.43,2.43,0,0,0,45.28,18.53Z"/><rect class="cls-10" x="18.26" y="23.95" width="13.42" height="2.68"/><path class="cls-10" d="M31.68,21.12V18.53h-11A2.43,2.43,0,0,0,18.26,21v.16Z"/><rect class="cls-10" x="18.26" y="29.45" width="13.42" height="2.58"/><polygon class="cls-10" points="39.61 34.76 37.03 34.76 37.03 37.48 34.28 37.48 34.28 40.11 39.61 40.11 39.61 34.76"/><polygon class="cls-10" points="47.71 40.11 47.71 37.48 44.92 37.48 44.92 34.76 42.34 34.76 42.34 40.11 47.71 40.11"/><polygon class="cls-10" points="42.34 42.85 42.34 48.25 44.92 48.25 44.92 45.49 47.71 45.49 47.71 42.85 42.34 42.85"/><polygon class="cls-10" points="34.28 42.85 34.28 45.49 37.03 45.49 37.03 48.25 39.61 48.25 39.61 42.85 34.28 42.85"/><rect class="cls-10" x="39.61" y="40.11" width="2.73" height="2.73"/><polygon class="cls-10" points="9.05 36.77 6.13 33.36 9.07 29.94 6.42 26.62 2.23 26.62 2.23 40.12 6.19 40.12 9.05 36.77"/><polygon class="cls-10" points="9.17 26.62 11.86 29.99 8.96 33.36 11.88 36.76 9.02 40.12 15.66 40.12 15.66 26.62 9.17 26.62"/><path class="cls-10" d="M18.26,43.88v1.94a2.43,2.43,0,0,0,2.43,2.43h11V43.88Z"/><polygon class="cls-10" points="19.7 39.16 19.7 40.75 21.15 40.75 21.15 42.29 25.67 42.29 25.67 39.27 24.2 39.27 24.2 40.73 22.65 40.73 22.65 37.81 27.23 37.81 27.23 39.23 28.75 39.23 28.75 40.68 30.16 40.68 30.16 42.29 31.68 42.29 31.68 34.76 18.26 34.76 18.26 39.16 19.7 39.16"/><path class="cls-10" d="M29,52.63a2.8,2.8,0,0,0,1.66.47,2.84,2.84,0,0,0,1.66-.47,5.64,5.64,0,0,1,5.69,0,2.85,2.85,0,0,0,1.61.47V51H26.24v.84A5.27,5.27,0,0,1,29,52.63Z"/><path class="cls-10" d="M36.86,54.54a3.15,3.15,0,0,0-3.31,0,5.23,5.23,0,0,1-2.85.78,5.17,5.17,0,0,1-2.85-.78,2.84,2.84,0,0,0-1.61-.46v2a5.26,5.26,0,0,1,2.8.78,2.87,2.87,0,0,0,1.66.46,2.91,2.91,0,0,0,1.66-.46,5.58,5.58,0,0,1,5.69,0,2.84,2.84,0,0,0,1.61.46v-2A5.27,5.27,0,0,1,36.86,54.54Z"/><path class="cls-10" d="M36.86,62.91a3.15,3.15,0,0,0-3.31,0,5.33,5.33,0,0,1-2.85.77,5.27,5.27,0,0,1-2.85-.77,2.85,2.85,0,0,0-1.61-.47v2.08H39.66v-.84A5.27,5.27,0,0,1,36.86,62.91Z"/><path class="cls-10" d="M35.21,58.26a2.8,2.8,0,0,0-1.66.47,5.33,5.33,0,0,1-2.85.77,5.27,5.27,0,0,1-2.85-.77,2.85,2.85,0,0,0-1.61-.47v2A5.27,5.27,0,0,1,29,61a2.87,2.87,0,0,0,1.66.47A2.92,2.92,0,0,0,32.36,61a5.64,5.64,0,0,1,5.69,0,2.92,2.92,0,0,0,1.61.47v-2a5.27,5.27,0,0,1-2.8-.77A2.79,2.79,0,0,0,35.21,58.26Z"/><path class="cls-10" d="M32.93,2.31a2.43,2.43,0,0,1,1.92.93.85.85,0,0,0,.77.32,2.45,2.45,0,0,1,2.72,2.72.83.83,0,0,0,.32.77,2.45,2.45,0,0,1,0,3.84.83.83,0,0,0-.32.77,2.45,2.45,0,0,1-2.72,2.72.85.85,0,0,0-.77.32,2.45,2.45,0,0,1-3.84,0,.85.85,0,0,0-.77-.32,2.46,2.46,0,0,1-2-.7,2.43,2.43,0,0,1-.7-2,.85.85,0,0,0-.32-.77,2.45,2.45,0,0,1,0-3.84.85.85,0,0,0,.32-.77,2.43,2.43,0,0,1,.7-2,2.46,2.46,0,0,1,2-.7A.85.85,0,0,0,31,3.24a2.43,2.43,0,0,1,1.92-.93H26.22V15.8H39.64V2.31Z"/><circle class="cls-10" cx="32.93" cy="8.97" r="1.34"/><path class="cls-1" d="M82.93,31.86a16,16,0,0,1,16.24-16.2c8.72,0,14.73,5.47,14.73,14.45,0,9.55-7.11,16.19-15.86,16.19C89.1,46.3,82.93,40.83,82.93,31.86Zm21.16,8.42a18.56,18.56,0,0,0,1.79-8.49c0-7.26-2.19-11.64-7.7-11.64a8.12,8.12,0,0,0-4.67,1.31A16.9,16.9,0,0,0,91,31c0,6.75,3,11,8,11A7.47,7.47,0,0,0,104.09,40.28Z"/><path class="cls-1" d="M127.66,45.57H114.53L114,43l3.46-1.64c2.49-5.07,5.62-13,8.58-20.57l1.38-4a38.3,38.3,0,0,1,7.74-.73,36,36,0,0,0,1.49,4.78c3.07,7.73,6.5,16.88,8.25,20.75L148.74,43l-.54,2.55H133.82L133.28,43l3.64-1.28c-.51-1.46-1.09-3.21-1.75-5.1l-10.36.25c-.47,1.57-1,3.1-1.35,4.49L128.21,43ZM133.9,33c-1.21-3.43-2.56-7.19-4-10.76-1.28,3.24-2.59,7-3.79,10.58Z"/><path class="cls-1" d="M153.27,41.6c2.41-2.23,5.43-6.5,8.46-11-3.21-4.38-6.27-8.28-7.95-10.07a24.36,24.36,0,0,0-3.5-1.56l.54-2.56c3.29,0,7.34-.07,10-.18a103.08,103.08,0,0,0,7,11.23c1.35-2.4,2.66-4.77,3.76-6.82A28.66,28.66,0,0,0,167.53,19l.55-2.56h13.13l.55,2.56c-.88.4-2.19,1.05-3.07,1.49A62.39,62.39,0,0,0,170.38,31c3.28,4.53,6.49,8.61,8.2,10.47,1,.51,2.3,1.1,3.51,1.57l-.55,2.55c-3.21,0-7.26.08-9.89.19a107.19,107.19,0,0,0-7.37-11.6c-1.42,2.44-2.88,5.07-4,7.22,1.28.51,3.1,1.13,4.74,1.64l-.55,2.55H150.64L150.09,43C151,42.66,152.32,42.07,153.27,41.6Z"/><path class="cls-1" d="M197.12,45.57H184L183.44,43l3.46-1.64c2.48-5.07,5.62-13,8.58-20.57l1.38-4a38.27,38.27,0,0,1,7.73-.73,37.73,37.73,0,0,0,1.5,4.78c3.06,7.73,6.49,16.88,8.24,20.75L218.2,43l-.55,2.55H203.28L202.73,43l3.65-1.28c-.51-1.46-1.09-3.21-1.75-5.1l-10.36.25c-.47,1.57-1,3.1-1.35,4.49L197.66,43ZM203.35,33c-1.2-3.43-2.55-7.19-4-10.76-1.28,3.24-2.59,7-3.8,10.58Z"/><path class="cls-1" d="M238.78,40.76c.36-.84,1-2.81,1.64-5.14a45.3,45.3,0,0,1,4.92.21c.11,1.79.19,4.64.19,6.24l-.66,1.31a21.18,21.18,0,0,1-11.09,2.92c-9.7,0-15.69-5.61-15.69-14.81,0-9.37,7.74-15.83,16.6-15.83a23.57,23.57,0,0,1,10.76,2.56l.73,1.27c-.4,2.23-1.13,5.44-1.64,7.55a37.68,37.68,0,0,1-4.56-.22,23.25,23.25,0,0,0-1.42-5.39,9.16,9.16,0,0,0-4.93-1.28,9.25,9.25,0,0,0-4.41,1,16,16,0,0,0-3.1,9.85c0,6.35,3.21,10.58,8.61,10.58A8.64,8.64,0,0,0,238.78,40.76Z"/><path class="cls-1" d="M261.21,45.57H248.08L247.53,43,251,41.38c2.48-5.07,5.62-13,8.57-20.57l1.39-4a38.11,38.11,0,0,1,7.73-.73,36.17,36.17,0,0,0,1.5,4.78c3.06,7.73,6.49,16.88,8.24,20.75L282.3,43l-.55,2.55H267.38L266.83,43l3.65-1.28c-.51-1.46-1.1-3.21-1.75-5.1l-10.36.25c-.48,1.57-.95,3.1-1.35,4.49L261.76,43ZM267.45,33c-1.2-3.43-2.55-7.19-4-10.76-1.27,3.24-2.59,7-3.79,10.58Z"/><path class="cls-1" d="M103.46,59.2A4,4,0,0,1,102,59a3.39,3.39,0,0,1-1.13-.71,3.21,3.21,0,0,1-.74-1.07,3.24,3.24,0,0,1-.27-1.34,3.32,3.32,0,0,1,.27-1.35,3.1,3.1,0,0,1,.75-1.07,3.36,3.36,0,0,1,1.13-.7,3.91,3.91,0,0,1,1.43-.25,4.05,4.05,0,0,1,1.56.29,3.08,3.08,0,0,1,1.17.84l-1,.89a2.33,2.33,0,0,0-.77-.55,2.12,2.12,0,0,0-.91-.19,2.41,2.41,0,0,0-.87.15,1.88,1.88,0,0,0-.67.43,2,2,0,0,0-.44.66,2.3,2.3,0,0,0-.15.85,2.23,2.23,0,0,0,.15.83,1.91,1.91,0,0,0,.44.67,1.88,1.88,0,0,0,.67.43,2.34,2.34,0,0,0,.85.15,2.57,2.57,0,0,0,.87-.15,2.41,2.41,0,0,0,.82-.48l.86,1.08a3.9,3.9,0,0,1-1.24.62A4.78,4.78,0,0,1,103.46,59.2Zm1.25-1V55.73h1.38v2.64Z"/><path class="cls-1" d="M113.3,59.2a4,4,0,0,1-1.43-.25,3.39,3.39,0,0,1-1.13-.71,3.07,3.07,0,0,1-.74-1.07,3.23,3.23,0,0,1-.27-1.33A3.27,3.27,0,0,1,110,54.5a3.07,3.07,0,0,1,.74-1.07,3.6,3.6,0,0,1,1.14-.71,4.13,4.13,0,0,1,2.83,0,3.51,3.51,0,0,1,1.12.71,3.39,3.39,0,0,1,.75,3.75,3.23,3.23,0,0,1-.75,1.07,3.48,3.48,0,0,1-1.12.7A3.8,3.8,0,0,1,113.3,59.2Zm0-1.28a2.16,2.16,0,0,0,.81-.15,1.85,1.85,0,0,0,.64-.43,1.76,1.76,0,0,0,.43-.66,2.06,2.06,0,0,0,.16-.84,2.11,2.11,0,0,0-.16-.85,2.06,2.06,0,0,0-.42-.66,1.89,1.89,0,0,0-.65-.43,2.16,2.16,0,0,0-.81-.15,2.07,2.07,0,0,0-.8.15,1.89,1.89,0,0,0-.65.43,1.93,1.93,0,0,0-.43.66,2.46,2.46,0,0,0,0,1.69,1.84,1.84,0,0,0,.43.66,1.76,1.76,0,0,0,.64.43A2.16,2.16,0,0,0,113.29,57.92Z"/><path class="cls-1" d="M120.64,59.09V52.58h3.18a3.05,3.05,0,0,1,1.85.47,1.47,1.47,0,0,1,.62,1.22,1.6,1.6,0,0,1-.25.89,1.63,1.63,0,0,1-.69.58,2.31,2.31,0,0,1-1,.21l.18-.38a2.68,2.68,0,0,1,1.09.2,1.62,1.62,0,0,1,.74.59,1.71,1.71,0,0,1,.26,1,1.51,1.51,0,0,1-.66,1.31,3.34,3.34,0,0,1-1.94.47Zm1.5-1.13h1.76a1.78,1.78,0,0,0,.89-.19.77.77,0,0,0,0-1.22,1.59,1.59,0,0,0-.89-.2H122v-1.1h1.61a1.54,1.54,0,0,0,.84-.19.66.66,0,0,0,.29-.58.64.64,0,0,0-.29-.57,1.54,1.54,0,0,0-.84-.19h-1.5Z"/><path class="cls-1" d="M130.42,59.09V52.58h1.5v6.51Z"/><path class="cls-1" d="M137.62,57.88h3.54v1.21h-5V52.58H141v1.21h-3.42Zm-.11-2.68h3.13v1.18h-3.13Z"/><path class="cls-1" d="M145,59.09V52.58h2.82a3.62,3.62,0,0,1,1.5.29,2.12,2.12,0,0,1,1.32,2.07,2.21,2.21,0,0,1-.34,1.25,2.25,2.25,0,0,1-1,.81,3.79,3.79,0,0,1-1.5.28h-2l.67-.66v2.47Zm1.51-2.31-.67-.7h1.89a1.52,1.52,0,0,0,1-.3,1.07,1.07,0,0,0,.35-.84,1,1,0,0,0-.35-.83,1.52,1.52,0,0,0-1-.3h-1.89l.67-.72Zm2.63,2.31-1.63-2.36h1.61l1.64,2.36Z"/><path class="cls-1" d="M154.51,59.09V52.58h1.25l3.84,4.69H159V52.58h1.49v6.51h-1.24l-3.85-4.69H156v4.69Z"/><path class="cls-1" d="M167.84,59.2a3.85,3.85,0,0,1-1.42-.25,3.33,3.33,0,0,1-1.14-.71,3.31,3.31,0,0,1-1-2.4,3.27,3.27,0,0,1,.27-1.34,3.1,3.1,0,0,1,.75-1.07,3.55,3.55,0,0,1,1.13-.71,4.13,4.13,0,0,1,2.83,0,3.55,3.55,0,0,1,1.13.71,3.3,3.3,0,0,1,.75,1.06,3.61,3.61,0,0,1,0,2.69,3.23,3.23,0,0,1-.75,1.07,3.53,3.53,0,0,1-1.13.7A3.8,3.8,0,0,1,167.84,59.2Zm0-1.28a2.12,2.12,0,0,0,.81-.15,1.85,1.85,0,0,0,.64-.43,1.91,1.91,0,0,0,.44-.66,2.24,2.24,0,0,0,.15-.84,2.06,2.06,0,0,0-.58-1.51,1.8,1.8,0,0,0-.65-.43,2.12,2.12,0,0,0-.81-.15,2.07,2.07,0,0,0-.8.15,1.89,1.89,0,0,0-.65.43A2.09,2.09,0,0,0,166,55a2.46,2.46,0,0,0,0,1.69,2,2,0,0,0,.43.66,1.8,1.8,0,0,0,.65.43A2.07,2.07,0,0,0,167.83,57.92Z"/><path class="cls-1" d="M180.48,59.09V52.58h3a4.12,4.12,0,0,1,1.87.41,3.1,3.1,0,0,1,1.27,1.13,3.49,3.49,0,0,1,0,3.43,3.12,3.12,0,0,1-1.27,1.14,4.12,4.12,0,0,1-1.87.4Zm1.5-1.24h1.38a2.51,2.51,0,0,0,1.13-.24,1.79,1.79,0,0,0,.74-.7,2.28,2.28,0,0,0,0-2.15,1.71,1.71,0,0,0-.74-.69,2.38,2.38,0,0,0-1.13-.25H182Z"/><path class="cls-1" d="M192.31,57.88h3.54v1.21h-5V52.58h4.91v1.21h-3.42Zm-.11-2.68h3.13v1.18H192.2Z"/><path class="cls-1" d="M199.71,59.09V52.58h1.51v5.28h3.26v1.23Z"/><path class="cls-1" d="M214.77,57.88h3.54v1.21h-5V52.58h4.91v1.21h-3.42Zm-.11-2.68h3.13v1.18h-3.13Z"/><path class="cls-1" d="M224.31,59.2a5.33,5.33,0,0,1-1.5-.21,3.62,3.62,0,0,1-1.15-.54l.51-1.14a3.52,3.52,0,0,0,1,.49,3.57,3.57,0,0,0,1.16.19,2.34,2.34,0,0,0,.72-.09.78.78,0,0,0,.4-.24.55.55,0,0,0,.13-.36.48.48,0,0,0-.2-.42,1.94,1.94,0,0,0-.54-.25c-.22-.06-.47-.13-.74-.18s-.54-.14-.81-.22a3.57,3.57,0,0,1-.74-.34,1.55,1.55,0,0,1-.54-.54,1.57,1.57,0,0,1-.21-.85,1.84,1.84,0,0,1,.3-1,2,2,0,0,1,.91-.73,3.64,3.64,0,0,1,1.53-.28,5,5,0,0,1,1.21.15,3.31,3.31,0,0,1,1,.43l-.46,1.14a4.7,4.7,0,0,0-.91-.39,3.54,3.54,0,0,0-.9-.12,2,2,0,0,0-.71.1.83.83,0,0,0-.4.27.61.61,0,0,0-.12.37.5.5,0,0,0,.2.41,1.69,1.69,0,0,0,.54.24c.22.07.47.13.74.19l.81.21a2.92,2.92,0,0,1,.74.33,1.74,1.74,0,0,1,.54.54,1.54,1.54,0,0,1,.21.84,1.74,1.74,0,0,1-.31,1,2.11,2.11,0,0,1-.91.73A3.66,3.66,0,0,1,224.31,59.2Z"/><path class="cls-1" d="M232,59.09V53.81h-2.09V52.58h5.68v1.23h-2.09v5.28Z"/><path class="cls-1" d="M237.89,59.09l2.9-6.51h1.49l2.91,6.51h-1.58l-2.38-5.75h.59l-2.38,5.75Zm1.45-1.39.4-1.15h3.35l.41,1.15Z"/><path class="cls-1" d="M248.53,59.09V52.58h2.95a4.12,4.12,0,0,1,1.87.41,3.1,3.1,0,0,1,1.27,1.13,3.49,3.49,0,0,1,0,3.43,3.12,3.12,0,0,1-1.27,1.14,4.12,4.12,0,0,1-1.87.4Zm1.5-1.24h1.38a2.51,2.51,0,0,0,1.13-.24,1.79,1.79,0,0,0,.74-.7,2.28,2.28,0,0,0,0-2.15,1.71,1.71,0,0,0-.74-.69,2.38,2.38,0,0,0-1.13-.25H250Z"/><path class="cls-1" d="M262,59.2A3.91,3.91,0,0,1,260.6,59a3.26,3.26,0,0,1-1.88-1.78,3.22,3.22,0,0,1-.26-1.33,3.27,3.27,0,0,1,.26-1.34,3.23,3.23,0,0,1,.75-1.07,3.55,3.55,0,0,1,1.13-.71,3.89,3.89,0,0,1,1.42-.25,3.8,3.8,0,0,1,1.41.25,3.55,3.55,0,0,1,1.13.71,3.39,3.39,0,0,1,.75,3.75,3.23,3.23,0,0,1-.75,1.07,3.53,3.53,0,0,1-1.13.7A3.78,3.78,0,0,1,262,59.2Zm0-1.28a2.07,2.07,0,0,0,.8-.15,1.93,1.93,0,0,0,1.08-1.09,2.24,2.24,0,0,0,.15-.84,2.3,2.3,0,0,0-.15-.85,2.09,2.09,0,0,0-.43-.66,1.85,1.85,0,0,0-.64-.43,2.26,2.26,0,0,0-1.62,0,1.85,1.85,0,0,0-.64.43,2.12,2.12,0,0,0-.44.66,2.46,2.46,0,0,0,0,1.69,2.15,2.15,0,0,0,.43.66,1.8,1.8,0,0,0,.65.43A2.16,2.16,0,0,0,262,57.92Z"/><path class="cls-1" d="M310.74,25a31.55,31.55,0,0,0,.2-4V17a11.88,11.88,0,0,0-.35-3.67,4.43,4.43,0,0,0-1.88-1l.3-1.42H313c.83,0,3.4-.15,4.6-.15,4.16,0,6.71,1.71,6.71,5.28s-2.74,5.82-6.93,5.82A17,17,0,0,1,315,21.7a15.47,15.47,0,0,0,.31,3.07,6.67,6.67,0,0,0,2.33.95l-.3,1.42H309l-.3-1.42ZM315,19.39a13.7,13.7,0,0,0,1.95.16,5.76,5.76,0,0,0,2.13-.32,4.19,4.19,0,0,0,.93-3,4.18,4.18,0,0,0-.91-2.84,3.53,3.53,0,0,0-2-.55,6.39,6.39,0,0,0-1.84.25A31.05,31.05,0,0,0,315,17Z"/><path class="cls-1" d="M325.17,19.51a8.87,8.87,0,0,1,9-9c4.84,0,8.19,3,8.19,8a8.7,8.7,0,0,1-8.82,9C328.6,27.54,325.17,24.5,325.17,19.51Zm11.77,4.69a10.44,10.44,0,0,0,1-4.73c0-4-1.22-6.47-4.28-6.47a4.59,4.59,0,0,0-2.6.73,9.43,9.43,0,0,0-1.41,5.3c0,3.75,1.66,6.08,4.46,6.08A4.18,4.18,0,0,0,336.94,24.2Z"/><path class="cls-1" d="M346.14,25a31,31,0,0,0,.21-4V17a11.88,11.88,0,0,0-.35-3.67,4.44,4.44,0,0,0-1.88-1l.3-1.42h3.73c.83,0,3.39-.15,4.54-.15,4,0,6.47,1.4,6.47,4.16a4.23,4.23,0,0,1-2.72,3.73c1.93.49,3.51,1.71,3.51,3.92,0,3.18-3,4.76-6.45,4.76-1.48,0-3.69-.2-5.19-.2h-3.89l-.3-1.42Zm4.26-7.08,3.21.14a3.42,3.42,0,0,0,1.29-2.79,3.33,3.33,0,0,0-.54-1.93,3.4,3.4,0,0,0-2-.55,6.85,6.85,0,0,0-1.56.18l-.19.07a31.35,31.35,0,0,0-.2,3.95Zm.43,6.9a4.15,4.15,0,0,0,2.19.48,4.87,4.87,0,0,0,1.66-.28,3.28,3.28,0,0,0,1-2.45c0-1.42-.87-2.34-2.61-2.34H350.4v.81a12,12,0,0,0,.35,3.68A.35.35,0,0,0,350.83,24.83Z"/><path class="cls-1" d="M364.31,25a31,31,0,0,0,.21-4V17a12.2,12.2,0,0,0-.35-3.67,4.42,4.42,0,0,0-1.89-1l.31-1.42h7.91l.3,1.42-2,.71a31.35,31.35,0,0,0-.2,3.95v4.05a12,12,0,0,0,.35,3.68,1.29,1.29,0,0,0,.16.18,5,5,0,0,0,2.07.28,15.68,15.68,0,0,0,2.1-.14l.82-3a16.12,16.12,0,0,1,2.63.12c.06,1.6.06,3.31,0,5H362.59l-.31-1.42Z"/><path class="cls-1" d="M385.42,27.14h-7.3l-.3-1.42,1.93-.91c1.37-2.82,3.12-7.2,4.76-11.44l.77-2.25a21.78,21.78,0,0,1,4.3-.41,20.56,20.56,0,0,0,.83,2.66c1.7,4.3,3.61,9.39,4.58,11.54l2.15.81-.3,1.42h-8l-.3-1.42,2-.71c-.28-.81-.6-1.79-1-2.84l-5.76.14c-.26.87-.53,1.73-.75,2.5l2.64.91Zm3.47-7c-.67-1.9-1.42-4-2.21-6C386,16,385.24,18,384.57,20Z"/><path class="cls-1" d="M408.85,24.46c.2-.46.54-1.56.91-2.86a25,25,0,0,1,2.73.12c.07,1,.11,2.58.11,3.47l-.37.73a11.82,11.82,0,0,1-6.16,1.62c-5.4,0-8.72-3.12-8.72-8.23s4.3-8.8,9.22-8.8a13.2,13.2,0,0,1,6,1.42l.4.71c-.22,1.24-.63,3-.91,4.2a22.22,22.22,0,0,1-2.54-.12,12.59,12.59,0,0,0-.79-3A5.12,5.12,0,0,0,406,13a5.17,5.17,0,0,0-2.46.55A8.9,8.9,0,0,0,401.81,19c0,3.53,1.78,5.88,4.78,5.88A4.71,4.71,0,0,0,408.85,24.46Z"/><path class="cls-1" d="M417,25a31.55,31.55,0,0,0,.2-4V17a12.27,12.27,0,0,0-.34-3.67,4.48,4.48,0,0,0-1.89-1l.3-1.42h7.91l.31,1.42-2,.71a31.35,31.35,0,0,0-.2,3.95v4.05a12.39,12.39,0,0,0,.34,3.68,4.53,4.53,0,0,0,1.89,1l-.31,1.42h-7.91l-.3-1.42Z"/><path class="cls-1" d="M425.23,19.51a8.87,8.87,0,0,1,9-9c4.85,0,8.2,3,8.2,8a8.71,8.71,0,0,1-8.82,9C428.66,27.54,425.23,24.5,425.23,19.51ZM437,24.2a10.29,10.29,0,0,0,1-4.73c0-4-1.22-6.47-4.28-6.47a4.56,4.56,0,0,0-2.6.73,9.43,9.43,0,0,0-1.42,5.3c0,3.75,1.66,6.08,4.46,6.08A4.16,4.16,0,0,0,437,24.2Zm-.3-20.06A10.79,10.79,0,0,1,438.25,7l-.41.83L431.21,9.5l-.4-.21-.41-1.23C432.25,6.78,434.6,5.32,436.69,4.14Z"/><path class="cls-1" d="M445.85,13.33a6.71,6.71,0,0,0-1.88-1l.3-1.42c1.69,0,3.73,0,5.27-.11,1.32,2.46,5.07,7,7.77,10.27,0-4.41-.24-7.24-.51-7.75a7.21,7.21,0,0,0-2.39-1l.31-1.42h7.15l.31,1.42-2,.73a131.67,131.67,0,0,0-.41,13.87l-3.14.3-2.09-3c-1.66-2.27-3.83-5-5.67-7.16a50.43,50.43,0,0,0,.44,7.69,8.4,8.4,0,0,0,2.7,1l-.31,1.42h-7.4l-.3-1.42,2-.71a57,57,0,0,0,.2-6.1C446.2,15.74,446.14,13.71,445.85,13.33Z"/><path class="cls-1" d="M309.35,43.59V35.68h3.46a4.92,4.92,0,0,1,2.26.5,3.67,3.67,0,0,1,1.51,1.38,3.87,3.87,0,0,1,.54,2.07,3.93,3.93,0,0,1-.54,2.08,3.67,3.67,0,0,1-1.51,1.38,4.92,4.92,0,0,1-2.26.5Zm1.47-1.25h1.92a3.33,3.33,0,0,0,1.54-.33,2.51,2.51,0,0,0,1-.95,2.76,2.76,0,0,0,.35-1.43,2.72,2.72,0,0,0-.35-1.42,2.44,2.44,0,0,0-1-1,3.33,3.33,0,0,0-1.54-.34h-1.92Z"/><path class="cls-1" d="M319,43.59V35.68h1.47v7.91Z"/><path class="cls-1" d="M322.85,43.59V35.68h3.25a4.45,4.45,0,0,1,1.8.34,2.65,2.65,0,0,1,1.16,1,2.95,2.95,0,0,1,0,3,2.57,2.57,0,0,1-1.16,1,4.45,4.45,0,0,1-1.8.33h-2.44l.66-.66v3Zm1.47-2.81-.66-.7H326a2.22,2.22,0,0,0,1.47-.42,1.48,1.48,0,0,0,.49-1.17,1.44,1.44,0,0,0-.49-1.16,2.28,2.28,0,0,0-1.47-.41h-2.37l.66-.72Zm3.7,2.81-2-2.87h1.57l2,2.87Z"/><path class="cls-1" d="M332.85,42.36h4.47v1.23h-5.93V35.68h5.77v1.23h-4.31ZM332.74,39h3.93v1.21h-3.93Z"/><path class="cls-1" d="M342.89,43.7a4.55,4.55,0,0,1-1.67-.3,3.92,3.92,0,0,1-1.35-.85,3.75,3.75,0,0,1-.88-1.29A4.29,4.29,0,0,1,339,38a3.64,3.64,0,0,1,.89-1.29,4,4,0,0,1,1.34-.85,4.56,4.56,0,0,1,1.68-.3,4.66,4.66,0,0,1,1.78.33,3.49,3.49,0,0,1,1.35,1l-.95.89a2.67,2.67,0,0,0-1-.69,2.72,2.72,0,0,0-1.15-.23,3,3,0,0,0-1.13.2,2.73,2.73,0,0,0-.9.58,2.55,2.55,0,0,0-.58.88,3.07,3.07,0,0,0,0,2.23,2.65,2.65,0,0,0,.58.88,2.73,2.73,0,0,0,.9.58,3.15,3.15,0,0,0,1.13.2,2.75,2.75,0,0,0,2.11-.93l.95.9a3.56,3.56,0,0,1-1.35,1A4.5,4.5,0,0,1,342.89,43.7Z"/><path class="cls-1" d="M351.22,43.7a4.56,4.56,0,0,1-1.68-.3,3.88,3.88,0,0,1-1.34-.85,3.77,3.77,0,0,1-.89-1.29,4.29,4.29,0,0,1,0-3.25,3.77,3.77,0,0,1,.89-1.29,4,4,0,0,1,1.35-.85,4.56,4.56,0,0,1,1.68-.3,4.61,4.61,0,0,1,1.77.33,3.52,3.52,0,0,1,1.36,1l-.95.89a2.85,2.85,0,0,0-1-.69,2.8,2.8,0,0,0-1.16-.23,3,3,0,0,0-1.13.2,2.69,2.69,0,0,0-.89.58,2.57,2.57,0,0,0-.59.88,3.07,3.07,0,0,0,0,2.23,2.65,2.65,0,0,0,1.48,1.46,3.15,3.15,0,0,0,1.13.2,2.8,2.8,0,0,0,1.16-.23,2.89,2.89,0,0,0,1-.7l.95.9a3.6,3.6,0,0,1-1.36,1A4.45,4.45,0,0,1,351.22,43.7Z"/><path class="cls-1" d="M356.05,43.59V35.68h1.47v7.91Z"/><path class="cls-1" d="M363.64,43.7a4.73,4.73,0,0,1-1.71-.3,4.1,4.1,0,0,1-1.35-.86,3.69,3.69,0,0,1-.89-1.28,4.29,4.29,0,0,1,0-3.25,3.69,3.69,0,0,1,.89-1.28,4.1,4.1,0,0,1,1.35-.86,5,5,0,0,1,3.4,0,4.32,4.32,0,0,1,1.35.86,3.83,3.83,0,0,1,.89,1.28,4.41,4.41,0,0,1,0,3.25,3.77,3.77,0,0,1-.89,1.29,4.48,4.48,0,0,1-1.35.85A4.66,4.66,0,0,1,363.64,43.7Zm0-1.29a3,3,0,0,0,1.1-.2,2.55,2.55,0,0,0,.88-.58,2.78,2.78,0,0,0,.59-.88,3.21,3.21,0,0,0,0-2.23,2.78,2.78,0,0,0-.59-.88,2.55,2.55,0,0,0-.88-.58,2.83,2.83,0,0,0-1.1-.2,2.76,2.76,0,0,0-2,.78,2.75,2.75,0,0,0-.58.88,3,3,0,0,0,0,2.22,2.69,2.69,0,0,0,.58.89,2.65,2.65,0,0,0,.88.58A3.08,3.08,0,0,0,363.63,42.41ZM362.68,35l1.52-1.55h1.66l-2,1.55Z"/><path class="cls-1" d="M369.72,43.59V35.68h1.21l5,6.09h-.6V35.68h1.46v7.91h-1.21l-5-6.09h.6v6.09Z"/><path class="cls-1" d="M386.25,43.7a4.63,4.63,0,0,1-1.7-.3,3.92,3.92,0,0,1-1.35-.85,3.8,3.8,0,0,1-.9-1.29,4.41,4.41,0,0,1,0-3.25,3.8,3.8,0,0,1,.9-1.29,4.06,4.06,0,0,1,1.36-.85,5.08,5.08,0,0,1,3.52,0,3.38,3.38,0,0,1,1.36,1l-.92.9a2.94,2.94,0,0,0-2.18-.9,3.14,3.14,0,0,0-1.16.2,2.78,2.78,0,0,0-.91.58,2.44,2.44,0,0,0-.59.88,3,3,0,0,0,0,2.22,2.57,2.57,0,0,0,.59.89,2.84,2.84,0,0,0,.9.58,3.27,3.27,0,0,0,1.15.2,3.63,3.63,0,0,0,1.14-.18,3.26,3.26,0,0,0,1-.63l.84,1.09a4.14,4.14,0,0,1-1.44.76A5.55,5.55,0,0,1,386.25,43.7Zm1.7-1.2v-3h1.39v3.15Z"/><path class="cls-1" d="M393,42.36h4.46v1.23h-5.93V35.68h5.77v1.23H393ZM392.91,39h3.93v1.21h-3.93Z"/><path class="cls-1" d="M399.4,43.59V35.68h1.21l5,6.09H405V35.68h1.46v7.91h-1.21l-5-6.09h.6v6.09Z"/><path class="cls-1" d="M410.3,42.36h4.46v1.23h-5.93V35.68h5.77v1.23h-4.3ZM410.19,39h3.93v1.21h-3.93Z"/><path class="cls-1" d="M416.68,43.59V35.68h3.25a4.45,4.45,0,0,1,1.8.34,2.65,2.65,0,0,1,1.16,1,2.95,2.95,0,0,1,0,3,2.57,2.57,0,0,1-1.16,1,4.45,4.45,0,0,1-1.8.33h-2.44l.66-.66v3Zm1.47-2.81-.66-.7h2.37a2.22,2.22,0,0,0,1.47-.42,1.48,1.48,0,0,0,.49-1.17,1.44,1.44,0,0,0-.49-1.16,2.28,2.28,0,0,0-1.47-.41h-2.37l.66-.72Zm3.7,2.81-2-2.87h1.57l2,2.87Z"/><path class="cls-1" d="M424.1,43.59l3.56-7.91h1.44l3.57,7.91h-1.54l-3.06-7.13h.59l-3.05,7.13Zm1.64-1.83.39-1.15h4.27l.39,1.15Z"/><path class="cls-1" d="M434,43.59V35.68h1.46v6.66h4.14v1.25Z"/><path class="cls-1" d="M444.4,43.59V35.68h3.46a4.92,4.92,0,0,1,2.26.5,3.73,3.73,0,0,1,1.51,1.38,3.87,3.87,0,0,1,.54,2.07,3.93,3.93,0,0,1-.54,2.08,3.73,3.73,0,0,1-1.51,1.38,4.92,4.92,0,0,1-2.26.5Zm1.47-1.25h1.92a3.33,3.33,0,0,0,1.54-.33,2.57,2.57,0,0,0,1-.95,2.86,2.86,0,0,0,.35-1.43,2.82,2.82,0,0,0-.35-1.42,2.5,2.5,0,0,0-1-1,3.33,3.33,0,0,0-1.54-.34h-1.92Z"/><path class="cls-1" d="M455.48,42.36h4.46v1.23H454V35.68h5.77v1.23h-4.3ZM455.37,39h3.93v1.21h-3.93Z"/><path class="cls-1" d="M309.35,60V52.13h3.26a4.28,4.28,0,0,1,1.8.34,2.64,2.64,0,0,1,1.16,1,3,3,0,0,1,0,3,2.58,2.58,0,0,1-1.16,1,4.28,4.28,0,0,1-1.8.34h-2.44l.65-.68v3Zm1.47-2.82-.65-.71h2.37A2.25,2.25,0,0,0,314,56.1a1.62,1.62,0,0,0,0-2.32,2.25,2.25,0,0,0-1.46-.41h-2.37l.65-.72Z"/><path class="cls-1" d="M321.54,60.15a4.52,4.52,0,0,1-1.71-.31,3.92,3.92,0,0,1-1.35-.85,3.77,3.77,0,0,1-.89-1.29,4.07,4.07,0,0,1-.32-1.62,4.14,4.14,0,0,1,.32-1.62,4,4,0,0,1,.89-1.29,4.25,4.25,0,0,1,1.35-.85,5,5,0,0,1,3.4,0,4.48,4.48,0,0,1,1.35.85,4,4,0,0,1,.89,1.29,4.29,4.29,0,0,1,0,3.25,3.87,3.87,0,0,1-.89,1.29,4.27,4.27,0,0,1-1.35.84A4.46,4.46,0,0,1,321.54,60.15Zm0-1.29a3.08,3.08,0,0,0,1.11-.2,2.75,2.75,0,0,0,.88-.58,3.06,3.06,0,0,0,.58-.88,2.87,2.87,0,0,0-.58-3.11,2.59,2.59,0,0,0-.88-.58,2.89,2.89,0,0,0-1.11-.21,2.8,2.8,0,0,0-1.1.21,2.5,2.5,0,0,0-.88.58A2.62,2.62,0,0,0,319,55a3,3,0,0,0,0,2.22,2.79,2.79,0,0,0,.58.89,2.65,2.65,0,0,0,.88.58A3.08,3.08,0,0,0,321.53,58.86Z"/><path class="cls-1" d="M327.63,60V52.13h3.7a3.6,3.6,0,0,1,2.17.56,1.76,1.76,0,0,1,.74,1.5,1.84,1.84,0,0,1-.29,1.07,2,2,0,0,1-.78.69,2.44,2.44,0,0,1-1.07.25l.2-.41a2.89,2.89,0,0,1,1.2.24,1.92,1.92,0,0,1,1.15,1.86,1.84,1.84,0,0,1-.78,1.58,3.9,3.9,0,0,1-2.31.57Zm1.46-1.16h2.38a2.41,2.41,0,0,0,1.26-.27,1.07,1.07,0,0,0,0-1.73,2.31,2.31,0,0,0-1.26-.28H329V55.46h2.19a2.15,2.15,0,0,0,1.18-.27.89.89,0,0,0,.41-.81.91.91,0,0,0-.41-.83,2.15,2.15,0,0,0-1.18-.27h-2.08Z"/><path class="cls-1" d="M336.5,60V52.13H338v6.66h4.13V60Z"/><path class="cls-1" d="M342.44,60,346,52.13h1.44L351,60h-1.53l-3.06-7.13H347L344,60Zm1.64-1.83.39-1.16h4.27l.4,1.16Z"/><path class="cls-1" d="M355.85,60.15a4.6,4.6,0,0,1-1.68-.3,3.88,3.88,0,0,1-1.34-.85,3.77,3.77,0,0,1-.89-1.29,4.16,4.16,0,0,1-.32-1.63,4.11,4.11,0,0,1,.32-1.62,3.91,3.91,0,0,1,.89-1.3,4.16,4.16,0,0,1,1.35-.84,4.56,4.56,0,0,1,1.68-.3,4.61,4.61,0,0,1,1.77.33,3.45,3.45,0,0,1,1.36,1l-.95.89a2.85,2.85,0,0,0-1-.69,2.79,2.79,0,0,0-1.15-.24,3,3,0,0,0-1.14.21,2.66,2.66,0,0,0-.89.57,2.78,2.78,0,0,0-.59.88,2.94,2.94,0,0,0-.21,1.12,2.9,2.9,0,0,0,.21,1.12,2.65,2.65,0,0,0,1.48,1.46,3.17,3.17,0,0,0,1.14.2,3,3,0,0,0,1.15-.23,2.92,2.92,0,0,0,1-.71l.95.91a3.63,3.63,0,0,1-1.36,1A4.45,4.45,0,0,1,355.85,60.15Z"/><path class="cls-1" d="M360.68,60V52.13h1.47V60Z"/><path class="cls-1" d="M368.27,60.15a4.52,4.52,0,0,1-1.71-.31,3.92,3.92,0,0,1-1.35-.85,3.64,3.64,0,0,1-.89-1.29,3.91,3.91,0,0,1-.32-1.62,4,4,0,0,1,.32-1.62,3.83,3.83,0,0,1,.89-1.29,4.25,4.25,0,0,1,1.35-.85,5,5,0,0,1,3.4,0,4.48,4.48,0,0,1,1.35.85,4,4,0,0,1,.89,1.29,4.41,4.41,0,0,1,0,3.25,3.87,3.87,0,0,1-.89,1.29,4.27,4.27,0,0,1-1.35.84A4.46,4.46,0,0,1,368.27,60.15Zm0-1.29a3,3,0,0,0,1.1-.2,2.55,2.55,0,0,0,.88-.58,3,3,0,0,0,.59-3.11,2.78,2.78,0,0,0-.59-.88,2.41,2.41,0,0,0-.88-.58,2.84,2.84,0,0,0-1.1-.21,2.8,2.8,0,0,0-1.1.21,2.64,2.64,0,0,0-.89.58,2.75,2.75,0,0,0-.58.88,3,3,0,0,0,0,2.22,2.79,2.79,0,0,0,.58.89,2.65,2.65,0,0,0,.88.58A3.08,3.08,0,0,0,368.26,58.86Zm-.95-7.37,1.52-1.55h1.66l-2,1.55Z"/><path class="cls-1" d="M374.36,60V52.13h1.2l5,6.09h-.6V52.13h1.46V60h-1.21l-5-6.09h.6V60Z"/><path class="cls-1" d="M387.18,60V52.13h3.46a4.92,4.92,0,0,1,2.26.5A3.78,3.78,0,0,1,394.41,54a4.26,4.26,0,0,1,0,4.15,3.69,3.69,0,0,1-1.51,1.39,4.92,4.92,0,0,1-2.26.5Zm1.47-1.25h1.92a3.21,3.21,0,0,0,1.54-.34,2.42,2.42,0,0,0,1-.94,3.1,3.1,0,0,0,0-2.86,2.48,2.48,0,0,0-1-.94,3.33,3.33,0,0,0-1.54-.34h-1.92Z"/><path class="cls-1" d="M398.26,58.8h4.46V60h-5.93V52.13h5.77v1.23h-4.3Zm-.11-3.38h3.93v1.2h-3.93Z"/><path class="cls-1" d="M411.74,60.15a4.51,4.51,0,0,1-1.7-.31,4.06,4.06,0,0,1-1.36-.85,3.77,3.77,0,0,1-.89-1.29,4.07,4.07,0,0,1-.31-1.62,4.14,4.14,0,0,1,.31-1.62,4,4,0,0,1,.89-1.29,4.41,4.41,0,0,1,1.36-.85,4.94,4.94,0,0,1,3.39,0,4.25,4.25,0,0,1,1.35.85,3.83,3.83,0,0,1,.89,1.29,4.29,4.29,0,0,1,0,3.25,3.73,3.73,0,0,1-.89,1.29,4.05,4.05,0,0,1-1.35.84A4.42,4.42,0,0,1,411.74,60.15Zm0-1.29a3.08,3.08,0,0,0,1.11-.2,2.65,2.65,0,0,0,.88-.58,2.86,2.86,0,0,0,.58-.88,3.07,3.07,0,0,0,0-2.23,2.75,2.75,0,0,0-.58-.88,2.5,2.5,0,0,0-.88-.58,2.89,2.89,0,0,0-1.11-.21,2.84,2.84,0,0,0-1.1.21,2.59,2.59,0,0,0-.88.58,2.78,2.78,0,0,0-.59.88,3.18,3.18,0,0,0,0,2.22,2.82,2.82,0,0,0,.59.89,2.55,2.55,0,0,0,.88.58A3,3,0,0,0,411.73,58.86Z"/><path class="cls-1" d="M416.6,60l3.56-7.91h1.44L425.17,60h-1.53l-3.06-7.13h.58L418.11,60Zm1.64-1.83.39-1.16h4.27l.4,1.16Z"/><path class="cls-1" d="M425.1,60l3.33-4.59v1.11l-3.17-4.43h1.66l2.36,3.28h-.68l2.34-3.29h1.59l-3.15,4.35V55.42L432.74,60H431l-2.48-3.48h.67L426.78,60Z"/><path class="cls-1" d="M432.66,60l3.56-7.91h1.44L441.23,60h-1.54l-3.06-7.13h.59L434.17,60Zm1.64-1.83.39-1.16H439l.39,1.16Z"/><path class="cls-1" d="M446.06,60.15a4.55,4.55,0,0,1-1.67-.3A3.92,3.92,0,0,1,443,59a3.75,3.75,0,0,1-.88-1.29,4.16,4.16,0,0,1-.32-1.63,4.11,4.11,0,0,1,.32-1.62,3.77,3.77,0,0,1,.89-1.3,4.11,4.11,0,0,1,1.34-.84,4.56,4.56,0,0,1,1.68-.3,4.66,4.66,0,0,1,1.78.33,3.49,3.49,0,0,1,1.35,1l-.95.89a2.67,2.67,0,0,0-1-.69,2.72,2.72,0,0,0-1.15-.24,3,3,0,0,0-1.13.21,2.57,2.57,0,0,0-.89.57,2.62,2.62,0,0,0-.59.88,2.94,2.94,0,0,0-.21,1.12,2.9,2.9,0,0,0,.21,1.12,2.53,2.53,0,0,0,.59.88,2.59,2.59,0,0,0,.89.58,3.15,3.15,0,0,0,1.13.2,2.88,2.88,0,0,0,1.15-.23,2.73,2.73,0,0,0,1-.71l.95.91a3.67,3.67,0,0,1-1.35,1A4.5,4.5,0,0,1,446.06,60.15Z"/><path class="cls-1" d="M449.61,60l3.56-7.91h1.44L458.18,60h-1.54l-3.06-7.13h.59L451.12,60Zm1.64-1.83.39-1.16h4.27l.4,1.16Z"/><rect class="cls-1" x="293.1" y="5.81" width="1.85" height="58.71"/></g></g></svg>