<svg xmlns="http://www.w3.org/2000/svg" viewBox="0 0 238.55 37.28"><defs><style>.cls-1{fill:#29abe2;}.cls-2{fill:#fff;}.cls-3{fill:none;stroke:#000;stroke-linecap:round;stroke-miterlimit:10;stroke-width:2px;}.cls-4{fill:#666;}</style></defs><g id="Capa_2" data-name="Capa 2"><g id="Capa_1-2" data-name="Capa 1"><rect class="cls-1" width="238.55" height="37.28" rx="6.81"/><rect class="cls-2" x="194.21" width="44.34" height="37.28" rx="6.81"/><path d="M14.54,8.24c.17,0,.2,0,.27.33l4.3,15.35c.41,1.49.51,1.66,1.09,1.66a.91.91,0,0,0,.76-.27,5.45,5.45,0,0,0,.48-1.39L25.61,8.57c0-.23.13-.33.28-.33h1.44c.28,0,.3,0,.28.33l-4.33,15.8a6.78,6.78,0,0,1-1,2.45,3.19,3.19,0,0,1-2.1.46,2.76,2.76,0,0,1-1.92-.46,7,7,0,0,1-1-2.45L12.82,8.57c-.08-.28,0-.33.25-.33Z"/><path d="M39.67,14.64c.71.86,1.09,2.6,1.11,5.2v.74c0,.48-.1.63-.78.63H31.73c0,1.8.28,3,.76,3.57s1.44.88,2.91.88h4a.29.29,0,0,1,.33.33v.78a.32.32,0,0,1-.31.33,35.43,35.43,0,0,1-4,.18c-2.35,0-3.64-.31-4.48-1.42s-1-2.63-1-5.56.35-4.68,1-5.59,2.2-1.36,4.48-1.36S39,13.78,39.67,14.64Zm-7.21,1.24c-.45.58-.7,1.82-.73,3.69h7.21a7.16,7.16,0,0,0-.71-3.72c-.43-.58-1.39-.89-2.83-.89S32.92,15.27,32.46,15.88Z"/><path d="M50.09,13.57a.4.4,0,0,1,.3.36v.73c0,.23-.1.33-.33.3h-2.2c-1.61,0-2.22.31-2.22,1.45V26.82c0,.23-.1.33-.33.33H44.12c-.23,0-.33-.1-.33-.33V16a2.56,2.56,0,0,1,.94-2.1,2.39,2.39,0,0,1,1-.38,5.92,5.92,0,0,1,1.77-.2A9.84,9.84,0,0,1,50.09,13.57Z"/><path d="M67.48,14.71c.71.91,1.07,2.81,1.07,5.67a12.12,12.12,0,0,1-.64,4.82c-.63,1.6-2.25,2.08-5.1,2.08a33.68,33.68,0,0,1-3.47-.15v4.65c0,.23-.1.33-.3.33H57.85c-.23,0-.33-.1-.33-.33V14.05c0-.2.13-.32.36-.37a37.66,37.66,0,0,1,5.1-.33C65.28,13.35,66.8,13.8,67.48,14.71ZM59.34,15V25.48c1.29.13,2.46.18,3.47.18,1.69,0,2.78-.33,3.21-1s.68-2.12.68-4.32S66.47,16.66,66,16,64.6,15,63,15Z"/><path d="M81.59,25.86C80.76,27,79.47,27.28,77,27.28s-3.81-.46-4.55-1.37-1.06-2.8-1.06-5.61.35-4.68,1.06-5.59,2.25-1.36,4.55-1.36,3.82.45,4.55,1.36,1.09,2.78,1.09,5.59S82.48,24.75,81.59,25.86ZM73.93,16c-.45.68-.68,2.1-.68,4.3s.23,3.64.68,4.32,1.52,1,3.11,1,2.66-.35,3.11-1,.71-2.12.71-4.32-.23-3.62-.71-4.3S78.66,15,77,15,74.41,15.32,73.93,16Z"/><path d="M92.27,13.57a.4.4,0,0,1,.3.36v.73c0,.23-.1.33-.33.3H90c-1.62,0-2.22.31-2.22,1.45V26.82a.29.29,0,0,1-.33.33H86.3c-.23,0-.33-.1-.33-.33V16a2.56,2.56,0,0,1,.94-2.1,2.39,2.39,0,0,1,1-.38,5.88,5.88,0,0,1,1.77-.2A9.84,9.84,0,0,1,92.27,13.57Z"/><path d="M106,13.57a.4.4,0,0,1,.3.36v.73c0,.23-.1.33-.32.3h-2.2c-1.62,0-2.23.31-2.23,1.45V26.82c0,.23-.1.33-.33.33H100a.29.29,0,0,1-.33-.33V16a2.56,2.56,0,0,1,.94-2.1,2.39,2.39,0,0,1,1-.38,5.92,5.92,0,0,1,1.77-.2A9.79,9.79,0,0,1,106,13.57Z"/><path d="M117.91,14.64c.7.86,1.08,2.6,1.11,5.2v.74c0,.48-.1.63-.79.63H110c0,1.8.27,3,.75,3.57s1.45.88,2.91.88h4c.23,0,.33.1.33.33v.78a.31.31,0,0,1-.3.33,35.74,35.74,0,0,1-4,.18c-2.35,0-3.64-.31-4.47-1.42s-1-2.63-1-5.56.35-4.68,1-5.59,2.2-1.36,4.47-1.36S117.22,13.78,117.91,14.64Zm-7.21,1.24c-.46.58-.71,1.82-.73,3.69h7.2a7.06,7.06,0,0,0-.71-3.72c-.43-.58-1.39-.89-2.83-.89S111.15,15.27,110.7,15.88Z"/><path d="M132.34,13.68a.33.33,0,0,1,.33.37V26.11c0,2.46-.38,4.08-1.11,4.88s-2.22,1.24-4.5,1.24a32.31,32.31,0,0,1-3.41-.17.32.32,0,0,1-.31-.36v-.78c0-.2.1-.3.31-.3h3.41c1.54,0,2.55-.23,3-.71a3.5,3.5,0,0,0,.76-2.63V27.1a25.81,25.81,0,0,1-3.46.18,7.9,7.9,0,0,1-4.12-.81c-1.32-1-1.6-2.71-1.62-6.12,0-2.86.35-4.73,1-5.64s2.22-1.36,4.52-1.36A37.79,37.79,0,0,1,132.34,13.68ZM130.85,15h-3.64c-1.62,0-2.65.33-3.08,1s-.64,2.12-.64,4.34a12.26,12.26,0,0,0,.36,3.72c.43,1.27,1.47,1.62,3.54,1.62a28.18,28.18,0,0,0,3.46-.18Z"/><path d="M138.54,9.6c0,.81-.38,1.22-1.16,1.22a1.08,1.08,0,0,1-1.22-1.22c0-.78.41-1.16,1.22-1.16A1,1,0,0,1,138.54,9.6ZM138,13.47c.23,0,.33.1.33.33v13c0,.23-.1.33-.33.33h-1.19c-.23,0-.33-.1-.33-.33v-13c0-.23.1-.33.33-.33Z"/><path d="M151.79,25.86c-.84,1.11-2.12,1.42-4.55,1.42s-3.82-.46-4.55-1.37-1.06-2.8-1.06-5.61.35-4.68,1.06-5.59,2.25-1.36,4.55-1.36,3.82.45,4.55,1.36,1.09,2.78,1.09,5.59S152.67,24.75,151.79,25.86ZM144.13,16c-.46.68-.68,2.1-.68,4.3s.22,3.64.68,4.32,1.52,1,3.11,1,2.65-.35,3.11-1,.71-2.12.71-4.32-.23-3.62-.71-4.3-1.49-1-3.11-1S144.61,15.32,144.13,16Zm6-7.76a.2.2,0,0,1,.23.23v.2a.39.39,0,0,1-.1.25l-3.13,3a.27.27,0,0,1-.33,0l-.36-.28c-.12-.07-.12-.17-.05-.3l1.87-3a.3.3,0,0,1,.28-.15Z"/><path d="M163.5,13.42a4.23,4.23,0,0,1,2.5.84c.88.81,1.24,2.22,1.24,4.85v7.71c0,.23-.13.33-.38.33h-1.14c-.23,0-.33-.1-.33-.33V19.11c0-1.95-.17-3-.81-3.54s-1.21-.61-2.65-.61H158V26.82c0,.23-.1.33-.3.33h-1.19c-.23,0-.33-.1-.33-.33V14c0-.2.1-.3.33-.33a30.51,30.51,0,0,1,5.11-.35C162.38,13.35,163,13.37,163.5,13.42Z"/><ellipse class="cls-3" cx="217.96" cy="18.64" rx="10.21" ry="5.6"/><circle class="cls-3" cx="217.96" cy="17.24" r="4.21"/><circle cx="217.98" cy="17.22" r="1.68"/><path class="cls-4" d="M231.74,1a5.81,5.81,0,0,1,5.81,5.81V30.47a5.81,5.81,0,0,1-5.81,5.81H6.81A5.82,5.82,0,0,1,1,30.47V6.81A5.82,5.82,0,0,1,6.81,1H231.74m0-1H6.81A6.81,6.81,0,0,0,0,6.81V30.47a6.81,6.81,0,0,0,6.81,6.81H231.74a6.81,6.81,0,0,0,6.81-6.81V6.81A6.81,6.81,0,0,0,231.74,0Z"/></g></g></svg>