<svg xmlns="http://www.w3.org/2000/svg" viewBox="0 0 451.02 37.28"><defs><style>.cls-1{fill:#f9af14;}.cls-2{fill:#666;}</style></defs><g id="Capa_2" data-name="Capa 2"><g id="Capa_1-2" data-name="Capa 1"><rect class="cls-1" width="451.02" height="37.28" rx="6.81"/><path d="M171.43,8.72c1.93.71,2.4,2.22,2.51,5.39,0,2-.31,3.46-.94,4.27a4.68,4.68,0,0,1-3.31,1.46L174,26.72c.18.23.08.43-.25.43h-1.11a1,1,0,0,1-.86-.45L167.54,20l-4.42,0v6.82a.29.29,0,0,1-.33.33H161.5c-.23,0-.33-.1-.33-.33V8.57c0-.2.1-.31.33-.33,1.34-.08,2.93-.13,4.8-.13A14.09,14.09,0,0,1,171.43,8.72Zm-8.31,1.09v8.47h3c.76,0,1.34,0,1.77,0a7.83,7.83,0,0,0,2.48-.35,2.19,2.19,0,0,0,1.24-1.22,8,8,0,0,0,.35-2.55c0-2-.22-3-1.23-3.62a4,4,0,0,0-1.72-.58,28.57,28.57,0,0,0-2.89-.12Z"/><path d="M191.81,8.24c.23,0,.33.1.33.3V9.6c0,.23-.1.33-.33.33H182v7.26h9c.23,0,.33.1.33.3v1.06c0,.23-.1.33-.33.33h-9v6.58h9.86c.23,0,.33.1.33.3v1.06c0,.23-.1.33-.33.33H180.39a.33.33,0,0,1-.38-.38V8.62a.33.33,0,0,1,.38-.38Z"/><path d="M209.62,8.26a.33.33,0,0,1,.3.36v.86c0,.23-.1.33-.33.33H205c-2.4,0-3.72.38-4.55,1.69s-1,3-1,6.22.2,4.91,1,6.2,2.15,1.66,4.55,1.66h4.15v-7.4c0-.21.1-.31.32-.31h1.19c.23,0,.33.1.33.31V26a.6.6,0,0,1-.1.4c-.4.59-2.25.86-5.51.84H205a8.94,8.94,0,0,1-5.23-1.22c-1.77-1.41-2.23-3.84-2.25-8.34,0-3.84.35-6,1.49-7.56s2.93-2.05,6-2.05C207.06,8.11,208.61,8.16,209.62,8.26Z"/><path d="M218.75,8.24c.22,0,.32.1.32.3V26.82c0,.23-.1.33-.32.33h-1.29c-.21,0-.31-.1-.31-.33V8.54c0-.2.1-.3.31-.3Z"/><path d="M236.5,8.37c.17,0,.27.1.27.27V9.5c0,.21-.07.31-.25.31h-5.59c-2.52,0-3.71.76-3.71,2.55v.4c0,1.5.43,2.18,2.07,2.86l5.77,2.43a4.12,4.12,0,0,1,2.7,4.27v.76a3.9,3.9,0,0,1-1.29,3.16,4.46,4.46,0,0,1-1.47.68,13,13,0,0,1-3.61.36,60.37,60.37,0,0,1-6.14-.28c-.18,0-.26-.1-.26-.3v-.84c0-.17.1-.28.31-.28H232c2.52,0,3.84-.63,3.84-2.52V22.5a2.92,2.92,0,0,0-2-3l-6.2-2.55a4.29,4.29,0,0,1-1.54-1.06,4.23,4.23,0,0,1-.86-3v-.55a3.85,3.85,0,0,1,1.19-3c1.26-.93,2.93-1.14,5.11-1.14C233.06,8.11,234.7,8.19,236.5,8.37Z"/><path d="M255,8.24a.27.27,0,0,1,.3.3V9.6c0,.23-.1.33-.3.33h-5.94V26.82c0,.23-.1.33-.33.33H247.5c-.23,0-.33-.1-.33-.33V9.93h-5.94c-.23,0-.33-.1-.33-.33V8.54c0-.2.1-.3.33-.3Z"/><path d="M270.68,8.72c1.93.71,2.41,2.22,2.51,5.39,0,2-.31,3.46-.94,4.27a4.66,4.66,0,0,1-3.31,1.46l4.32,6.88c.18.23.08.43-.25.43H271.9a1,1,0,0,1-.86-.45L266.79,20l-4.42,0v6.82c0,.23-.1.33-.33.33h-1.29c-.23,0-.33-.1-.33-.33V8.57c0-.2.1-.31.33-.33,1.34-.08,2.93-.13,4.8-.13A14,14,0,0,1,270.68,8.72Zm-8.31,1.09v8.47h3.06c.75,0,1.34,0,1.77,0a7.81,7.81,0,0,0,2.47-.35,2.16,2.16,0,0,0,1.24-1.22,8,8,0,0,0,.36-2.55c0-2-.23-3-1.24-3.62a3.9,3.9,0,0,0-1.72-.58,28.49,28.49,0,0,0-2.88-.12Z"/><path d="M287.27,8.59A5.68,5.68,0,0,1,288.33,11l4.33,15.78c0,.23,0,.35-.25.35H291c-.12,0-.22-.1-.27-.33L289,21H281.1l-1.66,5.84c-.08.23-.18.33-.31.33h-1.44c-.23,0-.3-.12-.25-.35L281.91,11A5.75,5.75,0,0,1,283,8.62a3.14,3.14,0,0,1,2.08-.51A3.43,3.43,0,0,1,287.27,8.59Zm-3,1.5a5.36,5.36,0,0,0-.5,1.39l-2.2,7.78h7l-2.1-7.78a4.18,4.18,0,0,0-.53-1.39c-.13-.18-.43-.28-.91-.28A1,1,0,0,0,284.26,10.09Z"/><path d="M308.44,8.72c1.92.71,2.4,2.22,2.5,5.39,0,2-.3,3.46-.94,4.27a4.64,4.64,0,0,1-3.31,1.46L311,26.72c.17.23.07.43-.26.43h-1.11a1,1,0,0,1-.86-.45L304.54,20l-4.42,0v6.82c0,.23-.1.33-.33.33H298.5c-.23,0-.33-.1-.33-.33V8.57c0-.2.1-.31.33-.33,1.34-.08,2.93-.13,4.8-.13A14.11,14.11,0,0,1,308.44,8.72Zm-8.32,1.09v8.47h3.06c.76,0,1.34,0,1.77,0a7.88,7.88,0,0,0,2.48-.35,2.19,2.19,0,0,0,1.24-1.22,8,8,0,0,0,.35-2.55c0-2-.23-3-1.24-3.62a3.9,3.9,0,0,0-1.72-.58,28.49,28.49,0,0,0-2.88-.12Z"/><path class="cls-2" d="M444.21,1A5.81,5.81,0,0,1,450,6.81V30.47a5.81,5.81,0,0,1-5.81,5.81H6.81A5.82,5.82,0,0,1,1,30.47V6.81A5.82,5.82,0,0,1,6.81,1h437.4m0-1H6.81A6.81,6.81,0,0,0,0,6.81V30.47a6.81,6.81,0,0,0,6.81,6.81h437.4A6.81,6.81,0,0,0,451,30.47V6.81A6.81,6.81,0,0,0,444.21,0Z"/></g></g></svg>