<svg xmlns="http://www.w3.org/2000/svg" viewBox="0 0 238.55 37.28"><defs><style>.cls-1{fill:#f9af14;}.cls-2{fill:#fff;}.cls-3{fill:none;stroke:#000;stroke-linecap:round;stroke-miterlimit:10;stroke-width:2px;}.cls-4{fill:#666;}</style></defs><g id="Capa_2" data-name="Capa 2"><g id="Capa_1-2" data-name="Capa 1"><rect class="cls-1" width="238.55" height="37.28" rx="6.81"/><rect class="cls-2" x="194.21" width="44.34" height="37.28" rx="6.81"/><path d="M14.54,8.24c.17,0,.2,0,.27.33l4.3,15.35c.41,1.49.51,1.66,1.09,1.66a.91.91,0,0,0,.76-.27,5.45,5.45,0,0,0,.48-1.39L25.61,8.57c0-.23.13-.33.28-.33h1.44c.28,0,.3,0,.28.33l-4.33,15.8a6.78,6.78,0,0,1-1,2.45,3.19,3.19,0,0,1-2.1.46,2.76,2.76,0,0,1-1.92-.46,7,7,0,0,1-1-2.45L12.82,8.57c-.08-.28,0-.33.25-.33Z"/><path d="M39.67,14.64c.71.86,1.09,2.6,1.11,5.2v.74c0,.48-.1.63-.78.63H31.73c0,1.8.28,3,.76,3.57s1.44.88,2.91.88h4c.22,0,.32.1.32.33v.78a.31.31,0,0,1-.3.33,35.43,35.43,0,0,1-4,.18c-2.35,0-3.64-.31-4.48-1.42s-1-2.63-1-5.56.35-4.68,1-5.59,2.2-1.36,4.48-1.36S39,13.78,39.67,14.64Zm-7.21,1.24c-.45.58-.7,1.82-.73,3.69h7.21a7.16,7.16,0,0,0-.71-3.72c-.43-.58-1.39-.89-2.83-.89S32.92,15.27,32.46,15.88Z"/><path d="M50.09,13.57a.4.4,0,0,1,.3.36v.73c0,.23-.1.33-.33.3h-2.2c-1.61,0-2.22.31-2.22,1.45V26.82c0,.23-.1.33-.33.33H44.12c-.23,0-.33-.1-.33-.33V16a2.56,2.56,0,0,1,.94-2.1,2.39,2.39,0,0,1,1-.38,5.92,5.92,0,0,1,1.77-.2A9.84,9.84,0,0,1,50.09,13.57Z"/><path d="M75.55,8.24a.35.35,0,0,1,.38.35L77.5,26.82c0,.23-.1.33-.33.33H75.88c-.2,0-.3-.1-.33-.33L74.34,11.43,68.47,26.27a.45.45,0,0,1-.46.3H66.65a.45.45,0,0,1-.46-.3L60.33,11.43,59.12,26.82c0,.23-.13.33-.33.33H57.5c-.23,0-.33-.1-.33-.33L58.74,8.59a.35.35,0,0,1,.38-.35h1.41c.51,0,.63.2.94.94l5.86,15.19L73.2,9.18c.3-.74.43-.94.93-.94Z"/><path d="M91.53,13.47c.23,0,.33.1.33.33V26.6c0,.22,0,.25-.33.32a30.31,30.31,0,0,1-5.1.36c-2.31,0-3.34-.13-4.35-.91s-1.27-2.23-1.27-4.86V13.8c0-.23.13-.33.36-.33h1.16c.23,0,.33.1.33.33v7.69c0,1.94.17,3,.81,3.56s1.21.61,2.65.61H90V13.8a.29.29,0,0,1,.33-.33Z"/><path d="M102.91,13.42a4.19,4.19,0,0,1,2.5.84c.89.81,1.24,2.22,1.24,4.85v7.71c0,.23-.12.33-.38.33h-1.13c-.23,0-.33-.1-.33-.33V19.11c0-1.95-.18-3-.81-3.54s-1.21-.61-2.66-.61H97.43V26.82c0,.23-.11.33-.31.33H95.93a.29.29,0,0,1-.33-.33V14c0-.2.11-.3.33-.33a30.6,30.6,0,0,1,5.11-.35C101.8,13.35,102.43,13.37,102.91,13.42Z"/><path d="M112.44,9.6c0,.81-.37,1.22-1.16,1.22a1.07,1.07,0,0,1-1.21-1.22c0-.78.4-1.16,1.21-1.16A1,1,0,0,1,112.44,9.6Zm-.58,3.87c.23,0,.33.1.33.33v13c0,.23-.1.33-.33.33h-1.18c-.23,0-.33-.1-.33-.33v-13c0-.23.1-.33.33-.33Z"/><path d="M124.89,13.52a.3.3,0,0,1,.3.33v.79c0,.22-.1.32-.33.32h-3.72c-1.59,0-2.63.36-3.11,1s-.68,2.1-.68,4.3.23,3.64.68,4.32,1.52,1,3.11,1h3.72c.23,0,.33.1.33.33v.78a.31.31,0,0,1-.3.33,32.84,32.84,0,0,1-3.75.18c-2.3,0-3.81-.46-4.55-1.37s-1.06-2.8-1.06-5.61.35-4.68,1.06-5.59,2.25-1.36,4.55-1.36A31.19,31.19,0,0,1,124.89,13.52Z"/><path d="M130.1,9.6c0,.81-.38,1.22-1.17,1.22a1.07,1.07,0,0,1-1.21-1.22c0-.78.4-1.16,1.21-1.16A1,1,0,0,1,130.1,9.6Zm-.59,3.87c.23,0,.33.1.33.33v13c0,.23-.1.33-.33.33h-1.18c-.23,0-.33-.1-.33-.33v-13c0-.23.1-.33.33-.33Z"/><path d="M143.57,14.71c.71.91,1.06,2.81,1.06,5.67A12.16,12.16,0,0,1,144,25.2c-.63,1.6-2.25,2.08-5.11,2.08a33.6,33.6,0,0,1-3.46-.15v4.65c0,.23-.1.33-.3.33h-1.19c-.23,0-.33-.1-.33-.33V14.05c0-.2.13-.32.35-.37a37.91,37.91,0,0,1,5.11-.33C141.37,13.35,142.89,13.8,143.57,14.71Zm-8.14.25V25.48a34.6,34.6,0,0,0,3.46.18c1.7,0,2.79-.33,3.21-1s.69-2.12.69-4.32-.23-3.69-.66-4.37-1.44-1-3.06-1Z"/><path d="M150.07,9.6c0,.81-.38,1.22-1.16,1.22a1.08,1.08,0,0,1-1.22-1.22c0-.78.41-1.16,1.22-1.16A1,1,0,0,1,150.07,9.6Zm-.58,3.87c.23,0,.33.1.33.33v13c0,.23-.1.33-.33.33H148.3c-.23,0-.33-.1-.33-.33v-13c0-.23.1-.33.33-.33Z"/><path d="M163.32,25.86c-.83,1.11-2.12,1.42-4.55,1.42s-3.82-.46-4.55-1.37-1.06-2.8-1.06-5.61.35-4.68,1.06-5.59,2.25-1.36,4.55-1.36,3.82.45,4.55,1.36,1.09,2.78,1.09,5.59S164.21,24.75,163.32,25.86ZM155.66,16c-.46.68-.68,2.1-.68,4.3s.22,3.64.68,4.32,1.52,1,3.11,1,2.65-.35,3.11-1,.71-2.12.71-4.32-.23-3.62-.71-4.3-1.49-1-3.11-1S156.14,15.32,155.66,16Z"/><path d="M175.86,13.52c.2,0,.31.13.31.33v.79c0,.22-.11.32-.33.32h-4.6c-1.47,0-2.2.51-2.2,1.52v.41c0,.91.4,1.51,1.69,2l3.57,1.45c2,.8,2.4,1.79,2.4,3.38v.31a2.73,2.73,0,0,1-1.12,2.58,8.12,8.12,0,0,1-3.84.63,41.37,41.37,0,0,1-4.4-.2c-.2,0-.3-.13-.3-.31V26c0-.23.1-.33.3-.33h4.45c2.4,0,3.09-.3,3.09-1.59v-.33c0-.89-.38-1.42-1.52-1.9l-3.79-1.52a3.45,3.45,0,0,1-2.35-3.46V16.3a2.61,2.61,0,0,1,1-2.22,3.59,3.59,0,0,1,1.11-.48,9.5,9.5,0,0,1,2.6-.25A35.11,35.11,0,0,1,175.86,13.52Z"/><ellipse class="cls-3" cx="217.96" cy="18.64" rx="10.21" ry="5.6"/><circle class="cls-3" cx="217.96" cy="17.24" r="4.21"/><circle cx="217.98" cy="17.22" r="1.68"/><path class="cls-4" d="M231.74,1a5.81,5.81,0,0,1,5.81,5.81V30.47a5.81,5.81,0,0,1-5.81,5.81H6.81A5.82,5.82,0,0,1,1,30.47V6.81A5.82,5.82,0,0,1,6.81,1H231.74m0-1H6.81A6.81,6.81,0,0,0,0,6.81V30.47a6.81,6.81,0,0,0,6.81,6.81H231.74a6.81,6.81,0,0,0,6.81-6.81V6.81A6.81,6.81,0,0,0,231.74,0Z"/></g></g></svg>